<?xml version="1.0" encoding="utf-8"?>
<!-- Generator: Adobe Illustrator 19.0.0, SVG Export Plug-In . SVG Version: 6.00 Build 0)  -->
<svg version="1.1" xmlns="http://www.w3.org/2000/svg" xmlns:xlink="http://www.w3.org/1999/xlink" x="0px" y="0px"
	 viewBox="0 0 130 116" style="enable-background:new 0 0 130 116;" xml:space="preserve">
<style type="text/css">
	.st0{fill:#E3001E;}
	.st1{fill:#5C546A;}
	.st2{fill:#FF4F19;}
	.st3{fill:#FFCD00;}
	.st4{fill:#FFE671;}
</style>
<g id="Layer_2">
</g>
<g id="Layer_1">
	<g id="XMLID_1_">
		<path id="XMLID_66_" class="st0" d="M92.6,9.1h8.6c1.9,0,3.5,1.6,3.5,3.6v20.8c0,0.8-0.5,1.4-1.1,1.7c-0.2,0.1-0.4,0.1-0.6,0.1
			c-0.5,0-1-0.2-1.3-0.7L89.5,19.3c-0.3-0.3-0.4-0.7-0.4-1.2v-5.4C89.1,10.7,90.7,9.1,92.6,9.1L92.6,9.1z M92.6,9.1"/>
		<path id="XMLID_63_" class="st0" d="M44.2,9.1h-8.6c-1.9,0-3.5,1.6-3.5,3.6v20.8c0,0.8,0.5,1.4,1.1,1.7c0.2,0.1,0.4,0.1,0.6,0.1
			c0.5,0,1-0.2,1.3-0.7l12.1-15.4c0.3-0.3,0.4-0.7,0.4-1.2v-5.4C47.7,10.7,46.1,9.1,44.2,9.1L44.2,9.1z M44.2,9.1"/>
		<path id="XMLID_60_" class="st1" d="M82.3,14.5c-1,0-1.7-0.8-1.7-1.8V7.3c0-1-0.8-1.8-1.7-1.8H58.1c-1,0-1.7,0.8-1.7,1.8v5.4
			c0,1-0.8,1.8-1.7,1.8c-1,0-1.7-0.8-1.7-1.8V7.3c0-4,3.1-7.3,6.9-7.3h17.3C80.9,0,84,3.2,84,7.3v5.4C84,13.7,83.2,14.5,82.3,14.5
			L82.3,14.5z M82.3,14.5"/>
		<path id="XMLID_57_" class="st2" d="M30.4,61.6h-3.5c-2.9,0-5.2,2.4-5.2,5.4v32.6c0,3,2.3,5.4,5.2,5.4h3.5c1,0,1.7-0.8,1.7-1.8
			V63.4C32.1,62.4,31.4,61.6,30.4,61.6L30.4,61.6z M30.4,61.6"/>
		<rect id="XMLID_19_" x="21.7" y="72.5" class="st0" width="8.6" height="3.6"/>
		<path id="XMLID_53_" class="st2" d="M106.4,61.6h3.4c2.8,0,5.1,2.4,5.1,5.4v32.6c0,3-2.3,5.4-5.1,5.4h-3.4c-0.9,0-1.7-0.8-1.7-1.8
			V63.4C104.7,62.4,105.4,61.6,106.4,61.6L106.4,61.6z M106.4,61.6"/>
		<rect id="XMLID_16_" x="106.4" y="72.5" class="st0" width="8.6" height="3.6"/>
		<path id="XMLID_49_" class="st3" d="M68.4,9.1c-21.9,0-39.8,18.7-39.8,41.7v48.9c0,9,7,16.3,15.6,16.3h48.4
			c8.6,0,15.6-7.3,15.6-16.3V50.7C108.2,27.8,90.3,9.1,68.4,9.1L68.4,9.1z M68.4,9.1"/>
		<path id="XMLID_46_" class="st2" d="M92.6,61.6H44.2c-2.9,0-5.2,2.4-5.2,5.4v32.6c0,3,2.3,5.4,5.2,5.4h48.4c2.9,0,5.2-2.4,5.2-5.4
			V67.1C97.8,64.1,95.5,61.6,92.6,61.6L92.6,61.6z M92.6,61.6"/>
		<path id="XMLID_43_" class="st2" d="M82.7,28c-4.2-2.9-9.2-4.5-14.2-4.5c-5.1,0-10,1.5-14.2,4.5c-1.9,1.3-3,3.6-3,6v16.7
			c0,1,0.8,1.8,1.7,1.8H84c1,0,1.7-0.8,1.7-1.8V34.1C85.7,31.6,84.6,29.4,82.7,28L82.7,28z M82.7,28"/>
		<path id="XMLID_40_" class="st0" d="M71.8,36.2H65c-1.9,0-3.5-1.6-3.5-3.6c0-2,1.5-3.6,3.5-3.6h6.8c1.9,0,3.5,1.6,3.5,3.6
			C75.3,34.6,73.7,36.2,71.8,36.2L71.8,36.2z M71.8,36.2"/>
		<rect id="XMLID_7_" x="39" y="72.5" class="st0" width="58.8" height="3.6"/>
		<path id="XMLID_36_" class="st1" d="M51.1,83.4c-1,0-1.7-0.8-1.7-1.8v-7.3c0-1,0.8-1.8,1.7-1.8c1,0,1.7,0.8,1.7,1.8v7.3
			C52.9,82.6,52.1,83.4,51.1,83.4L51.1,83.4z M51.1,83.4"/>
		<path id="XMLID_33_" class="st4" d="M52.8,90.6h-3.5c-1,0-1.7-0.8-1.7-1.8v-5.4c0-2,1.5-3.6,3.5-3.6c1.9,0,3.5,1.6,3.5,3.6v5.4
			C54.5,89.8,53.8,90.6,52.8,90.6L52.8,90.6z M52.8,90.6"/>
		<path id="XMLID_2_" class="st2" d="M102.8,48.9c-0.9,0-1.6-0.7-1.7-1.7c-1.7-17.6-15.7-30.9-32.7-30.9c-16.9,0-31,13.3-32.7,30.9
			c-0.1,1-0.8,1.7-1.7,1.7h-5.3c0,0.6,0,1.2,0,1.8v1.8H34c2.7,0,4.9-2.1,5.2-4.9c1.5-15.8,14.1-27.7,29.2-27.7
			c15.1,0,27.7,11.9,29.2,27.7c0.3,2.8,2.5,4.9,5.2,4.9h5.3c0,0,0,0,0,0v-1.8c0-0.6,0-1.2,0-1.8c0,0,0,0,0,0H102.8z M102.8,48.9"/>
	</g>
</g>
</svg>
