<?xml version="1.0" encoding="utf-8"?>
<!-- Generator: Adobe Illustrator 19.0.0, SVG Export Plug-In . SVG Version: 6.00 Build 0)  -->
<svg version="1.1" xmlns="http://www.w3.org/2000/svg" xmlns:xlink="http://www.w3.org/1999/xlink" x="0px" y="0px"
	 viewBox="0 0 128 114" style="enable-background:new 0 0 128 114;" xml:space="preserve">
<style type="text/css">
	.st0{fill-rule:evenodd;clip-rule:evenodd;fill:#4F3118;}
	.st1{fill-rule:evenodd;clip-rule:evenodd;fill:#5A5657;}
	.st2{fill-rule:evenodd;clip-rule:evenodd;fill:#AD6240;}
	.st3{fill-rule:evenodd;clip-rule:evenodd;fill:#68421D;}
	.st4{fill:#FFEBB7;}
	.st5{fill:#5C546A;}
	.st6{fill:#00C37A;}
	.st7{fill:#009BCA;}
	.st8{fill:#E6BE94;}
	.st9{fill:#FF4F19;}
</style>
<g id="Layer_1">
	<g id="XMLID_19_">
		<g id="XMLID_3_">
			<g id="XMLID_4_">
				<rect id="XMLID_18_" x="90.5" y="16.2" class="st0" width="13.6" height="3.8"/>
				<rect id="XMLID_17_" x="26.3" y="16.2" class="st0" width="13.6" height="3.8"/>
				<rect id="XMLID_16_" x="64.5" y="21.4" class="st1" width="0.4" height="3.7"/>
				<path id="XMLID_15_" class="st0" d="M84.2,1.5h-9.4h-10H46.6c-3.8,0-6.8,3.1-6.8,6.9l0,15.9c0,1.2,1,2.2,2.2,2.2
					c0.9,0,1.7-0.6,2-1.4h6.6l0.3,0l0.3,0h13.2v-3.7H49.1c0,0,0.1-10,0.1-12.1l15.7,0v0l17.6,0c0,2.2,0.2,12.1,0.2,12.1l-17.7,0v3.7
					h15l0.3,0l0.3,0h6.2c0.3,0.8,1.1,1.4,2,1.4c0.9,0,1.7-0.6,2-1.4H91v-0.3c0-0.2,0.1-0.4,0.1-0.6V8.4C91.1,4.6,88,1.5,84.2,1.5z"
					/>
				<path id="XMLID_14_" class="st2" d="M22.9,19.3H4.5c-1.9,0-3.5,1.6-3.5,3.5v18.4v51.9v17.3c0,2,1.6,3.5,3.5,3.5l17,0h43h41.9h17
					c1.9,0,3.5-1.6,3.5-3.5l0-17.3v-53V22.9c0-2-1.6-3.5-3.5-3.5h-17H64.5v0H22.9z"/>
				<g id="XMLID_9_">
					<path id="XMLID_13_" class="st3" d="M18.5,20.3c0-0.3,0-0.6,0-0.9H3.8c-1.5,0-2.8,1.3-2.8,2.8l0,14.6c0.4,0,0.7,0,1.1,0
						C11.2,36.9,18.5,29.4,18.5,20.3z"/>
					<path id="XMLID_12_" class="st3" d="M127,37.1V22.4c0-1.7-1.3-3-3-3h-14.5C109.5,29.1,117.3,37.1,127,37.1z"/>
					<path id="XMLID_11_" class="st3" d="M127,111V96.3c-9.7,0-17.5,7.9-17.5,17.7l14.5,0C125.6,114,127,112.6,127,111z"/>
					<path id="XMLID_10_" class="st3" d="M1,96.3V111c0,1.7,1.3,3,3,3h14.5C18.5,104.2,10.7,96.3,1,96.3z"/>
				</g>
				<rect id="XMLID_8_" x="29.4" y="19.3" class="st0" width="7.5" height="94.6"/>
				<rect id="XMLID_7_" x="94" y="19.3" class="st0" width="7.5" height="94.6"/>
				<path id="XMLID_6_" class="st3" d="M42.5,74.3H24.3c-0.9,0-1.6-0.7-1.6-1.6v-10c0-0.9,0.7-1.6,1.6-1.6h18.2
					c0.9,0,1.6,0.7,1.6,1.6v10C44.1,73.6,43.4,74.3,42.5,74.3z"/>
				<path id="XMLID_5_" class="st3" d="M106.9,74.3H88.7c-0.9,0-1.6-0.7-1.6-1.6v-10c0-0.9,0.7-1.6,1.6-1.6h18.2
					c0.9,0,1.6,0.7,1.6,1.6v10C108.5,73.6,107.8,74.3,106.9,74.3z"/>
			</g>
		</g>
	</g>
</g>
<g id="Layer_2">
	<g id="XMLID_1_">
		<path id="XMLID_104_" class="st4" d="M93.3,112H45.4c-5.1,0-9.3-4.2-9.3-9.3v-1.8c0-5.1,4.2-9.3,9.3-9.3h47.9V112z M93.3,112"/>
		<rect id="XMLID_55_" x="38.2" y="93.6" class="st5" width="5.1" height="16.3"/>
		<path id="XMLID_100_" class="st4" d="M88.5,88.5H34.1V74.2h54.4c1.6,0,2.8,1.3,2.8,2.8v8.7C91.3,87.2,90,88.5,88.5,88.5L88.5,88.5
			z M88.5,88.5"/>
		<rect id="XMLID_52_" x="41.2" y="55.8" class="st4" width="52.1" height="15.3"/>
		<path id="XMLID_96_" class="st6" d="M93.3,114h-47c-6.8,0-12.3-5.5-12.3-12.3c0-6.8,5.5-12.3,12.3-12.3h47c1.1,0,2,0.9,2,2
			c0,1.1-0.9,2-2,2h-47c-4.5,0-8.2,3.7-8.2,8.2c0,4.5,3.7,8.2,8.2,8.2h47c1.1,0,2,0.9,2,2C95.4,113.1,94.5,114,93.3,114L93.3,114z
			 M93.3,114"/>
		<path id="XMLID_93_" class="st7" d="M87.2,89.5H33.1c-0.6,0-1-0.5-1-1s0.5-1,1-1h54.1c1.7,0,3.1-1.4,3.1-3.1v-6.1
			c0-1.7-1.4-3.1-3.1-3.1H33.1c-0.6,0-1-0.5-1-1c0-0.6,0.5-1,1-1h54.1c2.8,0,5.1,2.3,5.1,5.1v6.1C92.3,87.2,90,89.5,87.2,89.5
			L87.2,89.5z M87.2,89.5"/>
		<path id="XMLID_90_" class="st8" d="M93.3,60.9h-47c-0.6,0-1-0.5-1-1c0-0.6,0.5-1,1-1h47V60.9z M93.3,60.9"/>
		<path id="XMLID_87_" class="st8" d="M93.3,65h-47c-0.6,0-1-0.5-1-1c0-0.6,0.5-1,1-1h47V65z M93.3,65"/>
		<path id="XMLID_84_" class="st8" d="M93.3,69.1h-47c-0.6,0-1-0.5-1-1c0-0.6,0.5-1,1-1h47V69.1z M93.3,69.1"/>
		<path id="XMLID_81_" class="st8" d="M34.1,77.2h53.1c0.6,0,1,0.5,1,1s-0.5,1-1,1H34.1V77.2z M34.1,77.2"/>
		<path id="XMLID_78_" class="st8" d="M34.1,81.3h53.1c0.6,0,1,0.5,1,1c0,0.6-0.5,1-1,1H34.1V81.3z M34.1,81.3"/>
		<path id="XMLID_75_" class="st8" d="M34.1,85.4h53.1c0.6,0,1,0.5,1,1c0,0.6-0.5,1-1,1H34.1V85.4z M34.1,85.4"/>
		<path id="XMLID_72_" class="st9" d="M94.4,73.2h-49c-3.4,0-6.1-2.7-6.1-6.1v-8.2c0-3.4,2.7-6.1,6.1-6.1h49c1.1,0,2,0.9,2,2
			c0,1.1-0.9,2-2,2h-49c-1.1,0-2,0.9-2,2V67c0,1.1,0.9,2,2,2h49c1.1,0,2,0.9,2,2C96.4,72.2,95.5,73.2,94.4,73.2L94.4,73.2z
			 M94.4,73.2"/>
		<path id="XMLID_69_" class="st8" d="M46.3,107.9c-0.6,0-1,0.5-1,1s0.5,1,1,1h47v-2H46.3z M46.3,107.9"/>
		<path id="XMLID_66_" class="st8" d="M46.3,103.8c-0.6,0-1,0.5-1,1c0,0.6,0.5,1,1,1h47v-2H46.3z M46.3,103.8"/>
		<path id="XMLID_63_" class="st8" d="M46.3,99.7c-0.6,0-1,0.5-1,1c0,0.6,0.5,1,1,1h47v-2H46.3z M46.3,99.7"/>
		<path id="XMLID_60_" class="st8" d="M46.3,95.6c-0.6,0-1,0.5-1,1c0,0.6,0.5,1,1,1h47v-2H46.3z M46.3,95.6"/>
	</g>
</g>
</svg>
