<?xml version="1.0" encoding="utf-8"?>
<!-- Generator: Adobe Illustrator 19.0.0, SVG Export Plug-In . SVG Version: 6.00 Build 0)  -->
<svg version="1.1" xmlns="http://www.w3.org/2000/svg" xmlns:xlink="http://www.w3.org/1999/xlink" x="0px" y="0px"
	 viewBox="0 0 128 128" style="enable-background:new 0 0 128 128;" xml:space="preserve">
<style type="text/css">
	.st0{fill:none;stroke:#CCEBF8;stroke-width:4;stroke-miterlimit:10;}
	.st1{fill:#FAA93B;}
	.st2{fill:#E6E6E6;}
	.st3{fill:#CCCCCC;}
	.st4{clip-path:url(#XMLID_122_);fill:#CCCCCC;}
	.st5{clip-path:url(#XMLID_122_);fill:#FCD18B;}
	.st6{fill:#FCD18B;}
	.st7{fill:#808080;}
	.st8{fill:#FFFFFF;}
	.st9{fill:#4D4D4D;}
	.st10{fill:#DDB57A;}
	.st11{fill:#EEEEEE;}
	.st12{fill:#A9A9A9;}
	.st13{fill:#868686;}
	.st14{fill:#FC7A51;}
</style>
<g id="Layer_1">
	<circle id="XMLID_1_" class="st0" cx="64" cy="64" r="62"/>
</g>
<g id="Layer_2">
	<circle id="XMLID_2_" class="st1" cx="64" cy="64" r="52.5"/>
</g>
<g id="Layer_3">
	<g id="XMLID_121_">
		<rect id="XMLID_119_" x="30.1" y="31.8" class="st2" width="36.8" height="59.5"/>
		<rect id="XMLID_118_" x="33.9" y="35.6" class="st3" width="29.3" height="3.2"/>
		<rect id="XMLID_117_" x="33.9" y="84.4" class="st3" width="29.3" height="3.2"/>
		<rect id="XMLID_116_" x="33.9" y="77.3" class="st3" width="29.3" height="3.2"/>
		<rect id="XMLID_115_" x="33.9" y="70.1" class="st3" width="29.3" height="3.2"/>
		<g id="XMLID_252_">
			<defs>
				<rect id="XMLID_112_" x="30.1" y="29.6" width="67.7" height="68.8"/>
			</defs>
			<clipPath id="XMLID_122_">
				<use xlink:href="#XMLID_112_"  style="overflow:visible;"/>
			</clipPath>
			<rect id="XMLID_114_" x="33.9" y="63" class="st4" width="29.3" height="3.2"/>
			<path id="XMLID_113_" class="st5" d="M80.4,69.8v-5.7l9.6,9.6c1.3,1.3,2.3,2.9,3,4.6c0.7,1.7,1.1,3.5,1.1,5.4l3.8,2.7L89,98.2
				l-6.2-3.7h-2c-2.3,0-4.5-0.5-6.5-1.6l-11.8-6.2v-0.2h14.9c1.6,0,2.9-1.3,2.9-2.9V69.8"/>
		</g>
		<path id="XMLID_249_" class="st6" d="M55.5,73v0.7c-0.3-0.1-0.6-0.1-0.8-0.3C54.9,73.3,55.2,73.1,55.5,73L55.5,73z M55.5,73"/>
		<path id="XMLID_246_" class="st6" d="M55.5,66.2v0.8c0,0-0.1-0.1-0.1-0.1l-0.6-0.6c0.1,0,0.3,0,0.4,0
			C55.2,66.2,55.3,66.2,55.5,66.2L55.5,66.2z M55.5,66.2"/>
		<path id="XMLID_243_" class="st7" d="M77.4,41.2h-19c-1.6,0-2.9,1.3-2.9,2.9v39.6c0,1.6,1.3,2.9,2.9,2.9h18.1
			c-1.6-1.9-2-4.5-1.3-6.8H56.6V47.2h22.5v21.4l1.2,1.2V44.1C80.4,42.5,79,41.2,77.4,41.2 M67.9,81c1.3,0,2.3,1,2.3,2.3
			c0,1.3-1,2.3-2.3,2.3c-1.3,0-2.3-1-2.3-2.3C65.6,82,66.6,81,67.9,81"/>
		<path id="XMLID_240_" class="st6" d="M54.2,78.5l1,1c0.1,0.1,0.2,0.2,0.3,0.3v-6.1c-0.3-0.1-0.6-0.1-0.8-0.3
			c-0.2,0.1-0.3,0.2-0.5,0.4C52.9,75.1,52.9,77.2,54.2,78.5L54.2,78.5z M54.2,78.5"/>
		<path id="XMLID_237_" class="st6" d="M52.7,71.8l1,1c0.3,0.3,0.6,0.5,0.9,0.7c0.3-0.2,0.5-0.3,0.8-0.4v-6.1c0,0-0.1-0.1-0.1-0.1
			l-0.6-0.6c-0.7,0.1-1.4,0.4-2,0.9C51.4,68.4,51.4,70.5,52.7,71.8L52.7,71.8z M52.7,71.8"/>
		<path id="XMLID_234_" class="st6" d="M55.5,66.2v-7.5c-0.1,0-0.2,0-0.2,0c-0.9,0-1.7,0.3-2.3,1c-1.3,1.3-1.3,3.4,0,4.7l1.8,1.8
			c0.1,0,0.3,0,0.4,0C55.2,66.2,55.3,66.2,55.5,66.2L55.5,66.2z M55.5,66.2"/>
		<path id="XMLID_99_" class="st8" d="M79.2,47.2v21.4l-3.4-3.4c-1.4-1.4-3.8-1.4-5.2,0c-0.7,0.7-1.1,1.7-1.1,2.6
			c0,0.9,0.4,1.9,1.1,2.6l4.2,4.2c1.1,1.1,1.4,2.8,0.8,4.2c-0.2,0.3-0.3,0.6-0.4,1H56.6V47.2H79.2"/>
		<path id="XMLID_230_" class="st9" d="M67.9,81c1.3,0,2.3,1,2.3,2.3c0,1.3-1,2.3-2.3,2.3c-1.3,0-2.3-1-2.3-2.3
			C65.6,82,66.6,81,67.9,81L67.9,81z M67.9,81"/>
		<path id="XMLID_96_" class="st10" d="M84.7,72.4L80.4,68v1.8l3.5,3.5c0.4,0.4,1.1,0.1,1.1-0.4C84.9,72.7,84.9,72.5,84.7,72.4"/>
		<polyline id="XMLID_95_" class="st10" points="80.4,64.1 81.8,65.6 81.8,70.2 80.4,69.8 80.4,64.1 		"/>
		<path id="XMLID_225_" class="st9" d="M65.6,58.8h-6.7V52h6.7V58.8 M60.5,57.1h3.4v-3.4h-3.4V57.1"/>
		<rect id="XMLID_92_" x="61.5" y="54.7" class="st9" width="1.4" height="1.4"/>
		<path id="XMLID_220_" class="st9" d="M65.6,70.2h-6.7v-6.7h6.7V70.2z M60.5,68.5h3.4v-3.4h-3.4V68.5z M60.5,68.5"/>
		<rect id="XMLID_88_" x="61.5" y="66.1" class="st9" width="1.4" height="1.4"/>
		<path id="XMLID_216_" class="st9" d="M77,58.8h-6.7V52H77V58.8 M71.9,57.1h3.4v-3.4h-3.4V57.1"/>
		<rect id="XMLID_85_" x="72.9" y="54.7" class="st9" width="1.4" height="1.4"/>
		<rect id="XMLID_84_" x="67.2" y="54.7" class="st9" width="1.4" height="1.4"/>
		<rect id="XMLID_83_" x="67.2" y="56.1" class="st9" width="1.4" height="1.4"/>
		<rect id="XMLID_82_" x="67.2" y="61.8" class="st9" width="1.4" height="1.4"/>
		<rect id="XMLID_81_" x="68.7" y="63.3" class="st9" width="1.4" height="1.4"/>
		<rect id="XMLID_80_" x="68.7" y="64.7" class="st9" width="1.4" height="1.4"/>
		<rect id="XMLID_79_" x="70.1" y="66.2" class="st9" width="1.4" height="1.4"/>
		<rect id="XMLID_78_" x="70.1" y="67.6" class="st9" width="1.4" height="1.4"/>
		<rect id="XMLID_77_" x="75.5" y="68.7" class="st9" width="1.4" height="1.4"/>
		<rect id="XMLID_76_" x="74.1" y="66.2" class="st9" width="1.4" height="1.4"/>
		<rect id="XMLID_75_" x="75.5" y="66.2" class="st9" width="1.4" height="1.4"/>
		<rect id="XMLID_74_" x="74.1" y="60" class="st9" width="1.4" height="1.4"/>
		<rect id="XMLID_73_" x="75.5" y="60" class="st9" width="1.4" height="1.4"/>
		<rect id="XMLID_72_" x="67.2" y="66.2" class="st9" width="1.4" height="1.4"/>
		<rect id="XMLID_71_" x="65.8" y="60.4" class="st9" width="1.4" height="1.4"/>
		<rect id="XMLID_70_" x="70.7" y="61.6" class="st9" width="1.4" height="1.4"/>
		<rect id="XMLID_69_" x="72.1" y="61.6" class="st9" width="1.4" height="1.4"/>
		<rect id="XMLID_68_" x="72.1" y="63" class="st9" width="1.4" height="1.4"/>
		<rect id="XMLID_67_" x="70.7" y="60.1" class="st9" width="1.4" height="1.4"/>
		<rect id="XMLID_66_" x="69.2" y="60.1" class="st9" width="1.4" height="1.4"/>
		<rect id="XMLID_65_" x="62.2" y="60.4" class="st9" width="1.4" height="1.4"/>
		<rect id="XMLID_64_" x="58.8" y="60.4" class="st9" width="1.4" height="1.4"/>
		<rect id="XMLID_63_" x="67.2" y="57.6" class="st9" width="1.4" height="1.4"/>
		<rect id="XMLID_62_" x="33.9" y="43.1" class="st8" width="15.6" height="15.6"/>
		<path id="XMLID_188_" class="st7" d="M45,54.2h-6.7v-6.7H45V54.2z M39.9,52.6h3.4v-3.4h-3.4V52.6z M39.9,52.6"/>
		<rect id="XMLID_58_" x="40.9" y="50.1" class="st7" width="1.4" height="1.4"/>
		<path id="XMLID_181_" class="st8" d="M75.5,70.2v-1.4H77v1.4H75.5 M70.1,67.6v-1.4h1.4v2.9h-1.4V67.6 M74.1,67.6v-1.4h1.4v1.4
			H74.1 M73.5,64.1v0.3h-1.4v-0.2c-0.6,0.2-1.1,0.5-1.5,0.9c-0.2,0.2-0.3,0.4-0.5,0.6v0.4h-0.2c-0.2,0.5-0.4,1.1-0.4,1.6
			c0,0.9,0.4,1.9,1.1,2.6l4.2,4.2c1.1,1.1,1.4,2.8,0.8,4.2c-0.2,0.3-0.3,0.6-0.4,1h-3.2h3.2c-0.7,2.3-0.3,4.9,1.3,6.8h0.6
			c1.8,0,3.2-1.4,3.2-3.2V69.8L77,66.4v1.3h-1.4v-1.4h1.3l-1-1C75.2,64.6,74.4,64.2,73.5,64.1 M79.2,47.2H67v0L79.2,47.2L79.2,47.2"
			/>
		<path id="XMLID_178_" class="st11" d="M67,47.2h-5H67L67,47.2 M67,41.2h-6.8H67"/>
		<path id="XMLID_175_" class="st12" d="M75.2,79.8h-3.2l2.1,6.8h2.5C74.9,84.7,74.5,82.1,75.2,79.8 M77.4,41.2H60.2l1.8,6h17.2l0,0
			v21.4l0,0l1.2,1.2V44.1C80.4,42.5,79,41.2,77.4,41.2"/>
		<path id="XMLID_164_" class="st8" d="M72.9,56.1v-1.4h1.4v1.4H72.9 M75.3,53.7h-3.4v3.4h3.4V53.7 M67.2,63.3v-1.4h1.4v1.4H67.2
			 M70.7,63v-1.4h1.4V63H70.7 M70.7,60.1h1.4v1.4h-2.9v-1.4H70.7 M74.1,61.4V60h1.4v1.4H74.1 M75.5,61.4V60H77v1.4H75.5 M67.2,56.1
			v-1.4h1.4V59h-1.4V56.1 M70.2,58.8V52H77v6.7H70.2 M79.2,47.2H62l1.5,4.9h2.1v6.7h-0.1l0.5,1.6h1.2v1.4h-0.7l1.3,4.4h0.9v1.4h-0.4
			l1.8,6.1l1.9,6.1h3.2c0.1-0.3,0.2-0.7,0.4-1c0.7-1.4,0.4-3.1-0.8-4.2l-4.2-4.2c-0.7-0.7-1.1-1.7-1.1-2.6c0-0.6,0.1-1.1,0.4-1.6
			h-1.2v-2.9h1.4v2.5c0.1-0.2,0.3-0.4,0.5-0.6c0.4-0.4,1-0.7,1.5-0.9v-2.7h1.4v2.6c0.8,0.1,1.6,0.4,2.2,1.1l1,1H77v0.2l2.2,2.2V47.2
			"/>
		<polyline id="XMLID_38_" class="st13" points="65.6,52 63.5,52 65.5,58.8 65.6,58.8 65.6,52 		"/>
		<path id="XMLID_160_" class="st13" d="M71.9,57.1v-3.4h3.4v3.4H71.9 M77,52h-6.7v6.7H77V52"/>
		<rect id="XMLID_35_" x="72.9" y="54.7" class="st13" width="1.4" height="1.4"/>
		<rect id="XMLID_34_" x="67.2" y="54.7" class="st13" width="1.4" height="1.4"/>
		<rect id="XMLID_33_" x="67.2" y="56.1" class="st13" width="1.4" height="1.4"/>
		<rect id="XMLID_32_" x="67.2" y="61.8" class="st13" width="1.4" height="1.4"/>
		<rect id="XMLID_31_" x="68.7" y="63.3" class="st13" width="1.4" height="1.4"/>
		<rect id="XMLID_30_" x="68.7" y="64.7" class="st13" width="1.4" height="1.4"/>
		<rect id="XMLID_29_" x="70.1" y="66.2" class="st13" width="1.4" height="1.4"/>
		<rect id="XMLID_28_" x="70.1" y="67.6" class="st13" width="1.4" height="1.4"/>
		<rect id="XMLID_27_" x="75.5" y="68.7" class="st13" width="1.4" height="1.4"/>
		<rect id="XMLID_26_" x="74.1" y="66.2" class="st13" width="1.4" height="1.4"/>
		<rect id="XMLID_25_" x="75.5" y="66.2" class="st13" width="1.4" height="1.4"/>
		<rect id="XMLID_24_" x="74.1" y="60" class="st13" width="1.4" height="1.4"/>
		<rect id="XMLID_23_" x="75.5" y="60" class="st13" width="1.4" height="1.4"/>
		<polyline id="XMLID_22_" class="st13" points="68.7,66.2 67.8,66.2 68.2,67.6 68.7,67.6 68.7,66.2 		"/>
		<polyline id="XMLID_21_" class="st13" points="67.2,60.4 66,60.4 66.5,61.8 67.2,61.8 67.2,60.4 		"/>
		<rect id="XMLID_20_" x="70.7" y="61.6" class="st13" width="1.4" height="1.4"/>
		<rect id="XMLID_19_" x="72.1" y="61.6" class="st13" width="1.4" height="1.4"/>
		<rect id="XMLID_18_" x="72.1" y="63" class="st13" width="1.4" height="1.4"/>
		<rect id="XMLID_17_" x="70.7" y="60.1" class="st13" width="1.4" height="1.4"/>
		<rect id="XMLID_16_" x="69.2" y="60.1" class="st13" width="1.4" height="1.4"/>
		<rect id="XMLID_15_" x="67.2" y="57.6" class="st13" width="1.4" height="1.4"/>
		<path id="XMLID_136_" class="st6" d="M80.4,69.8v13.9c0,1.6-1.3,2.9-2.9,2.9h-0.9c-1.6-1.9-2-4.5-1.3-6.8h4V68.6L80.4,69.8z
			 M80.4,69.8"/>
		<path id="XMLID_133_" class="st6" d="M79.2,68.6v11.3h-4c0.1-0.3,0.2-0.7,0.4-1c0.7-1.4,0.4-3.1-0.8-4.2l-4.2-4.2
			c-0.7-0.7-1.1-1.7-1.1-2.6c0-0.9,0.4-1.9,1.1-2.6c1.4-1.4,3.8-1.4,5.2,0L79.2,68.6z M79.2,68.6"/>
		<path id="XMLID_130_" class="st8" d="M75,66.3c-0.9-0.9-2.3-0.9-3.1,0c-0.9,0.9-0.9,2.3,0,3.1c0.9,0.9,1.6,0.2,2.5-0.7
			C75.2,67.9,75.8,67.2,75,66.3L75,66.3z M75,66.3"/>
		<path id="XMLID_127_" class="st14" d="M93.1,40.3c0,4-2.2,7.5-5.5,9.3c-1.5,0.8-3.2,1.3-5,1.3c-5.8,0-10.6-4.7-10.6-10.6
			c0-5.5,4.2-10,9.6-10.5c0.3,0,0.7,0,1,0C88.4,29.7,93.1,34.5,93.1,40.3L93.1,40.3z M93.1,40.3"/>
		<path id="XMLID_124_" class="st8" d="M82.5,45.7h-2.4v-1.3h2.4c0.9,0,1.7-0.8,1.7-1.7c0-0.9-0.8-1.7-1.7-1.7c-1.7,0-3-1.4-3-3
			s1.4-3,3-3h2.4v1.3h-2.4c-0.9,0-1.7,0.8-1.7,1.7c0,0.9,0.8,1.7,1.7,1.7c1.7,0,3,1.4,3,3C85.6,44.4,84.2,45.7,82.5,45.7L82.5,45.7z
			 M82.5,45.7"/>
		<rect id="XMLID_4_" x="81.9" y="32.3" class="st8" width="1.3" height="3.2"/>
		<rect id="XMLID_3_" x="81.9" y="45.1" class="st8" width="1.3" height="3.2"/>
	</g>
</g>
</svg>
