<?xml version="1.0" encoding="utf-8"?>
<!-- Generator: Adobe Illustrator 19.0.0, SVG Export Plug-In . SVG Version: 6.00 Build 0)  -->
<svg version="1.1" id="Layer_1" xmlns="http://www.w3.org/2000/svg" xmlns:xlink="http://www.w3.org/1999/xlink" x="0px" y="0px"
	 viewBox="0 0 128 128" style="enable-background:new 0 0 128 128;" xml:space="preserve">
<style type="text/css">
	.st0{fill:none;stroke:#CCEBF8;stroke-width:4;stroke-miterlimit:10;}
	.st1{fill:#80397B;}
	.st2{fill:#F2EBD9;}
	.st3{fill:#98D9D5;}
	.st4{clip-path:url(#SVGID_2_);fill:#FFFFFF;}
	.st5{fill:#394C59;}
	.st6{fill:#FFF300;}
	.st7{fill:#DA251D;}
	.st8{fill-rule:evenodd;clip-rule:evenodd;fill:#FFFFFF;}
	.st9{fill-rule:evenodd;clip-rule:evenodd;fill:#A5A6A9;}
</style>
<g id="Layer_1_2_">
	<g id="Layer_1_1_">
		<circle id="XMLID_1_" class="st0" cx="64" cy="64" r="62"/>
	</g>
	<g id="Layer_2">
		<circle id="XMLID_2_" class="st1" cx="64" cy="64" r="52.5"/>
	</g>
	<g id="Layer_3">
		<g id="XMLID_53_">
			<path class="st2" d="M60.9,70.3v6.3c0,0.5,0.4,0.8,0.8,0.8h8.6c0.5,0,0.8-0.4,0.8-0.8v-3.4v-2.9"/>
			<path id="XMLID_114_" class="st3" d="M92.5,64.6H38.6V68c0,1.6,1.2,2.8,2.8,2.8h48.3c1.6,0,2.8-1.2,2.8-2.8V64.6z"/>
			<g id="XMLID_90_">
				<g>
					<g>
						<g>
							<defs>
								<rect id="SVGID_1_" x="36.7" y="32.9" width="57.6" height="50.6"/>
							</defs>
							<clipPath id="SVGID_2_">
								<use xlink:href="#SVGID_1_"  style="overflow:visible;"/>
							</clipPath>
							<path id="XMLID_97_" class="st4" d="M38.6,64.6h53.8V37.5c0-1.6-1.2-2.8-2.8-2.8H41.4c-1.6,0-2.8,1.2-2.8,2.8V64.6z
								 M42.6,37.8h23.6c0.5,0,0.9,0.4,0.9,0.9c0,0.5-0.4,0.9-0.9,0.9H42.6c-0.5,0-0.9-0.4-0.9-0.9C41.7,38.3,42,37.8,42.6,37.8
								L42.6,37.8z M42.6,42.2h23.6c0.5,0,0.9,0.4,0.9,0.9c0,0.5-0.4,0.9-0.9,0.9H42.6c-0.5,0-0.9-0.4-0.9-0.9
								C41.7,42.6,42,42.2,42.6,42.2L42.6,42.2z M42.6,46.5h11.8c0.5,0,0.9,0.4,0.9,0.9c0,0.5-0.4,0.9-0.9,0.9H42.6
								c-0.5,0-0.9-0.4-0.9-0.9C41.7,47.1,42,46.5,42.6,46.5L42.6,46.5z M42.6,50.9h23.6c0.5,0,0.9,0.4,0.9,0.9
								c0,0.5-0.4,0.9-0.9,0.9H42.6c-0.5,0-0.9-0.4-0.9-0.9C41.7,51.4,42,50.9,42.6,50.9L42.6,50.9z M42.6,55.3h23.6
								c0.5,0,0.9,0.4,0.9,0.9c0,0.5-0.4,0.9-0.9,0.9H42.6c-0.5,0-0.9-0.4-0.9-0.9C41.7,55.8,42,55.3,42.6,55.3L42.6,55.3z
								 M42.6,59.8h11.8c0.5,0,0.9,0.4,0.9,0.9c0,0.5-0.4,0.9-0.9,0.9H42.6c-0.5,0-0.9-0.4-0.9-0.9S42,59.8,42.6,59.8L42.6,59.8z"/>
						</g>
					</g>
				</g>
			</g>
			<path id="XMLID_87_" class="st5" d="M42.6,39.7h23.6c0.5,0,0.9-0.4,0.9-0.9c0-0.5-0.4-0.9-0.9-0.9H42.6c-0.5,0-0.9,0.4-0.9,0.9
				C41.7,39.2,42,39.7,42.6,39.7L42.6,39.7z"/>
			<path id="XMLID_84_" class="st5" d="M42.6,44.1h23.6c0.5,0,0.9-0.4,0.9-0.9c0-0.5-0.4-0.9-0.9-0.9H42.6c-0.5,0-0.9,0.4-0.9,0.9
				C41.7,43.6,42,44.1,42.6,44.1L42.6,44.1z"/>
			<path id="XMLID_81_" class="st5" d="M42.6,48.4h11.8c0.5,0,0.9-0.4,0.9-0.9c0-0.5-0.4-0.9-0.9-0.9H42.6c-0.5,0-0.9,0.4-0.9,0.9
				C41.7,48,42,48.4,42.6,48.4L42.6,48.4z"/>
			<path id="XMLID_78_" class="st5" d="M42.6,52.9h23.6c0.5,0,0.9-0.4,0.9-0.9c0-0.5-0.4-0.9-0.9-0.9H42.6c-0.5,0-0.9,0.4-0.9,0.9
				C41.7,52.3,42,52.9,42.6,52.9L42.6,52.9z"/>
			<path id="XMLID_75_" class="st5" d="M42.6,57.2h23.6c0.5,0,0.9-0.4,0.9-0.9c0-0.5-0.4-0.9-0.9-0.9H42.6c-0.5,0-0.9,0.4-0.9,0.9
				C41.7,56.8,42,57.2,42.6,57.2L42.6,57.2z"/>
			<path id="XMLID_72_" class="st5" d="M42.6,61.6h11.8c0.5,0,0.9-0.4,0.9-0.9c0-0.5-0.4-0.9-0.9-0.9H42.6c-0.5,0-0.9,0.4-0.9,0.9
				C41.7,61.1,42,61.6,42.6,61.6L42.6,61.6z"/>
		</g>
	</g>
	<g id="Layer_4">
	</g>
	<rect x="68" y="36.6" class="st6" width="22.9" height="26.7"/>
</g>
<g id="Layer_2_1_">
	<g>
		<path class="st7" d="M73.9,43.5h-2.4v1.8h1.4v11.6h1V43.5L73.9,43.5z M83.8,45.2L83.8,45.2L83.8,45.2v0.2v0.1v0.1v0.1v0.1v0.1V46
			v0.1l0,0l0,0l0,0l0,0l0,0l0,0l0,0l0,0l0,0l0,0l0,0l0,0l0,0l0,0l0,0l0,0l0,0l0,0l0,0l0,0l0,0l0,0l0,0l0,0l0,0l0,0l0,0l0,0l0,0l0,0
			l0,0l0,0l0,0l0,0l0,0l0,0l0,0l0,0l0,0l0,0l0,0l0,0l0,0l0,0V46v-0.1v-0.1v-0.1v-0.1v-0.1v-0.1V45.2L83.8,45.2L83.8,45.2V45v-0.1
			v-0.1v-0.1v-0.1v-0.1v-0.1v-0.1v-0.1l0,0l0,0l0,0l0,0l0,0l0,0l0,0l0,0l0,0l0,0l0,0l0,0l0,0l0,0l0,0l0,0l0,0l0,0l0,0l0,0l0,0l0,0
			l0,0l0,0l0,0l0,0l0,0l0,0l0,0l0,0l0,0l0,0l0,0l0,0l0,0l0,0l0,0l0,0l0,0l0,0l0,0l0,0l0,0l0,0l0,0l0,0v0.1v0.1v0.1v0.1v0.1v0.1v0.1
			V45.2L83.8,45.2L83.8,45.2z M84,45.2L84,45.2L84,45.2L84,45.2L84,45.2L84,45.2L84,45.2L84,45.2L84,45.2L84,45.2L84,45.2L84,45.2
			L84,45.2L84,45.2L84,45.2L84,45.2L84,45.2L84,45.2L84,45.2L84,45.2L84,45.2L84,45.2L84,45.2L84,45.2L84,45.2L84,45.2L84,45.2
			L84,45.2L84,45.2L84,45.2L84,45.2L84,45.2L84,45.2L84,45.2L84,45.2L84,45.2L84,45.2L84,45.2L84,45.2L84,45.2L84,45.2L84,45.2
			L84,45.2L84,45.2L84,45.2L84,45.2L84,45.2L84,45.2L84,45.2L84,45.2L84,45.2L84,45.2L84,45.2L84,45.2L84,45.2L84,45.2L84,45.2
			L84,45.2L84,45.2L84,45.2L84,45.2L84,45.2L84,45.2L84,45.2L84,45.2L84,45.2v0.2v0.1l0,0l0,0l0,0l0,0l0,0l0,0l0,0l0,0l0,0l0,0l0,0
			l0,0l0,0l0,0l0,0l0,0l0,0l0,0l0,0l0,0l0,0l0,0l0,0l0,0l0,0l0,0l0,0l0,0l0,0l0,0l0,0l0,0l0,0l0,0l0,0l0,0l0,0l0,0l0,0l0,0l0,0l0,0
			l0,0l0,0l0,0l0,0l0,0l0,0l0,0l0,0l0,0l0,0l0,0l0,0l0,0l0,0l0,0l0,0v-0.1V45.2L84,45.2L84,45.2z M84.3,45.8L84.3,45.8l0.1-0.5h0.1
			l0,0l0,0l0,0l0,0l0,0l0,0l0,0l0,0l0,0l0,0l0,0l0,0l0,0l0,0l0,0l0,0v0.1v0.1l0,0l0,0l0,0l0,0l0,0l0,0l0,0l0,0l0,0l0,0h0.1l0,0l0,0
			l0,0l0,0l0,0l0,0v-0.1v-0.1l0,0l0,0l0,0l0,0l0,0l0,0l0,0l0,0l0,0l0,0l0,0l0,0l0,0l0,0l0,0l0,0l0,0l0,0l0,0l0,0l0,0l0,0l0,0l0,0
			l0,0l0,0l0,0l0,0l0,0l0,0l0,0l0,0l0,0l0,0l0,0l0,0l0,0l0,0l0,0l0,0l0,0l0,0l0,0l0,0l0,0l0,0l0,0l0,0l0,0l0,0l0,0l0,0h-0.3V45.8
			L84.3,45.8z M84.4,44.8h0.1l0,0l0,0l0,0l0,0l0,0l0,0l0,0l0,0l0,0l0,0l0,0l0,0l0,0l0,0l0,0l0,0l0,0l0,0l0,0l0,0l0,0l0,0l0,0l0,0
			l0,0l0,0l0,0l0,0l0,0l0,0l0,0l0,0H84.4L84.4,44.8L84.4,44.8z M87.5,53.9h-8.9h-0.1h-0.1h-0.1h-0.1h-0.1L78,53.7l-0.1-0.1l-0.1-0.1
			l-0.1-0.1l-0.1-0.1l-0.1-0.1l-0.1-0.1L77.3,53v0l-0.1-0.1l-0.1-0.1L77,52.7l0-0.2l-0.1-0.1l-0.1-0.1l-0.1-0.2l-0.1-0.2v-0.2v-0.2
			v-0.2v-0.2v-0.2v-0.2v-0.2v-0.2v-0.2v-0.2v-0.2v-0.2v-0.2v-0.2v-0.2v-0.2v-0.2v-0.2v-0.2v-0.2v-0.2l0.1-0.2l0.1-0.2l0.1-0.1
			l0.1-0.1l0.1-0.1l0.1-0.1l0.1-0.1l0.1-0.1l0.1-0.1l0.1-0.1l0.1-0.1l0.1-0.1l0.1-0.1l0.1-0.1l0.1-0.1l0.1-0.1h0.1h0.1h0.1h0.1h0.1
			h0.1h0.1H79h0.1h0.1l0.1,0.1l0.1,0.1l0.1,0.1l0.1,0.1l0.1,0.1l0.1,0.1l0.1,0.1l0.1,0.1l0.1,0.1l0.1,0.1l0.1,0.1l0.1,0.1l0.1,0.1
			l0.1,0.2l0.1,0.2l0.1,0.2l0.1,0.2v0.2v0.2v0.2v0.2V49v0.2v0.2v0.2v0.2V50l0,0l0,0l0,0h-0.1h-0.1h-0.1h-0.1h-0.1h-0.1h-0.1H80h-0.1
			h-0.1l0,0l0,0l0,0v-0.1v-0.1v-0.1v-0.1v-0.1v-0.1v-0.1v-0.1v-0.1V49v-0.1v-0.1v-0.1v-0.1v-0.1v-0.1v-0.1v-0.1v-0.1V48v-0.1v-0.1
			v-0.1h-0.1h-0.1h-0.1h-0.1h-0.1h-0.1h-0.1H79h-0.1h-0.1h-0.1h-0.1h-0.1h-0.1h-0.1h-0.1h-0.1H78v0.1v0.1V48v0.1v0.1v0.1v0.1v0.1
			v0.1v0.1v0.1v0.1V49v0.1v0.1v0.1v0.1v0.1v0.1v0.1v0.1v0.1V50v0.1v0.1v0.1v0.1v0.1v0.1v0.1v0.1v0.1V51v0.1v0.1v0.1v0.1v0.1v0.1v0.1
			v0.1v0.1l0,0l0,0l0,0l0,0l0,0l0,0h0.1h0.1h0.1h0.1h0.1h0.1h0.1h8.8L87.5,53.9L87.5,53.9z M87.5,56.7h-8.8h-0.2h-0.2h-0.2l-0.2-0.1
			l-0.2-0.1l-0.2-0.1l-0.2-0.1l-0.2-0.1L77,56.1L76.8,56l-0.2-0.1l-0.2-0.2l-0.1-0.2l-0.1-0.2l-0.1-0.2L76,54.9l-0.1-0.2l-0.1-0.2
			l-0.1-0.2l-0.1-0.2l-0.1-0.3l-0.1-0.3l-0.1-0.3l-0.1-0.3l-0.1-0.3L75,52.3l0.1-0.3v-0.3v-0.3v-0.3v-0.3v-0.3v-0.3v-0.3v-0.3v-0.3
			V49v-0.3l0.1-0.3l0.1-0.3l0.1-0.3l0.1-0.3l0.1-0.3l0.1-0.3l0.1-0.3l0.1-0.3L76,46l0.1-0.2l0.1-0.2l0.1-0.2l0.1-0.2l0.1-0.2
			l0.1-0.2l0.2-0.2l0.2-0.2l0.2-0.1l0.2-0.1l0.2-0.1l0.2-0.1l0.2-0.1l0.2-0.1h0.2h0.2h0.2H79h0.2h0.2l0.2,0.1l0.2,0.1l0.2,0.1
			l0.2,0.1l0.2,0.1l0.2,0.1l0.2,0.2l0.2,0.2l0.1,0.2l0.1,0.2l0.1,0.2l0.1,0.2l0.1,0.2l0.1,0.2l0.1,0.2l0.1,0.3l0.1,0.3l0.1,0.3
			l0.1,0.3l0.1,0.3l0.1,0.3l0.1,0.3l0.1,0.3v0.3v0.3v0.3v0.3v0.3v0.4h-1v-0.2v-0.2v-0.2v-0.2v-0.2v-0.2v-0.2v-0.2v-0.2L81.1,48
			L81,47.8l-0.1-0.2l-0.1-0.2l-0.1-0.2V47l-0.1-0.2l-0.1-0.2l-0.1-0.2l-0.1-0.2l-0.1-0.1L80.1,46L80,45.9l-0.1-0.1l-0.1-0.1
			l-0.1-0.1l-0.1-0.1l-0.1-0.1l-0.1-0.1h-0.1h-0.1H79h-0.2h-0.2h-0.2h-0.1h-0.1l-0.1,0.1L78,45.5l-0.1,0.1l-0.1,0.1l-0.1,0.1
			L77.3,46l-0.1,0.1L77,46.2l-0.1,0.1l-0.1,0.2l-0.1,0.2l-0.1,0.2l-0.1,0.2l-0.1,0.2l-0.1,0.2l-0.1,0.2l-0.1,0.2L76,48.1l-0.1,0.2
			v0.2v0.2v0.2v0.2v0.2v0.2v0.2v0.2v0.2v0.2v0.2v0.2v0.2v0.2v0.2v0.2v0.2l0.1,0.2l0.1,0.2l0.1,0.2l0.1,0.2l0.1,0.2l0.1,0.2l0.1,0.2
			l0.1,0.2l0.1,0.2l0.1,0.2l0.1,0.1l0.1,0.1l0.1,0.1l0.1,0.1l0.1,0.1l0.1,0.1l0.1,0.1l0.1,0.1l0.1,0.1l0.1,0.1H78h0.1h0.1h0.1h8.8v2
			H87.5z M72.5,46.3h-2V48h1v8.9h1V46.3L72.5,46.3z"/>
	</g>
</g>
<g>
	<path class="st8" d="M90.4,96.1c0,0.5-0.4,0.9-0.9,0.9h-48c-0.5,0-0.9-0.4-0.9-0.9V82.4c0-0.5,0.4-0.9,0.9-0.9h48
		c0.5,0,0.9,0.4,0.9,0.9V96.1z"/>
	<g>
		<path class="st9" d="M51.4,94.8c4.1,0,8.3,0,12.4,0c0-0.5,0-1,0-1.5c-4.1,0-8.3,0-12.4,0C51.4,93.8,51.4,94.3,51.4,94.8z"/>
		<path class="st9" d="M69.6,89.2c0,0.5,0,1,0,1.5c1.2,0,2.4,0,3.6,0c0-1.2,0-2.4,0-3.6c-0.9,0-1.7,0-2.6,0c0,0.7,0,1.4,0,2.1
			C70.3,89.2,69.9,89.2,69.6,89.2z"/>
		<path class="st9" d="M41.9,92.8c1.6,0,3.2,0,4.7,0c0-0.5,0-1,0-1.5c-1.6,0-3.1,0-4.7,0C41.9,91.8,41.9,92.2,41.9,92.8z"/>
		<path class="st9" d="M68.5,91.2c0,0.5,0,1,0,1.5c1.6,0,3.1,0,4.7,0c0-0.5,0-1,0-1.5C71.7,91.2,70.1,91.2,68.5,91.2z"/>
		<path class="st9" d="M41.9,89.2c0,0.5,0,1,0,1.5c1.2,0,2.4,0,3.7,0c0-0.5,0-1,0-1.5C44.3,89.2,43.1,89.2,41.9,89.2z"/>
		<path class="st9" d="M44.5,87.1c-0.9,0-1.7,0-2.6,0c0,0.5,0,1,0,1.5c0.8,0,1.7,0,2.5,0c0,0,0.1-0.1,0.1-0.1
			C44.5,88.1,44.5,87.6,44.5,87.1z"/>
		<path class="st9" d="M41.9,93.3c0,0.5,0,1,0,1.5c0,0,0,0,0.1,0c0.8,0,1.6,0,2.4,0c0.1,0,0.1-0.1,0.1-0.1c0-0.3,0-0.6,0-0.9
			c0-0.2,0-0.3,0-0.5C43.6,93.3,42.7,93.3,41.9,93.3z"/>
		<path class="st9" d="M48.2,94.8c0.8,0,1.7,0,2.5,0c0-0.5,0-1,0-1.5c-0.8,0-1.7,0-2.5,0C48.2,93.8,48.2,94.3,48.2,94.8z"/>
		<path class="st9" d="M64.4,93.3c0,0.5,0,1,0,1.5c0.8,0,1.7,0,2.5,0c0-0.5,0-1,0-1.5C66.1,93.3,65.2,93.3,64.4,93.3z"/>
		<path class="st9" d="M73.2,93.3c-0.8,0-1.7,0-2.5,0c0,0.5,0,1,0,1.5c0.8,0,1.7,0,2.5,0C73.2,94.3,73.2,93.8,73.2,93.3z"/>
		<path class="st9" d="M45.1,93.3c0,0.5,0,0.9,0,1.4c0,0.1,0,0.2,0.2,0.2c0.7,0,1.4,0,2.2,0c0.1,0,0.1,0,0.2,0c0-0.5,0-1,0-1.5
			C46.8,93.3,45.9,93.3,45.1,93.3z"/>
		<path class="st9" d="M67.6,94.8C67.6,94.8,67.6,94.8,67.6,94.8c0.8,0,1.6,0,2.4,0c0.1,0,0.1-0.1,0.1-0.2c0-0.4,0-0.8,0-1.3
			c0,0,0-0.1,0-0.1c-0.8,0-1.7,0-2.5,0C67.6,93.8,67.6,94.3,67.6,94.8z"/>
		<path class="st9" d="M86.9,90.7c0-0.5,0-1,0-1.5c-0.5,0-1,0-1.5,0c0,0.5,0,1,0,1.5C85.9,90.7,86.4,90.7,86.9,90.7z"/>
		<path class="st9" d="M56.8,89.2c0,0.5,0,1,0,1.5c0.5,0,1,0,1.5,0c0-0.5,0-1,0-1.5C57.8,89.2,57.3,89.2,56.8,89.2z"/>
		<path class="st9" d="M82.6,90.7c0-0.5,0-1,0-1.5c-0.5,0-1,0-1.5,0c0,0.5,0,1,0,1.5C81.6,90.7,82.1,90.7,82.6,90.7z"/>
		<path class="st9" d="M69,90.7c0-0.5,0-1,0-1.5c-0.5,0-1,0-1.5,0c0,0.5,0,1,0,1.5C68,90.7,68.5,90.7,69,90.7z"/>
		<path class="st9" d="M66.8,90.7c0-0.5,0-1,0-1.5c-0.5,0-1,0-1.5,0c0,0.5,0,1,0,1.5C65.8,90.7,66.3,90.7,66.8,90.7z"/>
		<path class="st9" d="M63.2,89.2c0,0.5,0,1,0,1.5c0.5,0,1,0,1.5,0c0-0.5,0-1,0-1.5C64.2,89.2,63.7,89.2,63.2,89.2z"/>
		<path class="st9" d="M61,89.2c0,0.5,0,1,0,1.5c0.5,0,1,0,1.5,0c0-0.5,0-1,0-1.5C62.1,89.2,61.6,89.2,61,89.2z"/>
		<path class="st9" d="M52.6,90.7c0.5,0,1,0,1.5,0c0-0.5,0-1,0-1.5c-0.5,0-1,0-1.5,0C52.6,89.7,52.6,90.2,52.6,90.7z"/>
		<path class="st9" d="M48.3,89.2c0,0.5,0,1,0,1.5c0.5,0,1,0,1.5,0c0-0.5,0-1,0-1.5C49.3,89.2,48.8,89.2,48.3,89.2z"/>
		<path class="st9" d="M58.9,90.7c0.5,0,1,0,1.5,0c0-0.5,0-1,0-1.5c-0.5,0-1,0-1.5,0C58.9,89.7,58.9,90.2,58.9,90.7z"/>
		<path class="st9" d="M58.9,85c0,0.5,0,1,0,1.5c0.5,0,1,0,1.5,0c0-0.5,0-1,0-1.5C59.9,85,59.4,85,58.9,85z"/>
		<path class="st9" d="M51.5,88.6c0.5,0,1,0,1.4,0c0,0,0.1-0.1,0.1-0.1c0-0.3,0-0.5,0-0.8c0-0.2,0-0.4,0-0.6c-0.5,0-1,0-1.5,0
			C51.5,87.6,51.5,88.1,51.5,88.6z"/>
		<path class="st9" d="M49.4,87.1c0,0.5,0,1,0,1.5c0.5,0,1,0,1.5,0c0-0.5,0-1,0-1.5C50.4,87.1,49.9,87.1,49.4,87.1z"/>
		<path class="st9" d="M48.8,88.6c0-0.5,0-1,0-1.5c-0.5,0-1,0-1.5,0c0,0.5,0,1,0,1.5C47.7,88.6,48.2,88.6,48.8,88.6z"/>
		<path class="st9" d="M85.4,85c0,0.5,0,1,0,1.5c0.5,0,1,0,1.5,0c0-0.5,0-1,0-1.4c0-0.1-0.1-0.1-0.1-0.1c-0.3,0-0.6,0-0.9,0
			C85.7,85,85.6,85,85.4,85z"/>
		<path class="st9" d="M81.1,86.6c0.5,0,1,0,1.5,0c0-0.5,0-1,0-1.5c-0.5,0-1,0-1.5,0C81.1,85.6,81.1,86,81.1,86.6z"/>
		<path class="st9" d="M77.9,85c-0.5,0-1,0-1.5,0c0,0.5,0,1,0,1.5c0.5,0,1,0,1.5,0C77.9,86.1,77.9,85.6,77.9,85z"/>
		<path class="st9" d="M71.7,85c0,0.5,0,1,0,1.5c0.5,0,1,0,1.5,0c0-0.5,0-1,0-1.5C72.7,85,72.2,85,71.7,85z"/>
		<path class="st9" d="M69.6,85c0,0.5,0,1,0,1.5c0.5,0,1,0,1.5,0c0-0.5,0-1,0-1.4c0,0-0.1-0.1-0.1-0.1C70.6,85,70.1,85,69.6,85z"/>
		<path class="st9" d="M67.4,86.6c0.5,0,1,0,1.5,0c0-0.5,0-1,0-1.5c-0.5,0-1,0-1.4,0c0,0-0.1,0.1-0.1,0.1
			C67.4,85.6,67.4,86.1,67.4,86.6z"/>
		<path class="st9" d="M65.3,86.6c0.5,0,1,0,1.5,0c0-0.5,0-0.9,0-1.4c0-0.1,0-0.2-0.2-0.2c-0.4,0-0.8,0-1.2,0c0,0-0.1,0-0.1,0
			C65.3,85.6,65.3,86.1,65.3,86.6z"/>
		<path class="st9" d="M64.7,85c-0.5,0-1,0-1.4,0c0,0-0.1,0.1-0.1,0.1c0,0.3,0,0.6,0,0.9c0,0.2,0,0.3,0,0.5c0.5,0,1,0,1.5,0
			C64.7,86.1,64.7,85.6,64.7,85z"/>
		<path class="st9" d="M58.4,85c-0.5,0-1,0-1.5,0c0,0.5,0,1,0,1.5c0.5,0,1,0,1.5,0C58.4,86.1,58.4,85.6,58.4,85z"/>
		<path class="st9" d="M54.1,85c-0.5,0-1,0-1.5,0c0,0.5,0,1,0,1.5c0.5,0,1,0,1.5,0C54.1,86,54.1,85.6,54.1,85z"/>
		<path class="st9" d="M49.8,86.6c0-0.5,0-1,0-1.5c-0.5,0-1,0-1.5,0c0,0.5,0,1,0,1.5C48.8,86.6,49.3,86.6,49.8,86.6z"/>
		<path class="st9" d="M44,85c0,0.5,0,1,0,1.5c0.5,0,1,0,1.5,0c0-0.5,0-1,0-1.5C45,85,44.5,85,44,85z"/>
		<path class="st9" d="M61,86.6c0.5,0,1,0,1.5,0c0-0.5,0-0.9,0-1.4c0-0.1-0.1-0.1-0.1-0.1c-0.4,0-0.9,0-1.3,0c0,0-0.1,0-0.1,0
			C61,85.6,61,86.1,61,86.6z"/>
		<path class="st9" d="M85.4,94.8c0.5,0,1,0,1.4,0c0,0,0.1-0.1,0.1-0.1c0-0.2,0-0.4,0-0.7c0-0.2,0-0.5,0-0.7c-0.5,0-1,0-1.5,0
			C85.4,93.8,85.4,94.3,85.4,94.8z"/>
		<path class="st9" d="M82.6,93.3c-0.5,0-1,0-1.5,0c0,0.5,0,1,0,1.5c0.5,0,1,0,1.5,0C82.6,94.3,82.6,93.8,82.6,93.3z"/>
		<path class="st9" d="M77.9,94.8c0-0.5,0-1,0-1.5c-0.5,0-1,0-1.5,0c0,0.5,0,1,0,1.4c0,0.1,0.1,0.1,0.1,0.1c0.2,0,0.5,0,0.7,0
			C77.5,94.8,77.7,94.8,77.9,94.8z"/>
		<path class="st9" d="M85.4,91.2c0,0.5,0,1,0,1.5c0.5,0,1,0,1.5,0c0-0.5,0-1,0-1.5C86.4,91.2,85.9,91.2,85.4,91.2z"/>
		<path class="st9" d="M81.1,91.2c0,0.5,0,1,0,1.5c0.5,0,1,0,1.5,0c0-0.5,0-1,0-1.5C82.1,91.2,81.6,91.2,81.1,91.2z"/>
		<path class="st9" d="M77.9,92.8c0-0.5,0-1,0-1.5c-0.5,0-1,0-1.5,0c0,0.5,0,1,0,1.5C76.9,92.8,77.4,92.8,77.9,92.8z"/>
		<path class="st9" d="M67.9,91.2c-0.5,0-1,0-1.5,0c0,0.5,0,1,0,1.5c0.5,0,1,0,1.5,0C67.9,92.2,67.9,91.7,67.9,91.2z"/>
		<path class="st9" d="M63.6,92.8c0-0.5,0-1,0-1.5c-0.5,0-1,0-1.5,0c0,0.5,0,1,0,1.5C62.6,92.8,63.1,92.8,63.6,92.8z"/>
		<path class="st9" d="M59.4,92.8c0-0.5,0-1,0-1.5c-0.5,0-1,0-1.5,0c0,0.5,0,1,0,1.5C58.3,92.8,58.8,92.8,59.4,92.8z"/>
		<path class="st9" d="M57.3,92.8c0-0.5,0-1,0-1.4c0-0.1-0.1-0.1-0.1-0.1c-0.2,0-0.5,0-0.7,0c-0.2,0-0.5,0-0.7,0c0,0.5,0,1,0,1.5
			C56.3,92.8,56.8,92.8,57.3,92.8z"/>
		<path class="st9" d="M55.2,91.2c-0.5,0-1,0-1.4,0c0,0-0.1,0.1-0.1,0.1c0,0.3,0,0.6,0,0.9c0,0.2,0,0.3,0,0.5c0.5,0,1,0,1.5,0
			C55.2,92.2,55.2,91.8,55.2,91.2z"/>
		<path class="st9" d="M51.5,91.2c0,0.5,0,1,0,1.5c0.5,0,1,0,1.5,0c0-0.5,0-1,0-1.5C52.5,91.2,52,91.2,51.5,91.2z"/>
		<path class="st9" d="M49.4,91.2c0,0.5,0,1,0,1.5c0.5,0,1,0,1.5,0c0-0.5,0-1,0-1.5C50.4,91.2,49.9,91.2,49.4,91.2z"/>
		<path class="st9" d="M48.8,92.8c0-0.5,0-1,0-1.5c-0.5,0-1,0-1.5,0c0,0.5,0,1,0,1.5C47.7,92.8,48.2,92.8,48.8,92.8z"/>
		<path class="st9" d="M87.5,89.2c0,0.5,0,1,0,1.5c0.5,0,1,0,1.5,0c0-0.5,0-1,0-1.5C88.5,89.2,88,89.2,87.5,89.2z"/>
		<path class="st9" d="M84.8,90.7c0-0.5,0-1,0-1.5c-0.5,0-1,0-1.5,0c0,0.5,0,1,0,1.5C83.8,90.7,84.3,90.7,84.8,90.7z"/>
		<path class="st9" d="M47.7,90.7c0-0.5,0-1,0-1.5c-0.5,0-1,0-1.5,0c0,0.5,0,1,0,1.5C46.7,90.7,47.2,90.7,47.7,90.7z"/>
		<path class="st9" d="M86.9,87.1c-0.5,0-1,0-1.5,0c0,0.5,0,1,0,1.5c0.5,0,1,0,1.4,0c0,0,0.1-0.1,0.1-0.1
			C86.9,88.1,86.9,87.6,86.9,87.1z"/>
		<path class="st9" d="M82.6,88.6c0-0.5,0-1,0-1.5c-0.5,0-1,0-1.5,0c0,0.5,0,1,0,1.5C81.6,88.6,82.1,88.6,82.6,88.6z"/>
		<path class="st9" d="M76.4,88.6c0.5,0,1,0,1.5,0c0-0.5,0-1,0-1.5c-0.5,0-1,0-1.5,0C76.4,87.6,76.4,88.1,76.4,88.6z"/>
		<path class="st9" d="M66.4,87.1c0,0.5,0,1,0,1.5c0.5,0,1,0,1.5,0c0-0.5,0-1,0-1.5C67.4,87.1,66.9,87.1,66.4,87.1z"/>
		<path class="st9" d="M63.6,88.6c0-0.5,0-1,0-1.5c-0.5,0-1,0-1.5,0c0,0.5,0,1,0,1.5C62.6,88.6,63.1,88.6,63.6,88.6z"/>
		<path class="st9" d="M56.2,90.7c0-0.5,0-1,0-1.5c-0.5,0-1,0-1.5,0c0,0.5,0,1,0,1.5C55.2,90.7,55.7,90.7,56.2,90.7z"/>
		<path class="st9" d="M57.8,87.1c0,0.5,0,1,0,1.5c0.5,0,1,0,1.5,0c0-0.5,0-1,0-1.5C58.9,87.1,58.3,87.1,57.8,87.1z"/>
		<path class="st9" d="M55.8,87.1c0,0.5,0,1,0,1.5c0.5,0,1,0,1.5,0c0,0,0.1-0.1,0.1-0.1c0-0.2,0-0.4,0-0.7c0-0.2,0-0.5,0-0.7
			C56.8,87.1,56.3,87.1,55.8,87.1z"/>
		<path class="st9" d="M52,89.2c-0.5,0-1,0-1.5,0c0,0.5,0,1,0,1.5c0.5,0,1,0,1.5,0C52,90.2,52,89.7,52,89.2z"/>
		<path class="st9" d="M55.2,87.1c-0.5,0-1,0-1.5,0c0,0.5,0,1,0,1.4c0,0,0.1,0.1,0.1,0.1c0.4,0,0.9,0,1.3,0c0,0,0.1,0,0.1,0
			C55.2,88.1,55.2,87.6,55.2,87.1z"/>
		<path class="st9" d="M64.3,91.2c0,0.5,0,1,0,1.5c0.5,0,1,0,1.5,0c0-0.5,0-1,0-1.5C65.3,91.2,64.8,91.2,64.3,91.2z"/>
		<path class="st9" d="M78.6,85c0,0.5,0,1,0,1.5c0.5,0,1,0,1.5,0c0-0.5,0-1,0-1.4c0,0-0.1-0.1-0.1-0.1c-0.2,0-0.5,0-0.7,0
			C79,85,78.8,85,78.6,85z"/>
		<path class="st9" d="M60,92.8c0.5,0,1,0,1.5,0c0-0.5,0-1,0-1.4c0,0-0.1-0.1-0.1-0.1c-0.5,0-0.9,0-1.4,0c0,0,0,0-0.1,0
			C60,91.8,60,92.2,60,92.8z"/>
		<path class="st9" d="M83.3,93.3C83.3,93.3,83.3,93.4,83.3,93.3c0,0.5,0,1,0,1.4c0,0.1,0.1,0.1,0.1,0.1c0.4,0,0.8,0,1.3,0
			c0,0,0.1,0,0.1,0c0-0.5,0-1,0-1.5C84.3,93.3,83.8,93.3,83.3,93.3z"/>
		<path class="st9" d="M46.2,86.6c0.5,0,1,0,1.5,0c0-0.5,0-1,0-1.4c0,0-0.1-0.1-0.1-0.1c-0.4,0-0.8,0-1.3,0c0,0-0.1,0-0.1,0
			C46.2,85.6,46.2,86.1,46.2,86.6z"/>
		<path class="st9" d="M78.6,94.8C78.6,94.8,78.6,94.8,78.6,94.8c0.5,0,1,0,1.4,0c0.1,0,0.1-0.1,0.1-0.2c0-0.4,0-0.8,0-1.1
			c0-0.1,0-0.2,0-0.2c-0.5,0-1,0-1.5,0C78.6,93.8,78.6,94.3,78.6,94.8z"/>
		<path class="st9" d="M50.4,85c0,0.5,0,1,0,1.5c0.5,0,1,0,1.5,0c0-0.5,0-0.9,0-1.4c0,0-0.1-0.1-0.1-0.1C51.4,85,50.9,85,50.4,85z"
			/>
		<path class="st9" d="M74.3,93.3c0,0.5,0,1,0,1.5c0,0,0.1,0,0.1,0c0.4,0,0.9,0,1.3,0c0.1,0,0.1-0.1,0.1-0.1c0-0.4,0-0.7,0-1.1
			c0-0.1,0-0.2,0-0.3C75.3,93.3,74.8,93.3,74.3,93.3z"/>
		<path class="st9" d="M84.8,85.1C84.7,85,84.7,85,84.8,85.1c-0.5,0-1,0-1.4,0c-0.1,0-0.1,0.1-0.1,0.1c0,0.4,0,0.8,0,1.2
			c0,0.1,0,0.1,0,0.2c0.5,0,1,0,1.5,0C84.8,86.1,84.8,85.6,84.8,85.1z"/>
		<path class="st9" d="M89.1,87.1c-0.5,0-1,0-1.5,0c0,0.5,0,1,0,1.4c0,0,0.1,0.1,0.1,0.1c0.4,0,0.8,0,1.3,0c0,0,0.1,0,0.1,0
			C89.1,88.1,89.1,87.6,89.1,87.1z"/>
		<path class="st9" d="M89,85.1C89,85,89,85,89,85.1c-0.5,0-1,0-1.4,0c-0.1,0-0.1,0.1-0.1,0.2c0,0.4,0,0.8,0,1.2c0,0.1,0,0.1,0,0.2
			c0.5,0,1,0,1.5,0C89,86.1,89,85.6,89,85.1z"/>
		<path class="st9" d="M70,87.1c-0.5,0-1,0-1.5,0c0,0.5,0,1,0,1.5c0.5,0,1,0,1.5,0C70,88.1,70,87.6,70,87.1z"/>
		<path class="st9" d="M45.1,87.1c0,0.5,0,1,0,1.4c0,0.1,0.1,0.1,0.1,0.1c0.3,0,0.5,0,0.8,0c0.2,0,0.4,0,0.6,0c0-0.5,0-1,0-1.5
			C46.1,87.1,45.6,87.1,45.1,87.1z"/>
		<path class="st9" d="M61.5,87.1c-0.5,0-1,0-1.5,0c0,0.5,0,1,0,1.5c0.5,0,1,0,1.4,0c0,0,0.1-0.1,0.1-0.1
			C61.5,88.1,61.5,87.6,61.5,87.1z"/>
		<path class="st9" d="M64.3,88.6C64.3,88.6,64.3,88.6,64.3,88.6c0.5,0,1,0,1.4,0c0.1,0,0.1-0.1,0.1-0.2c0-0.4,0-0.7,0-1.1
			c0-0.1,0-0.2,0-0.3c-0.5,0-1,0-1.5,0C64.3,87.6,64.3,88.1,64.3,88.6z"/>
		<path class="st9" d="M74.3,88.6C74.3,88.6,74.3,88.6,74.3,88.6c0.5,0,1,0,1.4,0c0.1,0,0.1-0.1,0.1-0.1c0-0.4,0-0.8,0-1.2
			c0-0.1,0-0.1,0-0.2c-0.5,0-1,0-1.5,0C74.3,87.6,74.3,88.1,74.3,88.6z"/>
		<path class="st9" d="M78.6,88.6c0.5,0,1,0,1.5,0c0,0,0.1-0.1,0.1-0.1c0-0.4,0-0.9,0-1.3c0,0,0-0.1,0-0.1c-0.5,0-1,0-1.5,0
			C78.6,87.6,78.6,88.1,78.6,88.6z"/>
		<path class="st9" d="M89.1,91.2c-0.5,0-1,0-1.4,0c0,0-0.1,0.1-0.1,0.1c0,0.2,0,0.4,0,0.6c0,0.3,0,0.5,0,0.8c0.5,0,1,0,1.5,0
			C89.1,92.2,89.1,91.8,89.1,91.2z"/>
		<path class="st9" d="M56.2,86.6c0-0.5,0-1,0-1.5c-0.5,0-1,0-1.5,0c0,0.5,0,1,0,1.5C55.2,86.6,55.7,86.6,56.2,86.6z"/>
		<path class="st9" d="M84.8,91.2c-0.5,0-1,0-1.4,0c0,0-0.1,0.1-0.1,0.1c0,0.2,0,0.4,0,0.6c0,0.3,0,0.6,0,0.8c0.5,0,1,0,1.5,0
			C84.8,92.2,84.8,91.8,84.8,91.2z"/>
		<path class="st9" d="M75.8,86.6c0-0.5,0-1,0-1.4c0,0-0.1-0.1-0.1-0.1c-0.2,0-0.4,0-0.6,0c-0.2,0-0.5,0-0.7,0c0,0.5,0,1,0,1.5
			C74.8,86.6,75.3,86.6,75.8,86.6z"/>
		<path class="st9" d="M87.5,93.3c0,0.5,0,1,0,1.4c0,0,0.1,0.1,0.1,0.1c0.4,0,0.8,0,1.3,0c0,0,0.1,0,0.1,0c0-0.5,0-1,0-1.5
			C88.5,93.3,88,93.3,87.5,93.3z"/>
		<path class="st9" d="M84.8,88.6c0-0.5,0-1,0-1.5c-0.5,0-1,0-1.5,0c0,0.5,0,1,0,1.4c0,0,0.1,0.1,0.1,0.1c0.2,0,0.5,0,0.7,0
			C84.3,88.6,84.5,88.6,84.8,88.6z"/>
		<path class="st9" d="M43.4,86.6c0-0.5,0-1,0-1.4c0,0-0.1-0.1-0.1-0.1c-0.4,0-0.8,0-1.3,0c0,0-0.1,0-0.1,0c0,0.5,0,1,0,1.5
			C42.4,86.6,42.9,86.6,43.4,86.6z"/>
		<path class="st9" d="M62.6,83.7c-0.5,0-1,0-1.5,0c0,0.3,0,0.6,0,0.8c0.5,0,1,0,1.5,0C62.6,84.2,62.6,84,62.6,83.7z"/>
		<path class="st9" d="M76.4,83.7c0,0.3,0,0.6,0,0.8c0.5,0,1,0,1.5,0c0-0.3,0-0.6,0-0.8C77.4,83.7,76.9,83.7,76.4,83.7z"/>
		<path class="st9" d="M64.7,84.5c0-0.3,0-0.6,0-0.8c-0.5,0-1,0-1.5,0c0,0.3,0,0.6,0,0.8C63.7,84.5,64.2,84.5,64.7,84.5z"/>
		<path class="st9" d="M65.3,83.7c0,0.3,0,0.6,0,0.8c0.5,0,1,0,1.5,0c0-0.3,0-0.6,0-0.8C66.3,83.7,65.8,83.7,65.3,83.7z"/>
		<path class="st9" d="M58.4,83.7c-0.5,0-1,0-1.5,0c0,0.3,0,0.6,0,0.8c0.5,0,1,0,1.5,0C58.4,84.2,58.4,84,58.4,83.7z"/>
		<path class="st9" d="M71.7,84.5c0.5,0,1,0,1.5,0c0-0.3,0-0.6,0-0.8c-0.5,0-1,0-1.5,0C71.7,84,71.7,84.2,71.7,84.5z"/>
		<path class="st9" d="M71.1,84.5c0-0.3,0-0.6,0-0.8c-0.5,0-1,0-1.5,0c0,0.3,0,0.6,0,0.8C70.1,84.5,70.6,84.5,71.1,84.5z"/>
		<path class="st9" d="M54.1,84.5c0-0.3,0-0.6,0-0.8c-0.5,0-1,0-1.5,0c0,0.3,0,0.6,0,0.8C53.1,84.5,53.6,84.5,54.1,84.5z"/>
		<path class="st9" d="M67.4,83.7c0,0.3,0,0.6,0,0.8c0.5,0,1,0,1.5,0c0-0.3,0-0.6,0-0.8C68.5,83.7,68,83.7,67.4,83.7z"/>
		<path class="st9" d="M48.3,84.5c0.5,0,1,0,1.5,0c0-0.3,0-0.6,0-0.8c-0.5,0-1,0-1.5,0C48.3,84,48.3,84.2,48.3,84.5z"/>
		<path class="st9" d="M44,83.7c0,0.3,0,0.6,0,0.8c0.5,0,1,0,1.5,0c0-0.3,0-0.6,0-0.8C45,83.7,44.5,83.7,44,83.7z"/>
		<path class="st9" d="M60.4,83.7c-0.5,0-1,0-1.5,0c0,0.3,0,0.6,0,0.8c0.5,0,1,0,1.5,0C60.4,84.2,60.4,83.9,60.4,83.7z"/>
		<path class="st9" d="M80.1,84.5c0-0.3,0-0.6,0-0.8c-0.5,0-1,0-1.5,0c0,0.3,0,0.6,0,0.8C79.1,84.5,79.6,84.5,80.1,84.5z"/>
		<path class="st9" d="M75.8,84.5c0-0.3,0-0.6,0-0.8c-0.5,0-1,0-1.5,0c0,0.3,0,0.6,0,0.8C74.8,84.5,75.3,84.5,75.8,84.5z"/>
		<path class="st9" d="M56.2,83.7c-0.5,0-1,0-1.5,0c0,0.3,0,0.6,0,0.8c0.5,0,1,0,1.5,0C56.2,84.2,56.2,84,56.2,83.7z"/>
		<path class="st9" d="M51.9,84.5c0-0.3,0-0.6,0-0.8c-0.5,0-1,0-1.5,0c0,0.3,0,0.6,0,0.8C50.9,84.5,51.4,84.5,51.9,84.5z"/>
		<path class="st9" d="M41.9,84.5c0.5,0,1,0,1.5,0c0-0.3,0-0.6,0-0.8c-0.5,0-1,0-1.5,0C41.9,84,41.9,84.2,41.9,84.5z"/>
		<path class="st9" d="M47.7,83.7c-0.5,0-1,0-1.5,0c0,0.3,0,0.6,0,0.8c0.5,0,1,0,1.5,0C47.7,84.2,47.7,84,47.7,83.7z"/>
		<path class="st9" d="M51.4,94.8c0-0.5,0-1,0-1.5c4.1,0,8.3,0,12.4,0c0,0.5,0,1,0,1.5C59.6,94.8,55.5,94.8,51.4,94.8z"/>
		<path class="st9" d="M69.6,89.2c0.3,0,0.7,0,1,0c0-0.7,0-1.4,0-2.1c0.9,0,1.7,0,2.6,0c0,1.2,0,2.4,0,3.6c-1.2,0-2.4,0-3.6,0
			C69.6,90.2,69.6,89.7,69.6,89.2z"/>
		<path class="st9" d="M41.9,92.8c0-0.5,0-1,0-1.5c1.6,0,3.1,0,4.7,0c0,0.5,0,1,0,1.5C45,92.8,43.5,92.8,41.9,92.8z"/>
		<path class="st9" d="M68.5,91.2c1.6,0,3.1,0,4.7,0c0,0.5,0,1,0,1.5c-1.6,0-3.1,0-4.7,0C68.5,92.3,68.5,91.8,68.5,91.2z"/>
		<path class="st9" d="M41.9,89.2c1.2,0,2.4,0,3.7,0c0,0.5,0,1,0,1.5c-1.2,0-2.4,0-3.7,0C41.9,90.2,41.9,89.7,41.9,89.2z"/>
		<path class="st9" d="M44.5,87.1c0,0.5,0,1,0,1.4c0,0-0.1,0.1-0.1,0.1c-0.8,0-1.7,0-2.5,0c0-0.5,0-1,0-1.5
			C42.8,87.1,43.6,87.1,44.5,87.1z"/>
		<path class="st9" d="M41.9,93.3c0.8,0,1.7,0,2.5,0c0,0.2,0,0.3,0,0.5c0,0.3,0,0.6,0,0.9c0,0.1,0,0.1-0.1,0.1c-0.8,0-1.6,0-2.4,0
			c0,0,0,0-0.1,0C41.9,94.3,41.9,93.8,41.9,93.3z"/>
		<path class="st9" d="M48.2,94.8c0-0.5,0-1,0-1.5c0.8,0,1.7,0,2.5,0c0,0.5,0,1,0,1.5C49.9,94.8,49.1,94.8,48.2,94.8z"/>
		<path class="st9" d="M64.4,93.3c0.8,0,1.7,0,2.5,0c0,0.5,0,1,0,1.5c-0.8,0-1.7,0-2.5,0C64.4,94.3,64.4,93.8,64.4,93.3z"/>
		<path class="st9" d="M73.2,93.3c0,0.5,0,1,0,1.5c-0.8,0-1.7,0-2.5,0c0-0.5,0-1,0-1.5C71.6,93.3,72.4,93.3,73.2,93.3z"/>
		<path class="st9" d="M45.1,93.3c0.9,0,1.7,0,2.5,0c0,0.5,0,1,0,1.5c-0.1,0-0.1,0-0.2,0c-0.7,0-1.4,0-2.2,0c-0.1,0-0.2,0-0.2-0.2
			C45.1,94.2,45.1,93.8,45.1,93.3z"/>
		<path class="st9" d="M67.6,94.8c0-0.5,0-1,0-1.5c0.8,0,1.7,0,2.5,0c0,0,0,0.1,0,0.1c0,0.4,0,0.8,0,1.3c0,0.1,0,0.2-0.1,0.2
			C69.2,94.8,68.4,94.8,67.6,94.8C67.6,94.8,67.6,94.8,67.6,94.8z"/>
		<path class="st9" d="M86.9,90.7c-0.5,0-1,0-1.5,0c0-0.5,0-1,0-1.5c0.5,0,1,0,1.5,0C86.9,89.7,86.9,90.2,86.9,90.7z"/>
		<path class="st9" d="M56.8,89.2c0.5,0,1,0,1.5,0c0,0.5,0,1,0,1.5c-0.5,0-1,0-1.5,0C56.8,90.2,56.8,89.7,56.8,89.2z"/>
		<path class="st9" d="M82.6,90.7c-0.5,0-1,0-1.5,0c0-0.5,0-1,0-1.5c0.5,0,1,0,1.5,0C82.6,89.7,82.6,90.2,82.6,90.7z"/>
		<path class="st9" d="M69,90.7c-0.5,0-1,0-1.5,0c0-0.5,0-1,0-1.5c0.5,0,1,0,1.5,0C69,89.7,69,90.2,69,90.7z"/>
		<path class="st9" d="M66.8,90.7c-0.5,0-1,0-1.5,0c0-0.5,0-1,0-1.5c0.5,0,1,0,1.5,0C66.8,89.7,66.8,90.2,66.8,90.7z"/>
		<path class="st9" d="M63.2,89.2c0.5,0,1,0,1.5,0c0,0.5,0,1,0,1.5c-0.5,0-1,0-1.5,0C63.2,90.2,63.2,89.7,63.2,89.2z"/>
		<path class="st9" d="M61,89.2c0.5,0,1,0,1.5,0c0,0.5,0,1,0,1.5c-0.5,0-1,0-1.5,0C61,90.2,61,89.7,61,89.2z"/>
		<path class="st9" d="M52.6,90.7c0-0.5,0-1,0-1.5c0.5,0,1,0,1.5,0c0,0.5,0,1,0,1.5C53.6,90.7,53.1,90.7,52.6,90.7z"/>
		<path class="st9" d="M48.3,89.2c0.5,0,1,0,1.5,0c0,0.5,0,1,0,1.5c-0.5,0-1,0-1.5,0C48.3,90.2,48.3,89.7,48.3,89.2z"/>
		<path class="st9" d="M58.9,90.7c0-0.5,0-1,0-1.5c0.5,0,1,0,1.5,0c0,0.5,0,1,0,1.5C59.9,90.7,59.4,90.7,58.9,90.7z"/>
		<path class="st9" d="M58.9,85c0.5,0,1,0,1.5,0c0,0.5,0,1,0,1.5c-0.5,0-1,0-1.5,0C58.9,86.1,58.9,85.6,58.9,85z"/>
		<path class="st9" d="M51.5,88.6c0-0.5,0-1,0-1.5c0.5,0,1,0,1.5,0c0,0.2,0,0.4,0,0.6c0,0.3,0,0.5,0,0.8c0,0-0.1,0.1-0.1,0.1
			C52.5,88.6,52,88.6,51.5,88.6z"/>
		<path class="st9" d="M49.4,87.1c0.5,0,1,0,1.5,0c0,0.5,0,1,0,1.5c-0.5,0-1,0-1.5,0C49.4,88.1,49.4,87.6,49.4,87.1z"/>
		<path class="st9" d="M48.8,88.6c-0.5,0-1,0-1.5,0c0-0.5,0-1,0-1.5c0.5,0,1,0,1.5,0C48.8,87.6,48.8,88.1,48.8,88.6z"/>
		<path class="st9" d="M85.4,85c0.2,0,0.3,0,0.5,0c0.3,0,0.6,0,0.9,0c0.1,0,0.1,0,0.1,0.1c0,0.5,0,0.9,0,1.4c-0.5,0-1,0-1.5,0
			C85.4,86.1,85.4,85.6,85.4,85z"/>
		<path class="st9" d="M81.1,86.6c0-0.5,0-1,0-1.5c0.5,0,1,0,1.5,0c0,0.5,0,1,0,1.5C82.1,86.6,81.6,86.6,81.1,86.6z"/>
		<path class="st9" d="M77.9,85c0,0.5,0,1,0,1.5c-0.5,0-1,0-1.5,0c0-0.5,0-1,0-1.5C76.9,85,77.4,85,77.9,85z"/>
		<path class="st9" d="M71.7,85c0.5,0,1,0,1.5,0c0,0.5,0,1,0,1.5c-0.5,0-1,0-1.5,0C71.7,86.1,71.7,85.6,71.7,85z"/>
		<path class="st9" d="M69.6,85c0.5,0,1,0,1.4,0c0,0,0.1,0.1,0.1,0.1c0,0.5,0,1,0,1.4c-0.5,0-1,0-1.5,0C69.6,86.1,69.6,85.6,69.6,85
			z"/>
		<path class="st9" d="M67.4,86.6c0-0.5,0-1,0-1.4c0,0,0.1-0.1,0.1-0.1c0.5,0,1,0,1.4,0c0,0.5,0,1,0,1.5
			C68.5,86.6,68,86.6,67.4,86.6z"/>
		<path class="st9" d="M65.3,86.6c0-0.5,0-1,0-1.5c0.1,0,0.1,0,0.1,0c0.4,0,0.8,0,1.2,0c0.1,0,0.2,0,0.2,0.2c0,0.5,0,0.9,0,1.4
			C66.3,86.6,65.8,86.6,65.3,86.6z"/>
		<path class="st9" d="M64.7,85c0,0.5,0,1,0,1.5c-0.5,0-1,0-1.5,0c0-0.2,0-0.3,0-0.5c0-0.3,0-0.6,0-0.9c0,0,0.1-0.1,0.1-0.1
			C63.7,85,64.2,85,64.7,85z"/>
		<path class="st9" d="M58.4,85c0,0.5,0,1,0,1.5c-0.5,0-1,0-1.5,0c0-0.5,0-1,0-1.5C57.4,85,57.9,85,58.4,85z"/>
		<path class="st9" d="M54.1,85c0,0.5,0,1,0,1.5c-0.5,0-1,0-1.5,0c0-0.5,0-1,0-1.5C53.1,85,53.6,85,54.1,85z"/>
		<path class="st9" d="M49.8,86.6c-0.5,0-1,0-1.5,0c0-0.5,0-1,0-1.5c0.5,0,1,0,1.5,0C49.8,85.5,49.8,86,49.8,86.6z"/>
		<path class="st9" d="M44,85c0.5,0,1,0,1.5,0c0,0.5,0,1,0,1.5c-0.5,0-1,0-1.5,0C44,86.1,44,85.6,44,85z"/>
		<path class="st9" d="M61,86.6c0-0.5,0-1,0-1.5c0,0,0.1,0,0.1,0c0.4,0,0.9,0,1.3,0c0.1,0,0.1,0,0.1,0.1c0,0.5,0,0.9,0,1.4
			C62.1,86.6,61.6,86.6,61,86.6z"/>
		<path class="st9" d="M85.4,94.8c0-0.5,0-1,0-1.5c0.5,0,1,0,1.5,0c0,0.3,0,0.5,0,0.7c0,0.2,0,0.4,0,0.7c0,0-0.1,0.1-0.1,0.1
			C86.4,94.8,85.9,94.8,85.4,94.8z"/>
		<path class="st9" d="M82.6,93.3c0,0.5,0,1,0,1.5c-0.5,0-1,0-1.5,0c0-0.5,0-1,0-1.5C81.6,93.3,82.1,93.3,82.6,93.3z"/>
		<path class="st9" d="M77.9,94.8c-0.2,0-0.5,0-0.7,0c-0.2,0-0.5,0-0.7,0c-0.1,0-0.1,0-0.1-0.1c0-0.5,0-0.9,0-1.4c0.5,0,1,0,1.5,0
			C77.9,93.8,77.9,94.3,77.9,94.8z"/>
		<path class="st9" d="M85.4,91.2c0.5,0,1,0,1.5,0c0,0.5,0,1,0,1.5c-0.5,0-1,0-1.5,0C85.4,92.3,85.4,91.8,85.4,91.2z"/>
		<path class="st9" d="M81.1,91.2c0.5,0,1,0,1.5,0c0,0.5,0,1,0,1.5c-0.5,0-1,0-1.5,0C81.1,92.3,81.1,91.8,81.1,91.2z"/>
		<path class="st9" d="M77.9,92.8c-0.5,0-1,0-1.5,0c0-0.5,0-1,0-1.5c0.5,0,1,0,1.5,0C77.9,91.7,77.9,92.2,77.9,92.8z"/>
		<path class="st9" d="M67.9,91.2c0,0.5,0,1,0,1.5c-0.5,0-1,0-1.5,0c0-0.5,0-1,0-1.5C66.9,91.2,67.4,91.2,67.9,91.2z"/>
		<path class="st9" d="M63.6,92.8c-0.5,0-1,0-1.5,0c0-0.5,0-1,0-1.5c0.5,0,1,0,1.5,0C63.6,91.7,63.6,92.2,63.6,92.8z"/>
		<path class="st9" d="M59.4,92.8c-0.5,0-1,0-1.5,0c0-0.5,0-1,0-1.5c0.5,0,1,0,1.5,0C59.4,91.7,59.4,92.2,59.4,92.8z"/>
		<path class="st9" d="M57.3,92.8c-0.5,0-1,0-1.5,0c0-0.5,0-1,0-1.5c0.2,0,0.5,0,0.7,0c0.2,0,0.5,0,0.7,0c0.1,0,0.1,0,0.1,0.1
			C57.3,91.8,57.3,92.3,57.3,92.8z"/>
		<path class="st9" d="M55.2,91.2c0,0.5,0,1,0,1.5c-0.5,0-1,0-1.5,0c0-0.2,0-0.3,0-0.5c0-0.3,0-0.6,0-0.9c0,0,0.1-0.1,0.1-0.1
			C54.2,91.2,54.7,91.2,55.2,91.2z"/>
		<path class="st9" d="M51.5,91.2c0.5,0,1,0,1.5,0c0,0.5,0,1,0,1.5c-0.5,0-1,0-1.5,0C51.5,92.3,51.5,91.8,51.5,91.2z"/>
		<path class="st9" d="M49.4,91.2c0.5,0,1,0,1.5,0c0,0.5,0,1,0,1.5c-0.5,0-1,0-1.5,0C49.4,92.3,49.4,91.8,49.4,91.2z"/>
		<path class="st9" d="M48.8,92.8c-0.5,0-1,0-1.5,0c0-0.5,0-1,0-1.5c0.5,0,1,0,1.5,0C48.8,91.7,48.8,92.2,48.8,92.8z"/>
		<path class="st9" d="M87.5,89.2c0.5,0,1,0,1.5,0c0,0.5,0,1,0,1.5c-0.5,0-1,0-1.5,0C87.5,90.2,87.5,89.7,87.5,89.2z"/>
		<path class="st9" d="M84.8,90.7c-0.5,0-1,0-1.5,0c0-0.5,0-1,0-1.5c0.5,0,1,0,1.5,0C84.8,89.7,84.8,90.2,84.8,90.7z"/>
		<path class="st9" d="M47.7,90.7c-0.5,0-1,0-1.5,0c0-0.5,0-1,0-1.5c0.5,0,1,0,1.5,0C47.7,89.7,47.7,90.2,47.7,90.7z"/>
		<path class="st9" d="M86.9,87.1c0,0.5,0,1,0,1.4c0,0-0.1,0.1-0.1,0.1c-0.5,0-1,0-1.4,0c0-0.5,0-1,0-1.5
			C85.9,87.1,86.4,87.1,86.9,87.1z"/>
		<path class="st9" d="M82.6,88.6c-0.5,0-1,0-1.5,0c0-0.5,0-1,0-1.5c0.5,0,1,0,1.5,0C82.6,87.6,82.6,88.1,82.6,88.6z"/>
		<path class="st9" d="M76.4,88.6c0-0.5,0-1,0-1.5c0.5,0,1,0,1.5,0c0,0.5,0,1,0,1.5C77.4,88.6,76.9,88.6,76.4,88.6z"/>
		<path class="st9" d="M66.4,87.1c0.5,0,1,0,1.5,0c0,0.5,0,1,0,1.5c-0.5,0-1,0-1.5,0C66.4,88.1,66.4,87.6,66.4,87.1z"/>
		<path class="st9" d="M63.6,88.6c-0.5,0-1,0-1.5,0c0-0.5,0-1,0-1.5c0.5,0,1,0,1.5,0C63.6,87.6,63.6,88.1,63.6,88.6z"/>
		<path class="st9" d="M56.2,90.7c-0.5,0-1,0-1.5,0c0-0.5,0-1,0-1.5c0.5,0,1,0,1.5,0C56.2,89.7,56.2,90.2,56.2,90.7z"/>
		<path class="st9" d="M57.8,87.1c0.5,0,1,0,1.5,0c0,0.5,0,1,0,1.5c-0.5,0-1,0-1.5,0C57.8,88.1,57.8,87.6,57.8,87.1z"/>
		<path class="st9" d="M55.8,87.1c0.5,0,1,0,1.5,0c0,0.3,0,0.5,0,0.7c0,0.2,0,0.4,0,0.7c0,0,0,0.1-0.1,0.1c-0.5,0-1,0-1.5,0
			C55.8,88.1,55.8,87.6,55.8,87.1z"/>
		<path class="st9" d="M52,89.2c0,0.5,0,1,0,1.5c-0.5,0-1,0-1.5,0c0-0.5,0-1,0-1.5C50.9,89.2,51.4,89.2,52,89.2z"/>
		<path class="st9" d="M55.2,87.1c0,0.5,0,1,0,1.5c0,0-0.1,0-0.1,0c-0.4,0-0.9,0-1.3,0c0,0-0.1-0.1-0.1-0.1c0-0.5,0-0.9,0-1.4
			C54.1,87.1,54.6,87.1,55.2,87.1z"/>
		<path class="st9" d="M64.3,91.2c0.5,0,1,0,1.5,0c0,0.5,0,1,0,1.5c-0.5,0-1,0-1.5,0C64.3,92.3,64.3,91.8,64.3,91.2z"/>
		<path class="st9" d="M78.6,85c0.2,0,0.5,0,0.7,0c0.2,0,0.5,0,0.7,0c0,0,0.1,0.1,0.1,0.1c0,0.5,0,0.9,0,1.4c-0.5,0-1,0-1.5,0
			C78.6,86.1,78.6,85.6,78.6,85z"/>
		<path class="st9" d="M60,92.8c0-0.5,0-1,0-1.5c0,0,0,0,0.1,0c0.5,0,0.9,0,1.4,0c0,0,0.1,0.1,0.1,0.1c0,0.5,0,1,0,1.4
			C61,92.8,60.5,92.8,60,92.8z"/>
		<path class="st9" d="M83.3,93.3c0.5,0,1,0,1.5,0c0,0.5,0,1,0,1.5c0,0-0.1,0-0.1,0c-0.4,0-0.8,0-1.3,0c-0.1,0-0.1,0-0.1-0.1
			C83.3,94.3,83.2,93.8,83.3,93.3C83.3,93.4,83.3,93.3,83.3,93.3z"/>
		<path class="st9" d="M46.2,86.6c0-0.5,0-1,0-1.5c0,0,0.1,0,0.1,0c0.4,0,0.8,0,1.3,0c0,0,0.1,0.1,0.1,0.1c0,0.5,0,1,0,1.4
			C47.2,86.6,46.7,86.6,46.2,86.6z"/>
		<path class="st9" d="M78.6,94.8c0-0.5,0-1,0-1.5c0.5,0,1,0,1.5,0c0,0.1,0,0.2,0,0.2c0,0.4,0,0.8,0,1.1c0,0.1,0,0.2-0.1,0.2
			C79.5,94.8,79.1,94.8,78.6,94.8C78.6,94.8,78.6,94.8,78.6,94.8z"/>
		<path class="st9" d="M50.4,85c0.5,0,1,0,1.4,0c0,0,0.1,0.1,0.1,0.1c0,0.5,0,0.9,0,1.4c-0.5,0-1,0-1.5,0
			C50.4,86.1,50.4,85.6,50.4,85z"/>
		<path class="st9" d="M74.3,93.3c0.5,0,1,0,1.5,0c0,0.1,0,0.2,0,0.3c0,0.4,0,0.7,0,1.1c0,0.1,0,0.1-0.1,0.1c-0.4,0-0.9,0-1.3,0
			c0,0,0,0-0.1,0C74.3,94.3,74.3,93.8,74.3,93.3z"/>
		<path class="st9" d="M84.8,85.1c0,0.5,0,1,0,1.5c-0.5,0-1,0-1.5,0c0-0.1,0-0.1,0-0.2c0-0.4,0-0.8,0-1.2c0-0.1,0-0.2,0.1-0.1
			C83.8,85,84.3,85,84.8,85.1C84.7,85,84.7,85,84.8,85.1z"/>
		<path class="st9" d="M89.1,87.1c0,0.5,0,1,0,1.5c0,0-0.1,0-0.1,0c-0.4,0-0.8,0-1.3,0c0,0-0.1-0.1-0.1-0.1c0-0.5,0-1,0-1.4
			C88,87.1,88.5,87.1,89.1,87.1z"/>
		<path class="st9" d="M89,85.1c0,0.5,0,1,0,1.5c-0.5,0-1,0-1.5,0c0-0.1,0-0.1,0-0.2c0-0.4,0-0.8,0-1.2c0-0.1,0-0.2,0.1-0.2
			C88.1,85,88.5,85,89,85.1C89,85,89,85,89,85.1z"/>
		<path class="st9" d="M70,87.1c0,0.5,0,1,0,1.5c-0.5,0-1,0-1.5,0c0-0.5,0-1,0-1.5C69,87.1,69.5,87.1,70,87.1z"/>
		<path class="st9" d="M45.1,87.1c0.5,0,1,0,1.5,0c0,0.5,0,1,0,1.5c-0.2,0-0.4,0-0.6,0c-0.3,0-0.5,0-0.8,0c-0.1,0-0.1,0-0.1-0.1
			C45.1,88.1,45.1,87.6,45.1,87.1z"/>
		<path class="st9" d="M61.5,87.1c0,0.5,0,1,0,1.4c0,0,0,0.1-0.1,0.1c-0.5,0-1,0-1.4,0c0-0.5,0-1,0-1.5C60.5,87.1,61,87.1,61.5,87.1
			z"/>
		<path class="st9" d="M64.3,88.6c0-0.5,0-1,0-1.5c0.5,0,1,0,1.5,0c0,0.1,0,0.2,0,0.3c0,0.4,0,0.7,0,1.1c0,0.1,0,0.2-0.1,0.2
			C65.2,88.6,64.8,88.6,64.3,88.6C64.3,88.6,64.3,88.6,64.3,88.6z"/>
		<path class="st9" d="M74.3,88.6c0-0.5,0-1,0-1.5c0.5,0,1,0,1.5,0c0,0.1,0,0.1,0,0.2c0,0.4,0,0.8,0,1.2c0,0.1,0,0.2-0.1,0.1
			C75.3,88.6,74.8,88.6,74.3,88.6C74.3,88.6,74.3,88.6,74.3,88.6z"/>
		<path class="st9" d="M78.6,88.6c0-0.5,0-1,0-1.5c0.5,0,1,0,1.5,0c0,0,0,0.1,0,0.1c0,0.4,0,0.9,0,1.3c0,0,0,0.1-0.1,0.1
			C79.5,88.6,79.1,88.6,78.6,88.6z"/>
		<path class="st9" d="M89.1,91.2c0,0.5,0,1,0,1.5c-0.5,0-1,0-1.5,0c0-0.3,0-0.5,0-0.8c0-0.2,0-0.4,0-0.6c0,0,0.1-0.1,0.1-0.1
			C88.1,91.2,88.6,91.2,89.1,91.2z"/>
		<path class="st9" d="M56.2,86.6c-0.5,0-1,0-1.5,0c0-0.5,0-1,0-1.5c0.5,0,1,0,1.5,0C56.2,85.6,56.2,86.1,56.2,86.6z"/>
		<path class="st9" d="M84.8,91.2c0,0.5,0,1,0,1.5c-0.5,0-1,0-1.5,0c0-0.3,0-0.6,0-0.8c0-0.2,0-0.4,0-0.6c0,0,0.1-0.1,0.1-0.1
			C83.8,91.2,84.3,91.2,84.8,91.2z"/>
		<path class="st9" d="M75.8,86.6c-0.5,0-1,0-1.5,0c0-0.5,0-1,0-1.5c0.3,0,0.5,0,0.7,0c0.2,0,0.4,0,0.6,0c0,0,0.1,0.1,0.1,0.1
			C75.8,85.6,75.8,86.1,75.8,86.6z"/>
		<path class="st9" d="M87.5,93.3c0.5,0,1,0,1.5,0c0,0.5,0,1,0,1.5c0,0-0.1,0-0.1,0c-0.4,0-0.8,0-1.3,0c0,0-0.1-0.1-0.1-0.1
			C87.5,94.3,87.5,93.8,87.5,93.3z"/>
		<path class="st9" d="M84.8,88.6c-0.2,0-0.5,0-0.7,0c-0.2,0-0.5,0-0.7,0c0,0-0.1,0-0.1,0s0-0.1,0-0.1c0-0.5,0-0.9,0-1.4
			c0.5,0,1,0,1.5,0C84.8,87.6,84.8,88.1,84.8,88.6z"/>
		<path class="st9" d="M43.4,86.6c-0.5,0-1,0-1.5,0c0-0.5,0-1,0-1.5c0,0,0.1,0,0.1,0c0.4,0,0.8,0,1.3,0c0,0,0.1,0.1,0.1,0.1
			C43.4,85.6,43.4,86.1,43.4,86.6z"/>
		<path class="st9" d="M62.6,83.7c0,0.3,0,0.5,0,0.8c-0.5,0-1,0-1.5,0c0-0.3,0-0.5,0-0.8C61.5,83.7,62,83.7,62.6,83.7z"/>
		<path class="st9" d="M76.4,83.7c0.5,0,1,0,1.5,0c0,0.3,0,0.5,0,0.8c-0.5,0-1,0-1.5,0C76.4,84.2,76.4,84,76.4,83.7z"/>
		<path class="st9" d="M64.7,84.5c-0.5,0-1,0-1.5,0c0-0.3,0-0.6,0-0.8c0.5,0,1,0,1.5,0C64.7,83.9,64.7,84.2,64.7,84.5z"/>
		<path class="st9" d="M65.3,83.7c0.5,0,1,0,1.5,0c0,0.3,0,0.6,0,0.8c-0.5,0-1,0-1.5,0C65.3,84.2,65.3,84,65.3,83.7z"/>
		<path class="st9" d="M58.4,83.7c0,0.3,0,0.6,0,0.8c-0.5,0-1,0-1.5,0c0-0.3,0-0.5,0-0.8C57.3,83.7,57.9,83.7,58.4,83.7z"/>
		<path class="st9" d="M71.7,84.5c0-0.3,0-0.5,0-0.8c0.5,0,1,0,1.5,0c0,0.3,0,0.5,0,0.8C72.7,84.5,72.2,84.5,71.7,84.5z"/>
		<path class="st9" d="M71.1,84.5c-0.5,0-1,0-1.5,0c0-0.3,0-0.6,0-0.8c0.5,0,1,0,1.5,0C71.1,83.9,71.1,84.2,71.1,84.5z"/>
		<path class="st9" d="M54.1,84.5c-0.5,0-1,0-1.5,0c0-0.3,0-0.6,0-0.8c0.5,0,1,0,1.5,0C54.1,83.9,54.1,84.2,54.1,84.5z"/>
		<path class="st9" d="M67.4,83.7c0.5,0,1,0,1.5,0c0,0.3,0,0.6,0,0.8c-0.5,0-1,0-1.5,0C67.4,84.2,67.4,84,67.4,83.7z"/>
		<path class="st9" d="M48.3,84.5c0-0.3,0-0.5,0-0.8c0.5,0,1,0,1.5,0c0,0.3,0,0.5,0,0.8C49.3,84.5,48.8,84.5,48.3,84.5z"/>
		<path class="st9" d="M44,83.7c0.5,0,1,0,1.5,0c0,0.3,0,0.6,0,0.8c-0.5,0-1,0-1.5,0C44,84.2,44,84,44,83.7z"/>
		<path class="st9" d="M60.4,83.7c0,0.3,0,0.6,0,0.8c-0.5,0-1,0-1.5,0c0-0.3,0-0.6,0-0.8C59.4,83.7,59.9,83.7,60.4,83.7z"/>
		<path class="st9" d="M80.1,84.5c-0.5,0-1,0-1.5,0c0-0.3,0-0.6,0-0.8c0.5,0,1,0,1.5,0C80.1,83.9,80.1,84.2,80.1,84.5z"/>
		<path class="st9" d="M75.8,84.5c-0.5,0-1,0-1.5,0c0-0.3,0-0.6,0-0.8c0.5,0,1,0,1.5,0C75.8,83.9,75.8,84.2,75.8,84.5z"/>
		<path class="st9" d="M56.2,83.7c0,0.3,0,0.6,0,0.8c-0.5,0-1,0-1.5,0c0-0.3,0-0.6,0-0.8C55.2,83.7,55.7,83.7,56.2,83.7z"/>
		<path class="st9" d="M51.9,84.5c-0.5,0-1,0-1.5,0c0-0.3,0-0.5,0-0.8c0.5,0,1,0,1.5,0C51.9,83.9,51.9,84.2,51.9,84.5z"/>
		<path class="st9" d="M41.9,84.5c0-0.3,0-0.6,0-0.8c0.5,0,1,0,1.5,0c0,0.3,0,0.6,0,0.8C42.9,84.5,42.4,84.5,41.9,84.5z"/>
		<path class="st9" d="M47.7,83.7c0,0.3,0,0.6,0,0.8c-0.5,0-1,0-1.5,0c0-0.3,0-0.6,0-0.8C46.7,83.7,47.2,83.7,47.7,83.7z"/>
	</g>
</g>
</svg>
