<?xml version="1.0" encoding="utf-8"?>
<!-- Generator: Adobe Illustrator 19.0.0, SVG Export Plug-In . SVG Version: 6.00 Build 0)  -->
<svg version="1.1" xmlns="http://www.w3.org/2000/svg" xmlns:xlink="http://www.w3.org/1999/xlink" x="0px" y="0px"
	 viewBox="0 0 128 128" style="enable-background:new 0 0 128 128;" xml:space="preserve">
<style type="text/css">
	.st0{fill:none;stroke:#CCEBF8;stroke-width:4;stroke-miterlimit:10;}
	.st1{fill:#FAA93B;}
	.st2{fill:#FFFFFF;}
	.st3{fill:#FF4F19;}
	.st4{fill:#5C546A;}
	.st5{fill:#B9BBC1;}
	.st6{fill:#FFD200;}
	.st7{fill:#53DCFF;}
	.st8{fill:#E9001E;}
	.st9{fill:#8B8996;}
</style>
<g id="Layer_1">
	<circle id="XMLID_1_" class="st0" cx="64" cy="64" r="62"/>
</g>
<g id="Layer_2">
	<circle id="XMLID_2_" class="st1" cx="64" cy="64" r="52.5"/>
</g>
<g id="Layer_3">
	<g id="XMLID_41_">
		<rect id="XMLID_39_" x="34.3" y="42.8" class="st2" width="59.5" height="36.6"/>
		<rect id="XMLID_38_" x="34.3" y="42.8" class="st3" width="59.5" height="9.2"/>
		<path id="XMLID_90_" class="st4" d="M93,38.3H35c-2.9,0-5.3,2.4-5.3,5.3v41.6c0,0.6,0.5,1.1,1.1,1.1h66.3c0.6,0,1.1-0.5,1.1-1.1
			V43.5C98.3,40.6,96,38.3,93,38.3L93,38.3z M34.3,78.3V44c0-0.6,0.5-1.1,1.1-1.1h57.2c0.6,0,1.1,0.5,1.1,1.1v34.3
			c0,0.6-0.5,1.1-1.1,1.1H35.4C34.8,79.4,34.3,78.9,34.3,78.3L34.3,78.3z M34.3,78.3"/>
		<path id="XMLID_87_" class="st5" d="M99.5,84H28.5c-0.6,0-1.1,0.5-1.1,1.1c0,2.5,2.1,4.6,4.6,4.6H96c2.5,0,4.6-2.1,4.6-4.6
			C100.6,84.5,100.1,84,99.5,84L99.5,84z M99.5,84"/>
		<path id="XMLID_84_" class="st6" d="M48,48.6h-8c-0.6,0-1.1-0.5-1.1-1.1c0-0.6,0.5-1.1,1.1-1.1h8c0.6,0,1.1,0.5,1.1,1.1
			C49.1,48,48.6,48.6,48,48.6L48,48.6z M48,48.6"/>
		<path id="XMLID_81_" class="st2" d="M68.6,48.6h-1.1c-0.6,0-1.1-0.5-1.1-1.1c0-0.6,0.5-1.1,1.1-1.1h1.1c0.6,0,1.1,0.5,1.1,1.1
			C69.7,48,69.2,48.6,68.6,48.6L68.6,48.6z M68.6,48.6"/>
		<path id="XMLID_78_" class="st2" d="M74.3,48.6h-1.1c-0.6,0-1.1-0.5-1.1-1.1c0-0.6,0.5-1.1,1.1-1.1h1.1c0.6,0,1.1,0.5,1.1,1.1
			C75.4,48,74.9,48.6,74.3,48.6L74.3,48.6z M74.3,48.6"/>
		<path id="XMLID_75_" class="st2" d="M80,48.6h-1.1c-0.6,0-1.1-0.5-1.1-1.1c0-0.6,0.5-1.1,1.1-1.1H80c0.6,0,1.1,0.5,1.1,1.1
			C81.2,48,80.6,48.6,80,48.6L80,48.6z M80,48.6"/>
		<path id="XMLID_72_" class="st2" d="M85.7,48.6h-1.1c-0.6,0-1.1-0.5-1.1-1.1c0-0.6,0.5-1.1,1.1-1.1h1.1c0.6,0,1.1,0.5,1.1,1.1
			C86.9,48,86.4,48.6,85.7,48.6L85.7,48.6z M85.7,48.6"/>
		<path id="XMLID_69_" class="st7" d="M59.4,76H40c-0.6,0-1.1-0.5-1.1-1.1V56.6c0-0.6,0.5-1.1,1.1-1.1h19.4c0.6,0,1.1,0.5,1.1,1.1
			v18.3C60.6,75.5,60.1,76,59.4,76L59.4,76z M59.4,76"/>
		<path id="XMLID_66_" class="st3" d="M86.9,57.7H65.1c-0.6,0-1.1-0.5-1.1-1.1c0-0.6,0.5-1.1,1.1-1.1h21.7c0.6,0,1.1,0.5,1.1,1.1
			C88,57.2,87.5,57.7,86.9,57.7L86.9,57.7z M86.9,57.7"/>
		<path id="XMLID_63_" class="st5" d="M74.3,66.9h-9.2c-0.6,0-1.1-0.5-1.1-1.1c0-0.6,0.5-1.1,1.1-1.1h9.2c0.6,0,1.1,0.5,1.1,1.1
			C75.4,66.3,74.9,66.9,74.3,66.9L74.3,66.9z M74.3,66.9"/>
		<path id="XMLID_60_" class="st5" d="M74.3,71.4h-9.2c-0.6,0-1.1-0.5-1.1-1.1c0-0.6,0.5-1.1,1.1-1.1h9.2c0.6,0,1.1,0.5,1.1,1.1
			C75.4,70.9,74.9,71.4,74.3,71.4L74.3,71.4z M74.3,71.4"/>
		<path id="XMLID_57_" class="st5" d="M74.3,76h-9.2c-0.6,0-1.1-0.5-1.1-1.1c0-0.6,0.5-1.1,1.1-1.1h9.2c0.6,0,1.1,0.5,1.1,1.1
			C75.4,75.5,74.9,76,74.3,76L74.3,76z M74.3,76"/>
		<path id="XMLID_54_" class="st5" d="M88,66.9h-9.2c-0.6,0-1.1-0.5-1.1-1.1c0-0.6,0.5-1.1,1.1-1.1H88c0.6,0,1.1,0.5,1.1,1.1
			C89.2,66.3,88.7,66.9,88,66.9L88,66.9z M88,66.9"/>
		<path id="XMLID_51_" class="st5" d="M88,71.4h-9.2c-0.6,0-1.1-0.5-1.1-1.1c0-0.6,0.5-1.1,1.1-1.1H88c0.6,0,1.1,0.5,1.1,1.1
			C89.2,70.9,88.7,71.4,88,71.4L88,71.4z M88,71.4"/>
		<path id="XMLID_48_" class="st5" d="M88,76h-9.2c-0.6,0-1.1-0.5-1.1-1.1c0-0.6,0.5-1.1,1.1-1.1H88c0.6,0,1.1,0.5,1.1,1.1
			C89.2,75.5,88.7,76,88,76L88,76z M88,76"/>
		<path id="XMLID_45_" class="st8" d="M80,62.3H65.1c-0.6,0-1.1-0.5-1.1-1.1s0.5-1.1,1.1-1.1H80c0.6,0,1.1,0.5,1.1,1.1
			S80.6,62.3,80,62.3L80,62.3z M80,62.3"/>
		<path id="XMLID_42_" class="st9" d="M59.4,86.3h9.2c1.3,0,2.3-1,2.3-2.3H57.1C57.1,85.3,58.2,86.3,59.4,86.3L59.4,86.3z
			 M59.4,86.3"/>
	</g>
</g>
</svg>
