<?xml version="1.0" encoding="utf-8"?>
<!-- Generator: Adobe Illustrator 19.0.0, SVG Export Plug-In . SVG Version: 6.00 Build 0)  -->
<svg version="1.1" id="Layer_1" xmlns="http://www.w3.org/2000/svg" xmlns:xlink="http://www.w3.org/1999/xlink" x="0px" y="0px"
	 viewBox="-10 12 128 128" style="enable-background:new -10 12 128 128;" xml:space="preserve">
<style type="text/css">
	.st0{fill:none;stroke:#CCEBF8;stroke-width:4;stroke-miterlimit:10;}
	.st1{fill:#80397B;}
	.st2{fill:#C6C9CC;}
	.st3{fill:#8B8996;}
	.st4{fill:#B9BBC1;}
	.st5{fill:#D8DCE1;}
	.st6{fill:none;stroke:#3A6BA5;stroke-width:0.75;stroke-miterlimit:10;}
	.st7{fill:none;stroke:#3A6BA5;stroke-width:0.25;stroke-miterlimit:10;}
	.st8{fill:#3A6BA5;}
	.st9{font-family:'MyriadPro-Bold';}
	.st10{font-size:2.5167px;}
	.st11{font-size:2.3604px;}
</style>
<g id="Layer_1_1_">
	<circle id="XMLID_1_" class="st0" cx="54" cy="76" r="62"/>
</g>
<g id="Layer_2">
	<circle id="XMLID_2_" class="st1" cx="54" cy="76" r="52.5"/>
</g>
<path class="st2" d="M82.6,45.6H44.9c-0.9,0-1.7,0.8-1.7,1.7v49c0,1,0.8,1.8,1.7,1.8h37.7c0.9,0,1.7-0.8,1.7-1.8v-49
	C84.3,46.4,83.5,45.6,82.6,45.6L82.6,45.6z M82.6,45.6"/>
<path class="st3" d="M81,63.8H52.1c-0.5,0-0.9-0.4-0.9-0.8c0-0.5,0.4-0.8,0.9-0.8H81c0.5,0,0.9,0.4,0.9,0.8
	C81.9,63.5,81.5,63.8,81,63.8L81,63.8z M81,63.8"/>
<path class="st4" d="M81,76.9H52.1c-0.5,0-0.9-0.4-0.9-0.8c0-0.5,0.4-0.8,0.9-0.8H81c0.5,0,0.9,0.4,0.9,0.8
	C81.9,76.6,81.5,76.9,81,76.9L81,76.9z M81,76.9"/>
<path class="st4" d="M81,80.9H52.1c-0.5,0-0.9-0.4-0.9-0.8c0-0.5,0.4-0.8,0.9-0.8H81c0.5,0,0.9,0.4,0.9,0.8
	C81.9,80.6,81.5,80.9,81,80.9L81,80.9z M81,80.9"/>
<path class="st3" d="M59.3,70.2h-7.2c-0.5,0-0.9-0.4-0.9-0.8c0-0.5,0.4-0.8,0.9-0.8h7.2c0.5,0,0.9,0.4,0.9,0.8
	C60.3,69.8,59.8,70.2,59.3,70.2L59.3,70.2z M59.3,70.2"/>
<path class="st4" d="M81,68.2H63c-0.5,0-0.9-0.4-0.9-0.8c0-0.5,0.4-0.8,0.9-0.8h18c0.5,0,0.9,0.4,0.9,0.8
	C81.9,67.8,81.5,68.2,81,68.2L81,68.2z M81,68.2"/>
<path class="st4" d="M73.8,72.6H52.1c-0.5,0-0.9-0.4-0.9-0.8c0-0.5,0.4-0.8,0.9-0.8h21.7c0.5,0,0.9,0.4,0.9,0.8
	C74.7,72.2,74.3,72.6,73.8,72.6L73.8,72.6z M73.8,72.6"/>
<path class="st4" d="M81,72.6h-3.6c-0.5,0-0.9-0.4-0.9-0.8c0-0.5,0.4-0.8,0.9-0.8H81c0.5,0,0.9,0.4,0.9,0.8
	C81.9,72.2,81.5,72.6,81,72.6L81,72.6z M81,72.6"/>
<path class="st3" d="M71.1,59.5H52.1c-0.5,0-0.9-0.4-0.9-0.8c0-0.5,0.4-0.8,0.9-0.8h18.9c0.5,0,0.9,0.4,0.9,0.8
	C72,59.1,71.6,59.5,71.1,59.5L71.1,59.5z M71.1,59.5"/>
<path class="st3" d="M81,59.5h-6.3c-0.5,0-0.9-0.4-0.9-0.8c0-0.5,0.4-0.8,0.9-0.8H81c0.5,0,0.9,0.4,0.9,0.8
	C81.9,59.1,81.5,59.5,81,59.5L81,59.5z M81,59.5"/>
<path class="st5" d="M67.8,51.6H30.1c-0.9,0-1.7,0.8-1.7,1.7v48.3c0,1,0.8,1.7,1.7,1.7h37.7c0.9,0,1.7-0.8,1.7-1.7V53.3
	C69.5,52.4,68.7,51.6,67.8,51.6L67.8,51.6z M67.8,51.6"/>
<path class="st3" d="M64,68.7H35.1c-0.5,0-0.9-0.4-0.9-0.8c0-0.5,0.4-0.8,0.9-0.8H64c0.5,0,0.9,0.4,0.9,0.8
	C64.9,68.3,64.5,68.7,64,68.7L64,68.7z M64,68.7"/>
<path class="st4" d="M64,94.3H35.1c-0.5,0-0.9-0.4-0.9-0.8c0-0.5,0.4-0.8,0.9-0.8H64c0.5,0,0.9,0.4,0.9,0.8
	C64.9,93.9,64.5,94.3,64,94.3L64,94.3z M64,94.3"/>
<path class="st3" d="M64,81.8H35.1c-0.5,0-0.9-0.4-0.9-0.8c0-0.5,0.4-0.8,0.9-0.8H64c0.5,0,0.9,0.4,0.9,0.8
	C64.9,81.5,64.5,81.8,64,81.8L64,81.8z M64,81.8"/>
<path class="st3" d="M56.8,64.4H35.1c-0.5,0-0.9-0.4-0.9-0.8c0-0.5,0.4-0.8,0.9-0.8h21.7c0.5,0,0.9,0.4,0.9,0.8
	C57.7,64,57.3,64.4,56.8,64.4L56.8,64.4z M56.8,64.4"/>
<path class="st3" d="M64,64.4h-3.6c-0.5,0-0.9-0.4-0.9-0.8c0-0.5,0.4-0.8,0.9-0.8H64c0.5,0,0.9,0.4,0.9,0.8
	C64.9,64,64.5,64.4,64,64.4L64,64.4z M64,64.4"/>
<path class="st3" d="M42.3,86.2h-7.2c-0.5,0-0.9-0.4-0.9-0.8c0-0.5,0.4-0.8,0.9-0.8h7.2c0.5,0,0.9,0.4,0.9,0.8
	C43.3,85.8,42.8,86.2,42.3,86.2L42.3,86.2z M42.3,86.2"/>
<path class="st4" d="M64,86.2H46c-0.5,0-0.9-0.4-0.9-0.8c0-0.5,0.4-0.8,0.9-0.8h18c0.5,0,0.9,0.4,0.9,0.8
	C64.9,85.8,64.5,86.2,64,86.2L64,86.2z M64,86.2"/>
<path class="st4" d="M56.8,90.6H35.1c-0.5,0-0.9-0.4-0.9-0.8c0-0.5,0.4-0.8,0.9-0.8h21.7c0.5,0,0.9,0.4,0.9,0.8
	C57.7,90.2,57.3,90.6,56.8,90.6L56.8,90.6z M56.8,90.6"/>
<path class="st4" d="M64,90.6h-3.6c-0.5,0-0.9-0.4-0.9-0.8c0-0.5,0.4-0.8,0.9-0.8H64c0.5,0,0.9,0.4,0.9,0.8
	C64.9,90.2,64.5,90.6,64,90.6L64,90.6z M64,90.6"/>
<path class="st3" d="M46.9,73.1H35.1c-0.5,0-0.9-0.4-0.9-0.8s0.4-0.8,0.9-0.8h11.7c0.5,0,0.9,0.4,0.9,0.8S47.4,73.1,46.9,73.1
	L46.9,73.1z M46.9,73.1"/>
<path class="st3" d="M64,73.1H50.5c-0.5,0-0.9-0.4-0.9-0.8s0.4-0.8,0.9-0.8H64c0.5,0,0.9,0.4,0.9,0.8S64.5,73.1,64,73.1L64,73.1z
	 M64,73.1"/>
<path class="st3" d="M54.1,77.5H35.1c-0.5,0-0.9-0.4-0.9-0.8c0-0.5,0.4-0.8,0.9-0.8h18.9c0.5,0,0.9,0.4,0.9,0.8
	C55,77.1,54.6,77.5,54.1,77.5L54.1,77.5z M54.1,77.5"/>
<path class="st3" d="M64,77.5h-6.3c-0.5,0-0.9-0.4-0.9-0.8c0-0.5,0.4-0.8,0.9-0.8H64c0.5,0,0.9,0.4,0.9,0.8
	C64.9,77.1,64.5,77.5,64,77.5L64,77.5z M64,77.5"/>
<circle class="st6" cx="61.7" cy="95.3" r="5.2"/>
<circle class="st7" cx="61.6" cy="95.4" r="3.3"/>
<circle class="st7" cx="61.6" cy="95.4" r="2.3"/>
<circle class="st6" cx="76.3" cy="87.7" r="4.7"/>
<circle class="st7" cx="76.2" cy="87.9" r="3.1"/>
<circle class="st7" cx="76.2" cy="87.9" r="2.1"/>
<text transform="matrix(0.9059 -0.4697 0.4603 0.8878 60.3223 97.2247)" class="st8 st9 st10">MD</text>
<text transform="matrix(0.9059 -0.4697 0.4603 0.8878 74.8588 89.4478)" class="st8 st9 st11">MD</text>
</svg>
