<?xml version="1.0" encoding="utf-8"?>
<!-- Generator: Adobe Illustrator 19.0.0, SVG Export Plug-In . SVG Version: 6.00 Build 0)  -->
<svg version="1.1" id="Layer_1" xmlns="http://www.w3.org/2000/svg" xmlns:xlink="http://www.w3.org/1999/xlink" x="0px" y="0px"
	 viewBox="-10 12 128 128" style="enable-background:new -10 12 128 128;" xml:space="preserve">
<style type="text/css">
	.st0{fill:none;stroke:#CCEBF8;stroke-width:4;stroke-miterlimit:10;}
	.st1{fill:#FAA93B;}
	.st2{fill:#6DA8D6;}
	.st3{fill:#F2EBD9;}
	.st4{fill:#BA8E4F;}
	.st5{fill:#F2484B;}
	.st6{fill:#B2751B;}
	.st7{fill:#FFFFFF;}
	.st8{fill:#FF6E1D;}
</style>
<g id="Layer_1_1_">
	<circle id="XMLID_1_" class="st0" cx="54" cy="76" r="62"/>
</g>
<g id="Layer_2">
	<circle id="XMLID_2_" class="st1" cx="54" cy="76" r="52.5"/>
</g>
<g id="Layer_3">
	<g id="XMLID_34_">
		<rect id="XMLID_32_" x="69.6" y="101.6" class="st2" width="2.9" height="4.4"/>
		<path id="XMLID_70_" class="st3" d="M34.3,101.6l-5.1,2.2l5.1,2.2V101.6z"/>
		<rect id="XMLID_29_" x="34.3" y="101.6" class="st4" width="35.6" height="4.4"/>
		<path id="XMLID_66_" class="st5" d="M74.9,101.6h-2.5v4.4h2.5c0.4,0,0.8-0.4,0.8-0.8v-2.8C75.8,101.8,75.3,101.6,74.9,101.6
			L74.9,101.6z"/>
		<path id="XMLID_56_" class="st6" d="M72.1,84.7v11.8l11.6-11.8H72.1z"/>
		<path id="XMLID_53_" class="st3" d="M71.6,92.1h-2c0,0.6-0.5,1.1-1,1.1H28.8c-0.6,0-1-0.5-1-1V56.4c0-0.6,0.5-1,1-1h4
			c0.6,0,1,0.5,1,1h2c0-0.6,0.5-1,1-1h42.5c0.6,0,1,0.5,1,1v24.9c0,0.6-0.5,1.1-1,1.1v2l4.4,0V52.1H24.4v44.5h47.2V92.1z"/>
		<rect id="XMLID_16_" x="29.8" y="66.1" class="st7" width="14.8" height="25"/>
		<rect id="XMLID_15_" x="46.7" y="66.1" class="st7" width="14.8" height="25"/>
		<path id="XMLID_48_" class="st7" d="M78.4,81.4V66.1H63.5v25h5.1c0.6,0,1,0.5,1,1h2v-6.7c0-0.6,0.5-1,1-1h6.7v-2
			C78.8,82.4,78.4,81.9,78.4,81.4L78.4,81.4z"/>
		<path id="XMLID_40_" class="st8" d="M32.9,57.5h-3v6.6h48.5v-6.6H36.9c-0.6,0-1-0.5-1-1h-2C33.9,57,33.4,57.5,32.9,57.5L32.9,57.5
			z"/>
	</g>
</g>
</svg>
