<?xml version="1.0" encoding="utf-8"?>
<!-- Generator: Adobe Illustrator 19.0.0, SVG Export Plug-In . SVG Version: 6.00 Build 0)  -->
<svg version="1.1" id="Layer_1" xmlns="http://www.w3.org/2000/svg" xmlns:xlink="http://www.w3.org/1999/xlink" x="0px" y="0px"
	 viewBox="-10 12 128 128" style="enable-background:new -10 12 128 128;" xml:space="preserve">
<style type="text/css">
	.st0{fill:none;stroke:#CCEBF8;stroke-width:4;stroke-miterlimit:10;}
	.st1{fill:#80397B;}
	.st2{fill:#E5E3E1;}
	.st3{fill:#005CB9;}
	.st4{fill:#61B4E4;}
	.st5{fill:#DBDBDB;}
	.st6{fill:#488EAA;}
	.st7{fill:#FFFFFF;}
	.st8{fill:#A9C1D3;}
	.st9{fill:#DAE5E5;}
</style>
<g id="Layer_1_1_">
	<circle id="XMLID_1_" class="st0" cx="54" cy="76" r="62"/>
</g>
<g id="Layer_2">
	<circle id="XMLID_2_" class="st1" cx="54" cy="76" r="52.5"/>
</g>
<g id="Layer_3">
	<g id="XMLID_44_">
		<path id="XMLID_98_" class="st2" d="M75.6,99c-0.8,0-1.4-0.6-1.4-1.4s0.6-1.4,1.4-1.4c4.5,0,8.2-3.7,8.2-8.2s-3.7-8.2-8.2-8.2
			c-0.8,0-1.4-0.6-1.4-1.4s0.6-1.4,1.4-1.4c6.1,0,11.1,5,11.1,11.1C86.7,94.1,81.8,99,75.6,99L75.6,99z"/>
		<path id="XMLID_95_" class="st2" d="M30.6,79.7c-6.1,0-11.1-5-11.1-11.1s5-11.1,11.1-11.1c0.8,0,1.4,0.6,1.4,1.4
			c0,0.8-0.6,1.4-1.4,1.4c-4.5,0-8.2,3.7-8.2,8.2s3.7,8.2,8.2,8.2c0.8,0,1.4,0.6,1.4,1.4C32,79.1,31.3,79.7,30.6,79.7L30.6,79.7z"/>
		<path id="XMLID_92_" class="st3" d="M79.7,78.3c0,14.7-11.9,26.6-26.6,26.6S26.5,93,26.5,78.3s11.9-26.6,26.6-26.6
			C67.8,51.7,79.7,63.6,79.7,78.3L79.7,78.3z"/>
		<path id="XMLID_81_" class="st4" d="M79.6,79.8c0-0.5,0-1,0-1.5c0-0.4,0-0.8,0-1.3H69.3c-0.2-3.7-0.9-7.2-2.3-10.6h9.8
			c-0.5-1-1-1.9-1.6-2.8h-9.5c-0.6-1.2-1.3-2.4-2.1-3.5c-2.2-3.2-5-6.2-7.9-8.3c-0.9-0.1-1.8-0.1-2.7-0.1s-1.8,0-2.7,0.1
			c-2.9,2.1-5.7,5.1-7.9,8.3c-0.8,1.1-1.5,2.3-2.1,3.5h-9.5c-0.6,0.9-1.1,1.8-1.6,2.8H39c-1.4,3.4-2.1,7-2.3,10.6H26.5
			c0,0.4,0,0.8,0,1.3s0,1,0,1.5h10.3c0.2,3.7,0.9,7.2,2.3,10.6h-9.7c0.5,1,1.1,1.9,1.7,2.8h9.3c0.6,1.2,1.3,2.4,2.1,3.5
			c2.1,3,4.7,5.9,7.5,8c1,0.1,2.1,0.2,3.1,0.2c1.1,0,2.1-0.1,3.1-0.2c2.7-2.1,5.4-4.9,7.5-8c0.8-1.1,1.5-2.3,2.1-3.5h9.3
			c0.6-0.9,1.2-1.8,1.7-2.8H67c1.4-3.4,2.1-7,2.3-10.6H79.6z M51.7,102.5c-1.8-1.4-4.5-3.8-6.9-7.3c-0.4-0.6-0.8-1.3-1.2-1.9h8.1
			C51.7,93.3,51.7,102.5,51.7,102.5z M51.7,90.4h-9.5c-1.5-3.4-2.4-6.9-2.5-10.6h12.1v10.6H51.7z M51.7,77h-12
			c0.2-3.7,1-7.3,2.5-10.6h9.5V77z M51.7,63.6h-8.1c0.4-0.7,0.8-1.3,1.2-1.9c2.4-3.5,5-5.9,6.9-7.3V63.6z M54.5,54.3
			c1.8,1.4,4.5,3.8,6.9,7.3c0.4,0.6,0.8,1.3,1.2,1.9h-8.1V54.3z M61.4,95.2c-2.4,3.5-5,5.9-6.9,7.3v-9.3h8.1
			C62.2,93.9,61.8,94.5,61.4,95.2L61.4,95.2z M64,90.4h-9.5V79.8h12.1C66.4,83.5,65.5,87.1,64,90.4L64,90.4z M54.5,77V66.4H64
			c1.5,3.4,2.4,6.9,2.5,10.6H54.5z"/>
		<path id="XMLID_78_" class="st2" d="M76.8,60.4H30.6c-0.8,0-1.4-0.6-1.4-1.4c0-0.8,0.6-1.4,1.4-1.4h46.3c0.8,0,1.4,0.6,1.4,1.4
			C78.3,59.7,77.6,60.4,76.8,60.4L76.8,60.4z"/>
		<path id="XMLID_75_" class="st2" d="M75.6,99H29.4c-0.8,0-1.4-0.6-1.4-1.4s0.6-1.4,1.4-1.4h46.3c0.8,0,1.4,0.6,1.4,1.4
			S76.4,99,75.6,99L75.6,99z"/>
		<path id="XMLID_72_" class="st5" d="M78,43.1c-6.9,0-12.6,5.6-12.6,12.6c0,3.1,1.1,6,3,8.2c-0.6,1.6-1.6,3-3,4.1
			c0.9,0.3,1.8,0.5,2.8,0.5c1.7,0,3.2-0.5,4.5-1.3c1.6,0.7,3.4,1.1,5.2,1.1c6.9,0,12.6-5.6,12.6-12.6C90.6,48.7,84.9,43.1,78,43.1
			L78,43.1z"/>
		<path id="XMLID_57_" class="st5" d="M30,83.6c6.9,0,12.6,5.6,12.6,12.6c0,3.1-1.1,6-3,8.2c0.6,1.6,1.6,3,3,4.1
			c-0.9,0.3-1.8,0.5-2.8,0.5c-1.7,0-3.2-0.5-4.5-1.3c-1.6,0.7-3.4,1.1-5.2,1.1c-6.9,0-12.6-5.6-12.6-12.6
			C17.4,89.2,23.1,83.6,30,83.6L30,83.6z"/>
	</g>
</g>
<g>
	<path class="st6" d="M80.7,49.2h-5.4c-0.5,0-0.9,0.4-0.9,0.9v11c0,0.5,0.4,0.9,0.9,0.9h5.4c0.5,0,0.9-0.4,0.9-0.9v-11
		C81.6,49.6,81.2,49.2,80.7,49.2z"/>
	<rect x="75" y="50.8" class="st7" width="5.9" height="8.9"/>
	<polygon class="st8" points="79.2,50.1 76.7,50.1 76.7,49.9 79.2,49.9 79.2,50.1 	"/>
	<circle class="st8" cx="80" cy="50" r="0.2"/>
	<rect x="76.8" y="60.4" class="st8" width="2.3" height="0.7"/>
</g>
<rect x="75.4" y="51.4" class="st9" width="5.1" height="7.9"/>
<g>
	<path class="st6" d="M36.3,91.5H23.5c-0.2,0-0.3,0.1-0.3,0.3v8.8c0,0.2,0.1,0.3,0.3,0.3h12.8c0.2,0,0.3-0.2,0.3-0.3v-8.8
		C36.6,91.6,36.5,91.5,36.3,91.5z"/>
	<path class="st7" d="M36,99.8c0,0.2-0.2,0.2-0.4,0.2H24.2c-0.2,0-0.2,0-0.2-0.2v-7.3c0-0.2,0.1-0.5,0.2-0.5h11.4
		c0.2,0,0.4,0.3,0.4,0.5V99.8z"/>
	<path class="st6" d="M38,101.9c0,0.1-0.1,0.1-0.1,0.1H22.1c-0.1,0-0.1-0.1-0.1-0.1v-0.7c0-0.1,0.1-0.1,0.1-0.1h15.7
		c0.1,0,0.1,0.1,0.1,0.1V101.9z"/>
</g>
</svg>
