<?xml version="1.0" encoding="utf-8"?>
<!-- Generator: Adobe Illustrator 19.0.0, SVG Export Plug-In . SVG Version: 6.00 Build 0)  -->
<svg version="1.1" xmlns="http://www.w3.org/2000/svg" xmlns:xlink="http://www.w3.org/1999/xlink" x="0px" y="0px"
	 viewBox="0 0 128 128" style="enable-background:new 0 0 128 128;" xml:space="preserve">
<style type="text/css">
	.st0{fill:none;stroke:#CCEBF8;stroke-width:4;stroke-miterlimit:10;}
	.st1{fill:#FAA93B;}
	.st2{fill:#61B4E4;}
	.st3{fill:#005CB9;}
	.st4{clip-path:url(#XMLID_39_);fill:#1E252B;}
	.st5{clip-path:url(#XMLID_39_);fill:#C3C6C8;}
	.st6{fill:#333E48;}
	.st7{fill:#FEE050;}
	.st8{fill:#AF8400;}
	.st9{fill:#1E252B;}
	.st10{fill:#E8E8E8;}
</style>
<g id="Layer_1">
	<circle id="XMLID_1_" class="st0" cx="64" cy="64" r="62"/>
</g>
<g id="Layer_2">
	<circle id="XMLID_2_" class="st1" cx="64" cy="64" r="52.5"/>
</g>
<g id="Layer_3">
	<g id="XMLID_37_">
		<path id="XMLID_85_" class="st2" d="M106.7,76.3c0,10.3-8.3,18.6-18.6,18.6s-18.6-8.3-18.6-18.6c0-10.3,8.3-18.6,18.6-18.6
			S106.7,66,106.7,76.3L106.7,76.3z M106.7,76.3"/>
		<path id="XMLID_82_" class="st3" d="M69.6,76.3c0,4,1.3,7.7,3.4,10.7c3.6-2.2,6-6.2,6-10.7H69.6z M69.6,76.3"/>
		<g id="XMLID_74_">
			<defs>
				<rect id="XMLID_27_" x="21.2" y="32.9" width="85.6" height="62.2"/>
			</defs>
			<clipPath id="XMLID_39_">
				<use xlink:href="#XMLID_27_"  style="overflow:visible;"/>
			</clipPath>
			<path id="XMLID_79_" class="st4" d="M82.7,72.4c0,1.2-1,2.2-2.2,2.2c-1.2,0-2.2-1-2.2-2.2c0-1.2,1-2.2,2.2-2.2
				C81.7,70.2,82.7,71.2,82.7,72.4L82.7,72.4z M82.7,72.4"/>
			<path id="XMLID_76_" class="st5" d="M83,51.7c1.7-2,2.8-4.6,2.8-7.4c0-6.3-5.1-11.4-11.4-11.4S63,38,63,44.3s5.1,11.4,11.4,11.4
				c1.7,0,3.3-0.4,4.8-1c1.2,0.7,2.6,1.2,4.1,1.2c0.9,0,1.7-0.1,2.5-0.4C84.5,54.5,83.5,53.2,83,51.7L83,51.7z M83,51.7"/>
		</g>
		<path id="XMLID_71_" class="st6" d="M70.3,40.3h8.2c0.4,0,0.7-0.3,0.7-0.7c0-0.4-0.3-0.7-0.7-0.7h-8.2c-0.4,0-0.7,0.3-0.7,0.7
			C69.6,40,69.9,40.3,70.3,40.3L70.3,40.3z M70.3,40.3"/>
		<path id="XMLID_68_" class="st6" d="M67.8,43.4h13.1c0.4,0,0.7-0.3,0.7-0.7c0-0.4-0.3-0.7-0.7-0.7H67.8c-0.4,0-0.7,0.3-0.7,0.7
			C67.2,43.1,67.4,43.4,67.8,43.4L67.8,43.4z M67.8,43.4"/>
		<path id="XMLID_65_" class="st6" d="M69.1,46.5h10.6c0.4,0,0.7-0.3,0.7-0.7c0-0.4-0.3-0.7-0.7-0.7H69.1c-0.4,0-0.7,0.3-0.7,0.7
			C68.4,46.2,68.7,46.5,69.1,46.5L69.1,46.5z M69.1,46.5"/>
		<path id="XMLID_62_" class="st6" d="M70.3,49.6h8.2c0.4,0,0.7-0.3,0.7-0.7c0-0.4-0.3-0.7-0.7-0.7h-8.2c-0.4,0-0.7,0.3-0.7,0.7
			C69.6,49.3,69.9,49.6,70.3,49.6L70.3,49.6z M70.3,49.6"/>
		<path id="XMLID_59_" class="st7" d="M58.3,76.3c0,10.3-8.3,18.6-18.6,18.6c-10.3,0-18.6-8.3-18.6-18.6c0-10.3,8.3-18.6,18.6-18.6
			C50,57.7,58.3,66,58.3,76.3L58.3,76.3z M58.3,76.3"/>
		<path id="XMLID_56_" class="st8" d="M58.3,76.3c0,4-1.3,7.7-3.4,10.7c-3.6-2.2-6-6.2-6-10.7H58.3z M58.3,76.3"/>
		<path id="XMLID_53_" class="st9" d="M49.6,72.4c0,1.2-1,2.2-2.2,2.2c-1.2,0-2.2-1-2.2-2.2c0-1.2,1-2.2,2.2-2.2
			C48.6,70.2,49.6,71.2,49.6,72.4L49.6,72.4z M49.6,72.4"/>
		<path id="XMLID_50_" class="st10" d="M56.2,34.2c-6.3,0-11.4,5.1-11.4,11.4c0,2.8,1,5.4,2.8,7.4c-0.5,1.5-1.5,2.8-2.7,3.7
			c0.8,0.3,1.6,0.4,2.5,0.4c1.5,0,2.9-0.4,4.1-1.2c1.5,0.7,3.1,1,4.8,1c6.3,0,11.4-5.1,11.4-11.4C67.6,39.3,62.5,34.2,56.2,34.2
			L56.2,34.2z M56.2,34.2"/>
		<path id="XMLID_47_" class="st6" d="M60.2,41.6h-8.2c-0.4,0-0.7-0.3-0.7-0.7c0-0.4,0.3-0.7,0.7-0.7h8.2c0.4,0,0.7,0.3,0.7,0.7
			C60.9,41.3,60.6,41.6,60.2,41.6L60.2,41.6z M60.2,41.6"/>
		<path id="XMLID_44_" class="st6" d="M62.7,44.7H49.6c-0.4,0-0.7-0.3-0.7-0.7c0-0.4,0.3-0.7,0.7-0.7h13.1c0.4,0,0.7,0.3,0.7,0.7
			C63.4,44.4,63.1,44.7,62.7,44.7L62.7,44.7z M62.7,44.7"/>
		<path id="XMLID_41_" class="st6" d="M61.4,47.8H50.9c-0.4,0-0.7-0.3-0.7-0.7c0-0.4,0.3-0.7,0.7-0.7h10.6c0.4,0,0.7,0.3,0.7,0.7
			C62.1,47.5,61.8,47.8,61.4,47.8L61.4,47.8z M61.4,47.8"/>
		<path id="XMLID_38_" class="st6" d="M60.2,50.9h-8.2c-0.4,0-0.7-0.3-0.7-0.7c0-0.4,0.3-0.7,0.7-0.7h8.2c0.4,0,0.7,0.3,0.7,0.7
			C60.9,50.6,60.6,50.9,60.2,50.9L60.2,50.9z M60.2,50.9"/>
	</g>
</g>
</svg>
