<?xml version="1.0" encoding="utf-8"?>
<!-- Generator: Adobe Illustrator 19.0.0, SVG Export Plug-In . SVG Version: 6.00 Build 0)  -->
<svg version="1.1" xmlns="http://www.w3.org/2000/svg" xmlns:xlink="http://www.w3.org/1999/xlink" x="0px" y="0px"
	 viewBox="0 0 128 128" style="enable-background:new 0 0 128 128;" xml:space="preserve">
<style type="text/css">
	.st0{fill:none;stroke:#CCEBF8;stroke-width:4;stroke-miterlimit:10;}
	.st1{fill:#80397B;}
	.st2{fill:#B9BBC1;}
	.st3{fill:#8B8996;}
	.st4{fill:#D8DCE1;}
	.st5{fill:#FDC88E;}
	.st6{fill:#FFB980;}
	.st7{fill:#FF4F19;}
	.st8{fill:#FFE1B2;}
	.st9{fill:#7E5449;}
</style>
<g id="Layer_1">
	<circle id="XMLID_1_" class="st0" cx="64" cy="64" r="62"/>
</g>
<g id="Layer_2">
	<circle id="XMLID_2_" class="st1" cx="64" cy="64" r="52.5"/>
</g>
<g id="Layer_3">
	<g id="XMLID_38_">
		<path id="XMLID_87_" class="st2" d="M64,93.9c-0.7,0-1.2-0.6-1.2-1.2V65.2c0-0.7,0.6-1.2,1.2-1.2c0.7,0,1.2,0.6,1.2,1.2v27.4
			C65.2,93.3,64.7,93.9,64,93.9L64,93.9z M64,93.9"/>
		<path id="XMLID_84_" class="st3" d="M75.2,91.4H52.8c-2.1,0-3.7,1.7-3.7,3.7v5c0,2.1,1.7,3.7,3.7,3.7h22.4c2.1,0,3.7-1.7,3.7-3.7
			v-5C78.9,93.1,77.3,91.4,75.2,91.4L75.2,91.4z M75.2,91.4"/>
		<path id="XMLID_81_" class="st2" d="M43.3,82.2c-0.3,0-0.6-0.1-0.9-0.4c-0.5-0.5-0.5-1.3,0-1.8l15.7-15.7c0.5-0.5,1.3-0.5,1.8,0
			c0.5,0.5,0.5,1.3,0,1.8L44.2,81.8C44,82,43.7,82.2,43.3,82.2L43.3,82.2z M43.3,82.2"/>
		<path id="XMLID_78_" class="st2" d="M84.7,82.2c-0.3,0-0.6-0.1-0.9-0.4L69.3,67.4c-0.5-0.5-0.5-1.3,0-1.8c0.5-0.5,1.3-0.5,1.8,0
			L85.5,80c0.5,0.5,0.5,1.3,0,1.8C85.3,82,85,82.2,84.7,82.2L84.7,82.2z M84.7,82.2"/>
		<path id="XMLID_75_" class="st4" d="M41.6,78.9H27.9c-2.1,0-3.7,1.7-3.7,3.7v5c0,2.1,1.7,3.7,3.7,3.7h13.7c2.1,0,3.7-1.7,3.7-3.7
			v-5C45.3,80.6,43.6,78.9,41.6,78.9L41.6,78.9z M41.6,78.9"/>
		<path id="XMLID_72_" class="st2" d="M57.8,98.9H54c-0.7,0-1.2-0.6-1.2-1.2c0-0.7,0.6-1.2,1.2-1.2h3.7c0.7,0,1.2,0.6,1.2,1.2
			C59,98.3,58.5,98.9,57.8,98.9L57.8,98.9z M57.8,98.9"/>
		<path id="XMLID_69_" class="st2" d="M74,98.9H62.8c-0.7,0-1.2-0.6-1.2-1.2c0-0.7,0.6-1.2,1.2-1.2H74c0.7,0,1.2,0.6,1.2,1.2
			C75.2,98.3,74.6,98.9,74,98.9L74,98.9z M74,98.9"/>
		<path id="XMLID_66_" class="st2" d="M40.3,86.4h-2.5c-0.7,0-1.2-0.6-1.2-1.2c0-0.7,0.6-1.2,1.2-1.2h2.5c0.7,0,1.2,0.6,1.2,1.2
			C41.6,85.9,41,86.4,40.3,86.4L40.3,86.4z M40.3,86.4"/>
		<path id="XMLID_63_" class="st2" d="M34.1,86.4h-5c-0.7,0-1.2-0.6-1.2-1.2c0-0.7,0.6-1.2,1.2-1.2h5c0.7,0,1.2,0.6,1.2,1.2
			C35.4,85.9,34.8,86.4,34.1,86.4L34.1,86.4z M34.1,86.4"/>
		<path id="XMLID_60_" class="st5" d="M64,54c-2.9,0-5.5-1.2-7.5-3.3c0,1.2,0,2.9-0.4,4.2c0.2,0.1,0.4,0.3,0.4,0.6
			c0.4,3.4,3.6,5.9,7.4,5.9c3.8,0,7-2.5,7.4-5.9c0-0.3,0.2-0.5,0.4-0.6c-0.3-1.3-0.4-3-0.4-4.2C69.5,52.8,66.9,54,64,54L64,54z
			 M64,54"/>
		<path id="XMLID_57_" class="st6" d="M71.3,50.9C69.4,52.9,66.8,54,64,54c-2.9,0-5.5-1.2-7.5-3.3c0,1.2,0,2.9-0.4,4.2
			c0.2,0.1,0.4,0.3,0.4,0.6c0.2,1.5,0.9,2.8,2,3.8C63.6,58.7,69.2,53.8,71.3,50.9L71.3,50.9z M71.3,50.9"/>
		<path id="XMLID_54_" class="st7" d="M79.2,55.9c0,0-0.1,0-0.1,0l-6.6-1c0,0-0.1,0-0.2,0c-0.4,0-0.8,0.3-0.8,0.7
			C71,59,67.8,61.5,64,61.5c-3.8,0-7-2.5-7.4-5.9c-0.1-0.4-0.4-0.8-0.8-0.7c0,0-0.1,0-0.1,0l-6.6,1c0,0-0.1,0-0.1,0
			c-3.1,0.9-4.8,4-4.8,6.6v3.2c0,1.4,1.2,2.5,2.7,2.5h34.4c1.5,0,2.7-1.1,2.7-2.5v-3.2C83.9,59.9,82.3,56.8,79.2,55.9L79.2,55.9z
			 M79.2,55.9"/>
		<path id="XMLID_51_" class="st8" d="M71.5,33.3H57.4c-2.3,0-4.2,1.9-4.2,4.2v5C53.2,48.8,58.1,54,64,54s10.8-5.2,10.8-11.6v-5.8
			C74.8,34.8,73.3,33.3,71.5,33.3L71.5,33.3z M71.5,33.3"/>
		<path id="XMLID_48_" class="st9" d="M69.8,24.2H59c-1.6,0-2.9,1.1-3.2,2.5c-2.9,0.4-5.1,2.8-5.1,5.8v4.2c0,2.1,0.9,4.1,2.5,5.6
			v-4.7c0-2.3,1.9-4.2,4.2-4.2h14.1c1.8,0,3.3,1.5,3.3,3.3v5.6c1.6-1.4,2.5-3.4,2.5-5.6v-5C77.3,27.5,73.9,24.2,69.8,24.2L69.8,24.2
			z M69.8,24.2"/>
		<path id="XMLID_45_" class="st4" d="M86.4,78.9h13.7c2.1,0,3.7,1.7,3.7,3.7v5c0,2.1-1.7,3.7-3.7,3.7H86.4c-2.1,0-3.7-1.7-3.7-3.7
			v-5C82.7,80.6,84.4,78.9,86.4,78.9L86.4,78.9z M86.4,78.9"/>
		<path id="XMLID_42_" class="st2" d="M87.7,86.4h2.5c0.7,0,1.2-0.6,1.2-1.2c0-0.7-0.6-1.2-1.2-1.2h-2.5c-0.7,0-1.2,0.6-1.2,1.2
			C86.4,85.9,87,86.4,87.7,86.4L87.7,86.4z M87.7,86.4"/>
		<path id="XMLID_39_" class="st2" d="M93.9,86.4h5c0.7,0,1.2-0.6,1.2-1.2c0-0.7-0.6-1.2-1.2-1.2h-5c-0.7,0-1.2,0.6-1.2,1.2
			C92.6,85.9,93.2,86.4,93.9,86.4L93.9,86.4z M93.9,86.4"/>
	</g>
</g>
</svg>
