<?xml version="1.0" encoding="utf-8"?>
<!-- Generator: Adobe Illustrator 19.0.0, SVG Export Plug-In . SVG Version: 6.00 Build 0)  -->
<svg version="1.1" id="Layer_1" xmlns="http://www.w3.org/2000/svg" xmlns:xlink="http://www.w3.org/1999/xlink" x="0px" y="0px"
	 viewBox="-60 37 128 128" style="enable-background:new -60 37 128 128;" xml:space="preserve">
<style type="text/css">
	.st0{fill:none;stroke:#CCEBF8;stroke-width:4;stroke-miterlimit:10;}
	.st1{fill:#FAA93B;}
	.st2{fill:#E8E7E6;}
	.st3{fill:#B3B5B7;}
	.st4{fill:#214C89;}
	.st5{fill:#A53535;}
	.st6{fill:#60299B;}
	.st7{fill:#4F9130;}
	.st8{fill:#3598DB;}
	.st9{fill:#1C6D9B;}
	.st10{fill:#D3D1CD;}
	.st11{fill:#80827E;}
	.st12{fill:#FFD758;}
	.st13{fill:#FABD3A;}
	.st14{fill:#A56B32;}
	.st15{fill:#895D28;}
	.st16{fill:#9B9A9A;}
	.st17{font-family:'Echo';}
	.st18{font-size:6.7839px;}
</style>
<g id="Layer_1_2_">
	<g id="Layer_1_1_">
		<circle id="XMLID_1_" class="st0" cx="4" cy="101" r="62"/>
	</g>
	<g id="Layer_2">
		<circle id="XMLID_2_" class="st1" cx="4" cy="101" r="52.5"/>
	</g>
	<path class="st2" d="M21.9,132.4h-33.8c-2.8,0-5.1-2.3-5.1-5.1V78.2c0-2.8,2.3-5.1,5.1-5.1h33.7c2.8,0,5.1,2.3,5.1,5.1v49.1
		C26.9,130.1,24.7,132.4,21.9,132.4z"/>
	<path class="st3" d="M-4.9,125.8c-0.2,0-0.5-0.1-0.6-0.2c-0.4-0.4-0.4-0.9,0-1.3l8.1-7.7c0.2-0.2,0.7-0.4,1.1-0.1l8.9,4.9l5.7-10.1
		c0.2-0.5,0.2-0.7,0.7-0.5s0.8,1.4,0.6,1.9L13.7,123c-0.1,0.2-0.4,0.4-0.6,0.5c-0.2,0.1-0.5,0-0.7-0.1l-9.1-5l-7.5,7.2
		C-4.4,125.8-4.7,125.8-4.9,125.8L-4.9,125.8z"/>
	<path class="st4" d="M-2.1,125.1c-0.1,1.5-1.4,2.7-2.9,2.6s-2.7-1.4-2.6-2.9s1.4-2.7,2.9-2.6C-3.1,122.3-2,123.6-2.1,125.1
		L-2.1,125.1z"/>
	<path class="st5" d="M5.9,117.4c-0.1,1.5-1.4,2.7-2.9,2.6s-2.7-1.4-2.6-2.9s1.4-2.7,2.9-2.6C4.9,114.6,6,115.9,5.9,117.4L5.9,117.4
		z"/>
	<path class="st6" d="M15.7,122.8c-0.1,1.5-1.4,2.7-2.9,2.6s-2.7-1.4-2.6-2.9c0.1-1.5,1.4-2.7,2.9-2.6
		C14.6,120,15.8,121.3,15.7,122.8L15.7,122.8z"/>
	<path class="st7" d="M20.9,113.6c-0.1,1.5-1.4,2.7-2.9,2.6s-2.7-1.4-2.6-2.9c0.1-1.5,1.4-2.7,2.9-2.6C20,110.6,21.2,112,20.9,113.6
		L20.9,113.6z"/>
	<g>
		<g>
			<g>
				<polygon class="st8" points="-5.9,101.1 -7,100.8 -7.7,101.8 -9.2,97.7 -7.4,97 				"/>
				<polygon class="st9" points="-8.8,97.5 -9.2,97.7 -7.7,101.8 -7.4,101.4 				"/>
				<polygon class="st9" points="-6.4,101 -5.9,101.1 -7.4,97 -7.8,97.1 				"/>
			</g>
			<g>
				<polygon class="st8" points="-11.8,101.1 -10.7,100.8 -10,101.8 -8.4,97.7 -10.2,97 				"/>
				<polygon class="st9" points="-8.8,97.5 -8.4,97.7 -10,101.8 -10.3,101.4 				"/>
				<polygon class="st9" points="-11.3,101 -11.8,101.1 -10.2,97 -9.8,97.1 				"/>
			</g>
		</g>
	</g>
	<circle class="st10" cx="-8.8" cy="95.8" r="3"/>
	<circle class="st11" cx="-8.8" cy="95.8" r="2.3"/>
	<g>
		<g>
			<g>
				<polygon class="st8" points="9.1,96.1 8,95.8 7.3,96.8 5.8,92.7 7.6,92 				"/>
				<polygon class="st9" points="6.2,92.5 5.8,92.7 7.3,96.8 7.6,96.4 				"/>
				<polygon class="st9" points="8.6,96 9.1,96.1 7.6,92 7.2,92.1 				"/>
			</g>
			<g>
				<polygon class="st8" points="3.2,96.1 4.3,95.8 5,96.8 6.6,92.7 4.8,92 				"/>
				<polygon class="st9" points="6.2,92.5 6.6,92.7 5,96.8 4.7,96.4 				"/>
				<polygon class="st9" points="3.7,96 3.2,96.1 4.8,92 5.2,92.1 				"/>
			</g>
		</g>
	</g>
	<circle class="st12" cx="6.2" cy="90.8" r="3"/>
	<circle class="st13" cx="6.2" cy="90.8" r="2.3"/>
	<g>
		<g>
			<g>
				<polygon class="st8" points="22.1,101.1 21,100.8 20.3,101.8 18.8,97.7 20.6,97 				"/>
				<polygon class="st9" points="19.2,97.5 18.8,97.7 20.3,101.8 20.6,101.4 				"/>
				<polygon class="st9" points="21.6,101 22.1,101.1 20.6,97 20.2,97.1 				"/>
			</g>
			<g>
				<polygon class="st8" points="16.2,101.1 17.3,100.8 18,101.8 19.6,97.7 17.8,97 				"/>
				<polygon class="st9" points="19.2,97.5 19.6,97.7 18,101.8 17.7,101.4 				"/>
				<polygon class="st9" points="16.7,101 16.2,101.1 17.8,97 18.2,97.1 				"/>
			</g>
		</g>
	</g>
	<circle class="st14" cx="19.2" cy="95.8" r="3"/>
	<circle class="st15" cx="19.2" cy="95.8" r="2.3"/>
	<path class="st16" d="M-9.2,104.8h-4.2c-0.2,0-0.3-0.2-0.3-0.3l0,0c0-0.2,0.2-0.3,0.3-0.3h4.2c0.2,0,0.3,0.2,0.3,0.3l0,0
		C-8.8,104.6-9,104.8-9.2,104.8z"/>
	<path class="st16" d="M-4.2,104.8h-4.2c-0.2,0-0.3-0.2-0.3-0.3l0,0c0-0.2,0.2-0.3,0.3-0.3h4.2c0.2,0,0.3,0.2,0.3,0.3l0,0
		C-3.8,104.6-4,104.8-4.2,104.8z"/>
	<path class="st16" d="M5.8,98.8H1.6c-0.2,0-0.3-0.2-0.3-0.3l0,0c0-0.2,0.2-0.3,0.3-0.3h4.2c0.2,0,0.3,0.2,0.3,0.3l0,0
		C6.2,98.6,6,98.8,5.8,98.8z"/>
	<path class="st16" d="M10.8,98.8H6.6c-0.2,0-0.3-0.2-0.3-0.3l0,0c0-0.2,0.2-0.3,0.3-0.3h4.2c0.2,0,0.3,0.2,0.3,0.3l0,0
		C11.2,98.6,11,98.8,10.8,98.8z"/>
	<path class="st16" d="M18.8,104.8h-4.2c-0.2,0-0.3-0.2-0.3-0.3l0,0c0-0.2,0.2-0.3,0.3-0.3h4.2c0.2,0,0.3,0.2,0.3,0.3l0,0
		C19.2,104.6,19,104.8,18.8,104.8z"/>
	<path class="st16" d="M23.8,104.8h-4.2c-0.2,0-0.3-0.2-0.3-0.3l0,0c0-0.2,0.2-0.3,0.3-0.3h4.2c0.2,0,0.3,0.2,0.3,0.3l0,0
		C24.2,104.6,24,104.8,23.8,104.8z"/>
</g>
<g id="Layer_2_1_">
	<text transform="matrix(1 0 0 1 -4.4 84.1395)" class="st16 st17 st18">RESULT</text>
</g>
</svg>
