<?xml version="1.0" encoding="utf-8"?>
<!-- Generator: Adobe Illustrator 19.0.0, SVG Export Plug-In . SVG Version: 6.00 Build 0)  -->
<svg version="1.1" xmlns="http://www.w3.org/2000/svg" xmlns:xlink="http://www.w3.org/1999/xlink" x="0px" y="0px"
	 viewBox="0 0 128 128" style="enable-background:new 0 0 128 128;" xml:space="preserve">
<style type="text/css">
	.st0{fill:none;stroke:#CCEBF8;stroke-width:4;stroke-miterlimit:10;}
	.st1{fill:#80397B;}
	.st2{fill:#FFD200;}
	.st3{fill:#FF9600;}
	.st4{fill:#DF8328;}
	.st5{fill:#FFEF43;}
</style>
<g id="Layer_1">
	<circle id="XMLID_1_" class="st0" cx="64" cy="64" r="62"/>
</g>
<g id="Layer_2">
	<circle id="XMLID_2_" class="st1" cx="64" cy="64" r="52.5"/>
</g>
<g id="Layer_3">
	<g id="XMLID_263_">
		<path id="XMLID_648_" class="st2" d="M64.8,86c-5.7,0-10.1,2.9-10.1,6.6s4.5,6.6,10.1,6.6s10.1-2.9,10.1-6.6S70.5,86,64.8,86
			L64.8,86z M64.8,86"/>
		<path id="XMLID_645_" class="st3" d="M64.8,83.8c-5.7,0-10.1,2.9-10.1,6.6c0,3.7,4.5,6.6,10.1,6.6s10.1-2.9,10.1-6.6
			C74.9,86.7,70.5,83.8,64.8,83.8L64.8,83.8z M64.8,83.8"/>
		<path id="XMLID_642_" class="st2" d="M64.8,81.7c-5.7,0-10.1,2.9-10.1,6.6c0,3.7,4.5,6.6,10.1,6.6s10.1-2.9,10.1-6.6
			C74.9,84.5,70.5,81.7,64.8,81.7L64.8,81.7z M64.8,81.7"/>
		<path id="XMLID_639_" class="st3" d="M64.8,79.5c-5.7,0-10.1,2.9-10.1,6.6s4.5,6.6,10.1,6.6s10.1-2.9,10.1-6.6
			S70.5,79.5,64.8,79.5L64.8,79.5z M64.8,79.5"/>
		<path id="XMLID_636_" class="st2" d="M64.8,77.3c-5.7,0-10.1,2.9-10.1,6.6c0,3.7,4.5,6.6,10.1,6.6s10.1-2.9,10.1-6.6
			C74.9,80.2,70.5,77.3,64.8,77.3L64.8,77.3z M64.8,77.3"/>
		<path id="XMLID_633_" class="st3" d="M64.8,75.1c-5.7,0-10.1,2.9-10.1,6.6s4.5,6.6,10.1,6.6s10.1-2.9,10.1-6.6
			S70.5,75.1,64.8,75.1L64.8,75.1z M64.8,75.1"/>
		<path id="XMLID_630_" class="st2" d="M64.8,72.9c-5.7,0-10.1,2.9-10.1,6.6c0,3.7,4.5,6.6,10.1,6.6s10.1-2.9,10.1-6.6
			C74.9,75.8,70.5,72.9,64.8,72.9L64.8,72.9z M64.8,72.9"/>
		<path id="XMLID_627_" class="st3" d="M64.8,70.7c-5.7,0-10.1,2.9-10.1,6.6c0,3.7,4.5,6.6,10.1,6.6s10.1-2.9,10.1-6.6
			C74.9,73.6,70.5,70.7,64.8,70.7L64.8,70.7z M64.8,70.7"/>
		<path id="XMLID_624_" class="st2" d="M64.8,68.5c-5.7,0-10.1,2.9-10.1,6.6s4.5,6.6,10.1,6.6s10.1-2.9,10.1-6.6
			S70.5,68.5,64.8,68.5L64.8,68.5z M64.8,68.5"/>
		<path id="XMLID_621_" class="st3" d="M64.8,66.3c-5.7,0-10.1,2.9-10.1,6.6c0,3.7,4.5,6.6,10.1,6.6s10.1-2.9,10.1-6.6
			C74.9,69.2,70.5,66.3,64.8,66.3L64.8,66.3z M64.8,66.3"/>
		<path id="XMLID_618_" class="st2" d="M64.8,64.1c-5.7,0-10.1,2.9-10.1,6.6c0,3.7,4.5,6.6,10.1,6.6s10.1-2.9,10.1-6.6
			C74.9,67,70.5,64.1,64.8,64.1L64.8,64.1z M64.8,64.1"/>
		<path id="XMLID_615_" class="st3" d="M64.8,61.9c-5.7,0-10.1,2.9-10.1,6.6c0,3.7,4.5,6.6,10.1,6.6s10.1-2.9,10.1-6.6
			C74.9,64.8,70.5,61.9,64.8,61.9L64.8,61.9z M64.8,61.9"/>
		<path id="XMLID_612_" class="st2" d="M64.8,59.7c-5.7,0-10.1,2.9-10.1,6.6c0,3.7,4.5,6.6,10.1,6.6s10.1-2.9,10.1-6.6
			C74.9,62.6,70.5,59.7,64.8,59.7L64.8,59.7z M64.8,59.7"/>
		<path id="XMLID_609_" class="st3" d="M64.8,57.6c-5.7,0-10.1,2.9-10.1,6.6c0,3.7,4.5,6.6,10.1,6.6s10.1-2.9,10.1-6.6
			C74.9,60.4,70.5,57.6,64.8,57.6L64.8,57.6z M64.8,57.6"/>
		<path id="XMLID_606_" class="st3" d="M54.6,92.6c0,3.7,4.5,6.6,10.1,6.6V86C59.1,86,54.6,88.9,54.6,92.6L54.6,92.6z M54.6,92.6"/>
		<path id="XMLID_603_" class="st4" d="M54.6,90.4c0,3.7,4.5,6.6,10.1,6.6V83.8C59.1,83.8,54.6,86.7,54.6,90.4L54.6,90.4z
			 M54.6,90.4"/>
		<path id="XMLID_600_" class="st3" d="M54.6,88.2c0,3.7,4.5,6.6,10.1,6.6V81.7C59.1,81.7,54.6,84.5,54.6,88.2L54.6,88.2z
			 M54.6,88.2"/>
		<path id="XMLID_597_" class="st4" d="M54.6,86c0,3.7,4.5,6.6,10.1,6.6V79.5C59.1,79.5,54.6,82.4,54.6,86L54.6,86z M54.6,86"/>
		<path id="XMLID_594_" class="st3" d="M54.6,83.8c0,3.7,4.5,6.6,10.1,6.6V77.3C59.1,77.3,54.6,80.2,54.6,83.8L54.6,83.8z
			 M54.6,83.8"/>
		<path id="XMLID_591_" class="st4" d="M54.6,81.7c0,3.7,4.5,6.6,10.1,6.6V75.1C59.1,75.1,54.6,78,54.6,81.7L54.6,81.7z M54.6,81.7"
			/>
		<path id="XMLID_588_" class="st3" d="M54.6,79.5c0,3.7,4.5,6.6,10.1,6.6V72.9C59.1,72.9,54.6,75.8,54.6,79.5L54.6,79.5z
			 M54.6,79.5"/>
		<path id="XMLID_585_" class="st3" d="M54.6,79.5c0,3.7,4.5,6.6,10.1,6.6V72.9C59.1,72.9,54.6,75.8,54.6,79.5L54.6,79.5z
			 M54.6,79.5"/>
		<path id="XMLID_582_" class="st4" d="M54.6,77.3c0,3.7,4.5,6.6,10.1,6.6V70.7C59.1,70.7,54.6,73.6,54.6,77.3L54.6,77.3z
			 M54.6,77.3"/>
		<path id="XMLID_579_" class="st3" d="M54.6,75.1c0,3.7,4.5,6.6,10.1,6.6V68.5C59.1,68.5,54.6,71.4,54.6,75.1L54.6,75.1z
			 M54.6,75.1"/>
		<path id="XMLID_576_" class="st4" d="M54.6,72.9c0,3.7,4.5,6.6,10.1,6.6V66.3C59.1,66.3,54.6,69.2,54.6,72.9L54.6,72.9z
			 M54.6,72.9"/>
		<path id="XMLID_573_" class="st3" d="M54.6,70.7c0,3.7,4.5,6.6,10.1,6.6V64.1C59.1,64.1,54.6,67,54.6,70.7L54.6,70.7z M54.6,70.7"
			/>
		<path id="XMLID_570_" class="st3" d="M54.6,70.7c0,3.7,4.5,6.6,10.1,6.6V64.1C59.1,64.1,54.6,67,54.6,70.7L54.6,70.7z M54.6,70.7"
			/>
		<path id="XMLID_567_" class="st4" d="M54.6,68.5c0,3.7,4.5,6.6,10.1,6.6V61.9C59.1,61.9,54.6,64.8,54.6,68.5L54.6,68.5z
			 M54.6,68.5"/>
		<path id="XMLID_564_" class="st3" d="M54.6,66.3c0,3.7,4.5,6.6,10.1,6.6V59.7C59.1,59.7,54.6,62.6,54.6,66.3L54.6,66.3z
			 M54.6,66.3"/>
		<path id="XMLID_561_" class="st4" d="M54.6,64.1c0,3.7,4.5,6.6,10.1,6.6V57.6C59.1,57.6,54.6,60.4,54.6,64.1L54.6,64.1z
			 M54.6,64.1"/>
		<path id="XMLID_558_" class="st3" d="M54.6,61.9c0,3.7,4.5,6.6,10.1,6.6V55.4C59.1,55.4,54.6,58.3,54.6,61.9L54.6,61.9z
			 M54.6,61.9"/>
		<path id="XMLID_555_" class="st2" d="M64.8,55.4c-5.7,0-10.1,2.9-10.1,6.6s4.5,6.6,10.1,6.6s10.1-2.9,10.1-6.6
			S70.5,55.4,64.8,55.4L64.8,55.4z M64.8,55.4"/>
		<path id="XMLID_552_" class="st3" d="M64.8,53.2c-5.7,0-10.1,2.9-10.1,6.6c0,3.7,4.5,6.6,10.1,6.6s10.1-2.9,10.1-6.6
			C74.9,56.1,70.5,53.2,64.8,53.2L64.8,53.2z M64.8,53.2"/>
		<path id="XMLID_549_" class="st2" d="M64.8,51c-5.7,0-10.1,2.9-10.1,6.6c0,3.7,4.5,6.6,10.1,6.6s10.1-2.9,10.1-6.6
			C74.9,53.9,70.5,51,64.8,51L64.8,51z M64.8,51"/>
		<path id="XMLID_546_" class="st3" d="M64.8,48.8c-5.7,0-10.1,2.9-10.1,6.6c0,3.7,4.5,6.6,10.1,6.6s10.1-2.9,10.1-6.6
			C74.9,51.7,70.5,48.8,64.8,48.8L64.8,48.8z M64.8,48.8"/>
		<path id="XMLID_543_" class="st2" d="M64.8,46.6c-5.7,0-10.1,2.9-10.1,6.6s4.5,6.6,10.1,6.6s10.1-2.9,10.1-6.6
			S70.5,46.6,64.8,46.6L64.8,46.6z M64.8,46.6"/>
		<path id="XMLID_540_" class="st3" d="M54.6,61.9c0,3.7,4.5,6.6,10.1,6.6V55.4C59.1,55.4,54.6,58.3,54.6,61.9L54.6,61.9z
			 M54.6,61.9"/>
		<path id="XMLID_537_" class="st4" d="M54.6,59.7c0,3.7,4.5,6.6,10.1,6.6V53.2C59.1,53.2,54.6,56.1,54.6,59.7L54.6,59.7z
			 M54.6,59.7"/>
		<path id="XMLID_534_" class="st3" d="M54.6,57.6c0,3.7,4.5,6.6,10.1,6.6V51C59.1,51,54.6,53.9,54.6,57.6L54.6,57.6z M54.6,57.6"/>
		<path id="XMLID_531_" class="st4" d="M54.6,55.4c0,3.7,4.5,6.6,10.1,6.6V48.8C59.1,48.8,54.6,51.7,54.6,55.4L54.6,55.4z
			 M54.6,55.4"/>
		<path id="XMLID_528_" class="st3" d="M54.6,53.2c0,3.7,4.5,6.6,10.1,6.6V46.6C59.1,46.6,54.6,49.5,54.6,53.2L54.6,53.2z
			 M54.6,53.2"/>
		<path id="XMLID_525_" class="st3" d="M64.8,44.4c-5.7,0-10.1,2.9-10.1,6.6c0,3.7,4.5,6.6,10.1,6.6s10.1-2.9,10.1-6.6
			C74.9,47.3,70.5,44.4,64.8,44.4L64.8,44.4z M64.8,44.4"/>
		<path id="XMLID_522_" class="st4" d="M54.6,51c0,3.7,4.5,6.6,10.1,6.6V44.4C59.1,44.4,54.6,47.3,54.6,51L54.6,51z M54.6,51"/>
		<path id="XMLID_519_" class="st2" d="M64.8,42.2c-5.7,0-10.1,2.9-10.1,6.6s4.5,6.6,10.1,6.6s10.1-2.9,10.1-6.6
			S70.5,42.2,64.8,42.2L64.8,42.2z M64.8,42.2"/>
		<path id="XMLID_516_" class="st3" d="M64.8,40c-5.7,0-10.1,2.9-10.1,6.6c0,3.7,4.5,6.6,10.1,6.6s10.1-2.9,10.1-6.6
			C74.9,42.9,70.5,40,64.8,40L64.8,40z M64.8,40"/>
		<path id="XMLID_513_" class="st3" d="M54.6,48.8c0,3.7,4.5,6.6,10.1,6.6V42.2C59.1,42.2,54.6,45.1,54.6,48.8L54.6,48.8z
			 M54.6,48.8"/>
		<path id="XMLID_510_" class="st4" d="M54.6,46.6c0,3.7,4.5,6.6,10.1,6.6V40C59.1,40,54.6,42.9,54.6,46.6L54.6,46.6z M54.6,46.6"/>
		<path id="XMLID_507_" class="st2" d="M64.8,37.8c-5.7,0-10.1,2.9-10.1,6.6c0,3.7,4.5,6.6,10.1,6.6s10.1-2.9,10.1-6.6
			C74.9,40.7,70.5,37.8,64.8,37.8L64.8,37.8z M64.8,37.8"/>
		<path id="XMLID_504_" class="st3" d="M64.8,35.7c-5.7,0-10.1,2.9-10.1,6.6c0,3.7,4.5,6.6,10.1,6.6s10.1-2.9,10.1-6.6
			C74.9,38.5,70.5,35.7,64.8,35.7L64.8,35.7z M64.8,35.7"/>
		<path id="XMLID_501_" class="st2" d="M64.8,33.5c-5.7,0-10.1,2.9-10.1,6.6c0,3.7,4.5,6.6,10.1,6.6s10.1-2.9,10.1-6.6
			C74.9,36.3,70.5,33.5,64.8,33.5L64.8,33.5z M64.8,33.5"/>
		<path id="XMLID_498_" class="st3" d="M54.6,44.4c0,3.7,4.5,6.6,10.1,6.6V37.8C59.1,37.8,54.6,40.7,54.6,44.4L54.6,44.4z
			 M54.6,44.4"/>
		<path id="XMLID_495_" class="st4" d="M54.6,42.2c0,3.7,4.5,6.6,10.1,6.6V35.7C59.1,35.7,54.6,38.5,54.6,42.2L54.6,42.2z
			 M54.6,42.2"/>
		<path id="XMLID_492_" class="st3" d="M54.6,40c0,3.7,4.5,6.6,10.1,6.6V33.5C59.1,33.5,54.6,36.3,54.6,40L54.6,40z M54.6,40"/>
		<path id="XMLID_489_" class="st3" d="M64.8,31.3c-5.7,0-10.1,2.9-10.1,6.6c0,3.7,4.5,6.6,10.1,6.6s10.1-2.9,10.1-6.6
			C74.9,34.2,70.5,31.3,64.8,31.3L64.8,31.3z M64.8,31.3"/>
		<path id="XMLID_486_" class="st4" d="M54.6,37.8c0,3.7,4.5,6.6,10.1,6.6V31.3C59.1,31.3,54.6,34.2,54.6,37.8L54.6,37.8z
			 M54.6,37.8"/>
		<path id="XMLID_483_" class="st2" d="M64.8,29.1c-5.7,0-10.1,2.9-10.1,6.6c0,3.7,4.5,6.6,10.1,6.6s10.1-2.9,10.1-6.6
			C74.9,32,70.5,29.1,64.8,29.1L64.8,29.1z M64.8,29.1"/>
		<path id="XMLID_479_" class="st5" d="M64.8,40c-4.1,0-7.1-1.8-7.1-4.4c0-2.5,3-4.4,7.1-4.4s7.1,1.8,7.1,4.4
			C71.9,38.2,68.9,40,64.8,40L64.8,40z M64.8,33.5c-3.1,0-5.1,1.3-5.1,2.2c0,0.9,1.9,2.2,5.1,2.2c3.1,0,5.1-1.3,5.1-2.2
			C69.9,34.7,67.9,33.5,64.8,33.5L64.8,33.5z M64.8,33.5"/>
		<path id="XMLID_476_" class="st2" d="M83,86c-5.7,0-10.1,2.9-10.1,6.6s4.5,6.6,10.1,6.6c5.7,0,10.1-2.9,10.1-6.6S88.7,86,83,86
			L83,86z M83,86"/>
		<path id="XMLID_473_" class="st3" d="M83,83.8c-5.7,0-10.1,2.9-10.1,6.6c0,3.7,4.5,6.6,10.1,6.6c5.7,0,10.1-2.9,10.1-6.6
			C93.2,86.7,88.7,83.8,83,83.8L83,83.8z M83,83.8"/>
		<path id="XMLID_470_" class="st3" d="M72.9,92.6c0,3.7,4.5,6.6,10.1,6.6V86C77.4,86,72.9,88.9,72.9,92.6L72.9,92.6z M72.9,92.6"/>
		<path id="XMLID_467_" class="st4" d="M72.9,90.4c0,3.7,4.5,6.6,10.1,6.6V83.8C77.4,83.8,72.9,86.7,72.9,90.4L72.9,90.4z
			 M72.9,90.4"/>
		<path id="XMLID_464_" class="st3" d="M72.9,88.2c0,3.7,4.5,6.6,10.1,6.6V81.7C77.4,81.7,72.9,84.5,72.9,88.2L72.9,88.2z
			 M72.9,88.2"/>
		<path id="XMLID_461_" class="st2" d="M83,81.7c-5.7,0-10.1,2.9-10.1,6.6c0,3.7,4.5,6.6,10.1,6.6c5.7,0,10.1-2.9,10.1-6.6
			C93.2,84.5,88.7,81.7,83,81.7L83,81.7z M83,81.7"/>
		<path id="XMLID_458_" class="st3" d="M83,79.5c-5.7,0-10.1,2.9-10.1,6.6s4.5,6.6,10.1,6.6c5.7,0,10.1-2.9,10.1-6.6
			S88.7,79.5,83,79.5L83,79.5z M83,79.5"/>
		<path id="XMLID_455_" class="st2" d="M83,77.3c-5.7,0-10.1,2.9-10.1,6.6c0,3.7,4.5,6.6,10.1,6.6c5.7,0,10.1-2.9,10.1-6.6
			C93.2,80.2,88.7,77.3,83,77.3L83,77.3z M83,77.3"/>
		<path id="XMLID_452_" class="st3" d="M83,75.1c-5.7,0-10.1,2.9-10.1,6.6s4.5,6.6,10.1,6.6c5.7,0,10.1-2.9,10.1-6.6
			S88.7,75.1,83,75.1L83,75.1z M83,75.1"/>
		<path id="XMLID_449_" class="st2" d="M83,72.9c-5.7,0-10.1,2.9-10.1,6.6c0,3.7,4.5,6.6,10.1,6.6c5.7,0,10.1-2.9,10.1-6.6
			C93.2,75.8,88.7,72.9,83,72.9L83,72.9z M83,72.9"/>
		<path id="XMLID_446_" class="st3" d="M72.9,88.2c0,3.7,4.5,6.6,10.1,6.6V81.7C77.4,81.7,72.9,84.5,72.9,88.2L72.9,88.2z
			 M72.9,88.2"/>
		<path id="XMLID_443_" class="st4" d="M72.9,86c0,3.7,4.5,6.6,10.1,6.6V79.5C77.4,79.5,72.9,82.4,72.9,86L72.9,86z M72.9,86"/>
		<path id="XMLID_440_" class="st3" d="M72.9,83.8c0,3.7,4.5,6.6,10.1,6.6V77.3C77.4,77.3,72.9,80.2,72.9,83.8L72.9,83.8z
			 M72.9,83.8"/>
		<path id="XMLID_437_" class="st4" d="M72.9,81.7c0,3.7,4.5,6.6,10.1,6.6V75.1C77.4,75.1,72.9,78,72.9,81.7L72.9,81.7z M72.9,81.7"
			/>
		<path id="XMLID_434_" class="st3" d="M72.9,79.5c0,3.7,4.5,6.6,10.1,6.6V72.9C77.4,72.9,72.9,75.8,72.9,79.5L72.9,79.5z
			 M72.9,79.5"/>
		<path id="XMLID_431_" class="st3" d="M83,70.7c-5.7,0-10.1,2.9-10.1,6.6c0,3.7,4.5,6.6,10.1,6.6c5.7,0,10.1-2.9,10.1-6.6
			C93.2,73.6,88.7,70.7,83,70.7L83,70.7z M83,70.7"/>
		<path id="XMLID_428_" class="st4" d="M72.9,77.3c0,3.7,4.5,6.6,10.1,6.6V70.7C77.4,70.7,72.9,73.6,72.9,77.3L72.9,77.3z
			 M72.9,77.3"/>
		<path id="XMLID_425_" class="st2" d="M83,68.5c-5.7,0-10.1,2.9-10.1,6.6s4.5,6.6,10.1,6.6c5.7,0,10.1-2.9,10.1-6.6
			S88.7,68.5,83,68.5L83,68.5z M83,68.5"/>
		<path id="XMLID_422_" class="st3" d="M83,66.3c-5.7,0-10.1,2.9-10.1,6.6c0,3.7,4.5,6.6,10.1,6.6c5.7,0,10.1-2.9,10.1-6.6
			C93.2,69.2,88.7,66.3,83,66.3L83,66.3z M83,66.3"/>
		<path id="XMLID_419_" class="st3" d="M72.9,75.1c0,3.7,4.5,6.6,10.1,6.6V68.5C77.4,68.5,72.9,71.4,72.9,75.1L72.9,75.1z
			 M72.9,75.1"/>
		<path id="XMLID_416_" class="st4" d="M72.9,72.9c0,3.7,4.5,6.6,10.1,6.6V66.3C77.4,66.3,72.9,69.2,72.9,72.9L72.9,72.9z
			 M72.9,72.9"/>
		<path id="XMLID_413_" class="st2" d="M83,64.1c-5.7,0-10.1,2.9-10.1,6.6c0,3.7,4.5,6.6,10.1,6.6c5.7,0,10.1-2.9,10.1-6.6
			C93.2,67,88.7,64.1,83,64.1L83,64.1z M83,64.1"/>
		<path id="XMLID_410_" class="st3" d="M83,61.9c-5.7,0-10.1,2.9-10.1,6.6c0,3.7,4.5,6.6,10.1,6.6c5.7,0,10.1-2.9,10.1-6.6
			C93.2,64.8,88.7,61.9,83,61.9L83,61.9z M83,61.9"/>
		<path id="XMLID_407_" class="st2" d="M83,59.7c-5.7,0-10.1,2.9-10.1,6.6c0,3.7,4.5,6.6,10.1,6.6c5.7,0,10.1-2.9,10.1-6.6
			C93.2,62.6,88.7,59.7,83,59.7L83,59.7z M83,59.7"/>
		<path id="XMLID_404_" class="st3" d="M72.9,70.7c0,3.7,4.5,6.6,10.1,6.6V64.1C77.4,64.1,72.9,67,72.9,70.7L72.9,70.7z M72.9,70.7"
			/>
		<path id="XMLID_401_" class="st4" d="M72.9,68.5c0,3.7,4.5,6.6,10.1,6.6V61.9C77.4,61.9,72.9,64.8,72.9,68.5L72.9,68.5z
			 M72.9,68.5"/>
		<path id="XMLID_398_" class="st3" d="M72.9,66.3c0,3.7,4.5,6.6,10.1,6.6V59.7C77.4,59.7,72.9,62.6,72.9,66.3L72.9,66.3z
			 M72.9,66.3"/>
		<path id="XMLID_395_" class="st3" d="M83,57.6c-5.7,0-10.1,2.9-10.1,6.6c0,3.7,4.5,6.6,10.1,6.6c5.7,0,10.1-2.9,10.1-6.6
			C93.2,60.4,88.7,57.6,83,57.6L83,57.6z M83,57.6"/>
		<path id="XMLID_392_" class="st4" d="M72.9,64.1c0,3.7,4.5,6.6,10.1,6.6V57.6C77.4,57.6,72.9,60.4,72.9,64.1L72.9,64.1z
			 M72.9,64.1"/>
		<path id="XMLID_389_" class="st2" d="M83,55.4c-5.7,0-10.1,2.9-10.1,6.6s4.5,6.6,10.1,6.6c5.7,0,10.1-2.9,10.1-6.6
			S88.7,55.4,83,55.4L83,55.4z M83,55.4"/>
		<path id="XMLID_385_" class="st5" d="M83,66.3c-4.1,0-7.1-1.8-7.1-4.4s3-4.4,7.1-4.4c4.1,0,7.1,1.8,7.1,4.4S87.1,66.3,83,66.3
			L83,66.3z M83,59.7c-3.1,0-5.1,1.3-5.1,2.2s1.9,2.2,5.1,2.2c3.1,0,5.1-1.3,5.1-2.2S86.2,59.7,83,59.7L83,59.7z M83,59.7"/>
		<path id="XMLID_382_" class="st2" d="M46.5,86c-5.7,0-10.1,2.9-10.1,6.6s4.5,6.6,10.1,6.6s10.1-2.9,10.1-6.6S52.2,86,46.5,86
			L46.5,86z M46.5,86"/>
		<path id="XMLID_379_" class="st3" d="M46.5,83.8c-5.7,0-10.1,2.9-10.1,6.6c0,3.7,4.5,6.6,10.1,6.6s10.1-2.9,10.1-6.6
			C56.7,86.7,52.2,83.8,46.5,83.8L46.5,83.8z M46.5,83.8"/>
		<path id="XMLID_376_" class="st2" d="M46.5,81.7c-5.7,0-10.1,2.9-10.1,6.6c0,3.7,4.5,6.6,10.1,6.6s10.1-2.9,10.1-6.6
			C56.7,84.5,52.2,81.7,46.5,81.7L46.5,81.7z M46.5,81.7"/>
		<path id="XMLID_373_" class="st3" d="M46.5,79.5c-5.7,0-10.1,2.9-10.1,6.6s4.5,6.6,10.1,6.6s10.1-2.9,10.1-6.6
			S52.2,79.5,46.5,79.5L46.5,79.5z M46.5,79.5"/>
		<path id="XMLID_370_" class="st2" d="M46.5,77.3c-5.7,0-10.1,2.9-10.1,6.6c0,3.7,4.5,6.6,10.1,6.6s10.1-2.9,10.1-6.6
			C56.7,80.2,52.2,77.3,46.5,77.3L46.5,77.3z M46.5,77.3"/>
		<path id="XMLID_367_" class="st3" d="M46.5,75.1c-5.7,0-10.1,2.9-10.1,6.6s4.5,6.6,10.1,6.6s10.1-2.9,10.1-6.6
			S52.2,75.1,46.5,75.1L46.5,75.1z M46.5,75.1"/>
		<path id="XMLID_364_" class="st3" d="M36.4,92.6c0,3.7,4.5,6.6,10.1,6.6V86C40.8,86,36.4,88.9,36.4,92.6L36.4,92.6z M36.4,92.6"/>
		<path id="XMLID_361_" class="st4" d="M36.4,90.4c0,3.7,4.5,6.6,10.1,6.6V83.8C40.8,83.8,36.4,86.7,36.4,90.4L36.4,90.4z
			 M36.4,90.4"/>
		<path id="XMLID_358_" class="st3" d="M36.4,88.2c0,3.7,4.5,6.6,10.1,6.6V81.7C40.8,81.7,36.4,84.5,36.4,88.2L36.4,88.2z
			 M36.4,88.2"/>
		<path id="XMLID_355_" class="st3" d="M36.4,88.2c0,3.7,4.5,6.6,10.1,6.6V81.7C40.8,81.7,36.4,84.5,36.4,88.2L36.4,88.2z
			 M36.4,88.2"/>
		<path id="XMLID_352_" class="st4" d="M36.4,86c0,3.7,4.5,6.6,10.1,6.6V79.5C40.8,79.5,36.4,82.4,36.4,86L36.4,86z M36.4,86"/>
		<path id="XMLID_349_" class="st3" d="M36.4,83.8c0,3.7,4.5,6.6,10.1,6.6V77.3C40.8,77.3,36.4,80.2,36.4,83.8L36.4,83.8z
			 M36.4,83.8"/>
		<path id="XMLID_346_" class="st4" d="M36.4,81.7c0,3.7,4.5,6.6,10.1,6.6V75.1C40.8,75.1,36.4,78,36.4,81.7L36.4,81.7z M36.4,81.7"
			/>
		<path id="XMLID_343_" class="st3" d="M36.4,79.5c0,3.7,4.5,6.6,10.1,6.6V72.9C40.8,72.9,36.4,75.8,36.4,79.5L36.4,79.5z
			 M36.4,79.5"/>
		<path id="XMLID_340_" class="st2" d="M46.5,72.9c-5.7,0-10.1,2.9-10.1,6.6c0,3.7,4.5,6.6,10.1,6.6s10.1-2.9,10.1-6.6
			C56.7,75.8,52.2,72.9,46.5,72.9L46.5,72.9z M46.5,72.9"/>
		<path id="XMLID_337_" class="st3" d="M46.5,70.7c-5.7,0-10.1,2.9-10.1,6.6c0,3.7,4.5,6.6,10.1,6.6s10.1-2.9,10.1-6.6
			C56.7,73.6,52.2,70.7,46.5,70.7L46.5,70.7z M46.5,70.7"/>
		<path id="XMLID_334_" class="st2" d="M46.5,68.5c-5.7,0-10.1,2.9-10.1,6.6s4.5,6.6,10.1,6.6s10.1-2.9,10.1-6.6
			S52.2,68.5,46.5,68.5L46.5,68.5z M46.5,68.5"/>
		<path id="XMLID_331_" class="st3" d="M46.5,66.3c-5.7,0-10.1,2.9-10.1,6.6c0,3.7,4.5,6.6,10.1,6.6s10.1-2.9,10.1-6.6
			C56.7,69.2,52.2,66.3,46.5,66.3L46.5,66.3z M46.5,66.3"/>
		<path id="XMLID_328_" class="st2" d="M46.5,64.1c-5.7,0-10.1,2.9-10.1,6.6c0,3.7,4.5,6.6,10.1,6.6s10.1-2.9,10.1-6.6
			C56.7,67,52.2,64.1,46.5,64.1L46.5,64.1z M46.5,64.1"/>
		<path id="XMLID_325_" class="st3" d="M36.4,79.5c0,3.7,4.5,6.6,10.1,6.6V72.9C40.8,72.9,36.4,75.8,36.4,79.5L36.4,79.5z
			 M36.4,79.5"/>
		<path id="XMLID_322_" class="st4" d="M36.4,77.3c0,3.7,4.5,6.6,10.1,6.6V70.7C40.8,70.7,36.4,73.6,36.4,77.3L36.4,77.3z
			 M36.4,77.3"/>
		<path id="XMLID_319_" class="st3" d="M36.4,75.1c0,3.7,4.5,6.6,10.1,6.6V68.5C40.8,68.5,36.4,71.4,36.4,75.1L36.4,75.1z
			 M36.4,75.1"/>
		<path id="XMLID_316_" class="st4" d="M36.4,72.9c0,3.7,4.5,6.6,10.1,6.6V66.3C40.8,66.3,36.4,69.2,36.4,72.9L36.4,72.9z
			 M36.4,72.9"/>
		<path id="XMLID_313_" class="st3" d="M36.4,70.7c0,3.7,4.5,6.6,10.1,6.6V64.1C40.8,64.1,36.4,67,36.4,70.7L36.4,70.7z M36.4,70.7"
			/>
		<path id="XMLID_310_" class="st3" d="M46.5,61.9c-5.7,0-10.1,2.9-10.1,6.6c0,3.7,4.5,6.6,10.1,6.6s10.1-2.9,10.1-6.6
			C56.7,64.8,52.2,61.9,46.5,61.9L46.5,61.9z M46.5,61.9"/>
		<path id="XMLID_307_" class="st4" d="M36.4,68.5c0,3.7,4.5,6.6,10.1,6.6V61.9C40.8,61.9,36.4,64.8,36.4,68.5L36.4,68.5z
			 M36.4,68.5"/>
		<path id="XMLID_304_" class="st2" d="M46.5,59.7c-5.7,0-10.1,2.9-10.1,6.6c0,3.7,4.5,6.6,10.1,6.6s10.1-2.9,10.1-6.6
			C56.7,62.6,52.2,59.7,46.5,59.7L46.5,59.7z M46.5,59.7"/>
		<path id="XMLID_301_" class="st3" d="M46.5,57.6c-5.7,0-10.1,2.9-10.1,6.6c0,3.7,4.5,6.6,10.1,6.6s10.1-2.9,10.1-6.6
			C56.7,60.4,52.2,57.6,46.5,57.6L46.5,57.6z M46.5,57.6"/>
		<path id="XMLID_298_" class="st3" d="M36.4,66.3c0,3.7,4.5,6.6,10.1,6.6V59.7C40.8,59.7,36.4,62.6,36.4,66.3L36.4,66.3z
			 M36.4,66.3"/>
		<path id="XMLID_295_" class="st4" d="M36.4,64.1c0,3.7,4.5,6.6,10.1,6.6V57.6C40.8,57.6,36.4,60.4,36.4,64.1L36.4,64.1z
			 M36.4,64.1"/>
		<path id="XMLID_292_" class="st2" d="M46.5,55.4c-5.7,0-10.1,2.9-10.1,6.6s4.5,6.6,10.1,6.6s10.1-2.9,10.1-6.6
			S52.2,55.4,46.5,55.4L46.5,55.4z M46.5,55.4"/>
		<path id="XMLID_289_" class="st3" d="M46.5,53.2c-5.7,0-10.1,2.9-10.1,6.6c0,3.7,4.5,6.6,10.1,6.6s10.1-2.9,10.1-6.6
			C56.7,56.1,52.2,53.2,46.5,53.2L46.5,53.2z M46.5,53.2"/>
		<path id="XMLID_286_" class="st2" d="M46.5,51c-5.7,0-10.1,2.9-10.1,6.6c0,3.7,4.5,6.6,10.1,6.6s10.1-2.9,10.1-6.6
			C56.7,53.9,52.2,51,46.5,51L46.5,51z M46.5,51"/>
		<path id="XMLID_283_" class="st3" d="M36.4,61.9c0,3.7,4.5,6.6,10.1,6.6V55.4C40.8,55.4,36.4,58.3,36.4,61.9L36.4,61.9z
			 M36.4,61.9"/>
		<path id="XMLID_280_" class="st4" d="M36.4,59.7c0,3.7,4.5,6.6,10.1,6.6V53.2C40.8,53.2,36.4,56.1,36.4,59.7L36.4,59.7z
			 M36.4,59.7"/>
		<path id="XMLID_277_" class="st3" d="M36.4,57.6c0,3.7,4.5,6.6,10.1,6.6V51C40.8,51,36.4,53.9,36.4,57.6L36.4,57.6z M36.4,57.6"/>
		<path id="XMLID_274_" class="st3" d="M46.5,48.8c-5.7,0-10.1,2.9-10.1,6.6c0,3.7,4.5,6.6,10.1,6.6s10.1-2.9,10.1-6.6
			C56.7,51.7,52.2,48.8,46.5,48.8L46.5,48.8z M46.5,48.8"/>
		<path id="XMLID_271_" class="st4" d="M36.4,55.4c0,3.7,4.5,6.6,10.1,6.6V48.8C40.8,48.8,36.4,51.7,36.4,55.4L36.4,55.4z
			 M36.4,55.4"/>
		<path id="XMLID_268_" class="st2" d="M46.5,46.6c-5.7,0-10.1,2.9-10.1,6.6s4.5,6.6,10.1,6.6s10.1-2.9,10.1-6.6
			S52.2,46.6,46.5,46.6L46.5,46.6z M46.5,46.6"/>
		<path id="XMLID_264_" class="st5" d="M46.5,57.6c-4.1,0-7.1-1.8-7.1-4.4c0-2.5,3-4.4,7.1-4.4s7.1,1.8,7.1,4.4
			C53.6,55.7,50.6,57.6,46.5,57.6L46.5,57.6z M46.5,51c-3.1,0-5.1,1.3-5.1,2.2c0,0.9,1.9,2.2,5.1,2.2s5.1-1.3,5.1-2.2
			C51.6,52.3,49.7,51,46.5,51L46.5,51z M46.5,51"/>
	</g>
</g>
</svg>
