<?xml version="1.0" encoding="utf-8"?>
<!-- Generator: Adobe Illustrator 19.0.0, SVG Export Plug-In . SVG Version: 6.00 Build 0)  -->
<svg version="1.1" id="Layer_1" xmlns="http://www.w3.org/2000/svg" xmlns:xlink="http://www.w3.org/1999/xlink" x="0px" y="0px"
	 viewBox="-10 12 128 128" style="enable-background:new -10 12 128 128;" xml:space="preserve">
<style type="text/css">
	.st0{fill:none;stroke:#CCEBF8;stroke-width:4;stroke-miterlimit:10;}
	.st1{fill:#FAA93B;}
	.st2{fill:#3957A7;}
	.st3{fill:#5D647F;}
	.st4{fill:#5C546A;}
	.st5{fill:#B8BAC0;}
	.st6{fill:#6C748D;}
	.st7{fill:#FF4F19;}
	.st8{fill:#FFD100;}
	.st9{fill:#8A8895;}
	.st10{fill:#FF9500;}
	.st11{fill:#FFFFFF;}
	.st12{font-family:'MyriadPro-BoldIt';}
	.st13{font-size:3.2895px;}
</style>
<g id="Layer_1_1_">
	<circle id="XMLID_1_" class="st0" cx="54" cy="76" r="62"/>
</g>
<g id="Layer_2">
	<circle id="XMLID_2_" class="st1" cx="54" cy="76" r="52.5"/>
</g>
<polyline class="st2" points="78.2,93.7 77.4,93.6 77.8,93.8 "/>
<g>
	<path class="st3" d="M23.8,82.9h32.1c2.4,0,4.3-1.9,4.3-4.3V58.3c0-2.4-1.9-4.3-4.3-4.3H23.8c-2.4,0-4.3,1.9-4.3,4.3v20.3
		C19.5,81,21.4,82.9,23.8,82.9L23.8,82.9z M23.8,82.9"/>
	<path class="st4" d="M41.9,78.6h12.8c0.6,0,1.1-0.5,1.1-1.1c0-0.6-0.5-1.1-1.1-1.1H41.9c-0.6,0-1.1,0.5-1.1,1.1
		C40.9,78.2,41.4,78.6,41.9,78.6L41.9,78.6z M41.9,78.6"/>
	<path class="st4" d="M41.9,74.4h4.3c0.6,0,1.1-0.5,1.1-1.1s-0.5-1.1-1.1-1.1h-4.3c-0.6,0-1.1,0.5-1.1,1.1S41.4,74.4,41.9,74.4
		L41.9,74.4z M41.9,74.4"/>
	<path class="st4" d="M33.4,74.4h4.3c0.6,0,1.1-0.5,1.1-1.1s-0.5-1.1-1.1-1.1h-4.3c-0.6,0-1.1,0.5-1.1,1.1S32.8,74.4,33.4,74.4
		L33.4,74.4z M33.4,74.4"/>
	<path class="st4" d="M33.4,78.6h4.3c0.6,0,1.1-0.5,1.1-1.1c0-0.6-0.5-1.1-1.1-1.1h-4.3c-0.6,0-1.1,0.5-1.1,1.1
		C32.3,78.2,32.8,78.6,33.4,78.6L33.4,78.6z M33.4,78.6"/>
	<path class="st4" d="M24.8,74.4h4.3c0.6,0,1.1-0.5,1.1-1.1s-0.5-1.1-1.1-1.1h-4.3c-0.6,0-1.1,0.5-1.1,1.1S24.2,74.4,24.8,74.4
		L24.8,74.4z M24.8,74.4"/>
	<path class="st5" d="M54.8,69h-30c-0.6,0-1.1-0.5-1.1-1.1s0.5-1.1,1.1-1.1h30c0.6,0,1.1,0.5,1.1,1.1S55.4,69,54.8,69L54.8,69z
		 M54.8,69"/>
	<rect x="19.5" y="58.3" class="st4" width="40.7" height="5.4"/>
	<path class="st6" d="M83.7,101.1H51.6c-2.4,0-4.3-1.9-4.3-4.3V76.5c0-2.4,1.9-4.3,4.3-4.3h32.1c2.4,0,4.3,1.9,4.3,4.3v20.3
		C88,99.2,86,101.1,83.7,101.1L83.7,101.1z M83.7,101.1"/>
	<path class="st7" d="M76.2,83.6c-0.8,0.9-1.9,1.4-3.2,1.4c-2.4,0-4.3-1.9-4.3-4.3c0-2.4,1.9-4.3,4.3-4.3c1.3,0,2.4,0.6,3.2,1.5"/>
	<path class="st8" d="M60.1,85.1h-6.4c-1.2,0-2.1-1-2.1-2.1v-4.3c0-1.2,1-2.1,2.1-2.1h6.4c1.2,0,2.1,1,2.1,2.1v4.3
		C62.3,84.1,61.3,85.1,60.1,85.1L60.1,85.1z M60.1,85.1"/>
	<path class="st5" d="M56.9,92.5h-4.3c-0.6,0-1.1-0.5-1.1-1.1s0.5-1.1,1.1-1.1h4.3c0.6,0,1.1,0.5,1.1,1.1S57.5,92.5,56.9,92.5
		L56.9,92.5z M56.9,92.5"/>
	<path class="st9" d="M65.5,96.8H52.6c-0.6,0-1.1-0.5-1.1-1.1c0-0.6,0.5-1.1,1.1-1.1h12.8c0.6,0,1.1,0.5,1.1,1.1
		C66.6,96.4,66.1,96.8,65.5,96.8L65.5,96.8z M65.5,96.8"/>
	<path class="st5" d="M65.5,92.5h-4.3c-0.6,0-1.1-0.5-1.1-1.1s0.5-1.1,1.1-1.1h4.3c0.6,0,1.1,0.5,1.1,1.1S66.1,92.5,65.5,92.5
		L65.5,92.5z M65.5,92.5"/>
	<path class="st5" d="M74,92.5h-4.3c-0.6,0-1.1-0.5-1.1-1.1s0.5-1.1,1.1-1.1H74c0.6,0,1.1,0.5,1.1,1.1S74.6,92.5,74,92.5L74,92.5z
		 M74,92.5"/>
	<path class="st9" d="M74,96.8h-4.3c-0.6,0-1.1-0.5-1.1-1.1c0-0.6,0.5-1.1,1.1-1.1H74c0.6,0,1.1,0.5,1.1,1.1
		C75.1,96.4,74.6,96.8,74,96.8L74,96.8z M74,96.8"/>
	<path class="st5" d="M82.6,92.5h-4.3c-0.6,0-1.1-0.5-1.1-1.1s0.5-1.1,1.1-1.1h4.3c0.6,0,1.1,0.5,1.1,1.1S83.2,92.5,82.6,92.5
		L82.6,92.5z M82.6,92.5"/>
	<path class="st8" d="M83.7,80.8c0,2.4-1.9,4.3-4.3,4.3c-2.4,0-4.3-1.9-4.3-4.3c0-2.4,1.9-4.3,4.3-4.3
		C81.8,76.5,83.7,78.4,83.7,80.8L83.7,80.8z M83.7,80.8"/>
	<path class="st10" d="M56.9,79.7v-3.2h-2.1v8.6h2.1v-3.2h5.4v-2.1H56.9z M56.9,79.7"/>
</g>
<path class="st11" d="M84.5,98.1h-8c-0.2,0-0.3-0.1-0.3-0.3v-4.1c0-0.2,0.1-0.3,0.3-0.3h8c0.2,0,0.3,0.1,0.3,0.3v4.1
	C84.8,97.9,84.6,98.1,84.5,98.1z"/>
<text transform="matrix(1 0 0 1 77.1665 96.725)" class="st2 st12 st13">VISA</text>
</svg>
