<?xml version="1.0" encoding="utf-8"?>
<!-- Generator: Adobe Illustrator 19.0.0, SVG Export Plug-In . SVG Version: 6.00 Build 0)  -->
<svg version="1.1" xmlns="http://www.w3.org/2000/svg" xmlns:xlink="http://www.w3.org/1999/xlink" x="0px" y="0px"
	 viewBox="0 0 128 128" style="enable-background:new 0 0 128 128;" xml:space="preserve">
<style type="text/css">
	.st0{fill:none;stroke:#CCEBF8;stroke-width:4;stroke-miterlimit:10;}
	.st1{fill:#FAA93B;}
	.st2{fill:#5D647F;}
	.st3{clip-path:url(#XMLID_27_);fill:#68748D;}
	.st4{clip-path:url(#XMLID_27_);fill:#74829C;}
	.st5{fill:#5C546A;}
	.st6{fill:#FFE671;}
	.st7{fill:#FFCD00;}
</style>
<g id="Layer_1">
	<circle id="XMLID_1_" class="st0" cx="64" cy="64" r="62"/>
</g>
<g id="Layer_2">
	<circle id="XMLID_2_" class="st1" cx="64" cy="64" r="52.5"/>
</g>
<g id="Layer_3">
	<g id="XMLID_25_">
		<path id="XMLID_55_" class="st2" d="M85.1,57.5c0-0.3-0.1-0.7-0.4-0.9c-0.3-0.2-0.6-0.3-0.9-0.3L43.9,61c-0.6,0.1-1,0.6-1,1.2
			v10.6c0,4.6,13.3,5.9,21.1,5.9c7.8,0,21.1-1.2,21.1-5.9v0L85.1,57.5z M85.1,57.5"/>
		<g id="XMLID_47_">
			<defs>
				<rect id="XMLID_17_" x="26.6" y="39.8" width="74.7" height="48.3"/>
			</defs>
			<clipPath id="XMLID_27_">
				<use xlink:href="#XMLID_17_"  style="overflow:visible;"/>
			</clipPath>
			<path id="XMLID_52_" class="st3" d="M85.1,61H63.9v17.6c0,0,0,0,0,0c7.6,0,20.4-1.2,21.1-5.5V61z M85.1,61"/>
			<path id="XMLID_49_" class="st4" d="M98.9,51l-30-10.3c-3.2-1.1-6.7-1.1-9.9,0L29,51c-1.4,0.5-2.4,1.8-2.4,3.3
				c0,1.5,0.9,2.8,2.4,3.3L59,68c1.6,0.5,3.3,0.8,4.9,0.8c1.7,0,3.4-0.3,4.9-0.8l30-10.3c1.4-0.5,2.4-1.8,2.4-3.3
				C101.3,52.8,100.4,51.5,98.9,51L98.9,51z M98.9,51"/>
		</g>
		<path id="XMLID_44_" class="st5" d="M86.2,79.8c-0.6,0-1.2-0.5-1.2-1.2V63.3c0-0.5-0.3-0.9-0.8-1.1l-20.7-7.1
			c-0.6-0.2-0.9-0.9-0.7-1.5c0.2-0.6,0.9-0.9,1.5-0.7L85,60c1.4,0.5,2.4,1.8,2.4,3.3v15.3C87.4,79.3,86.9,79.8,86.2,79.8L86.2,79.8z
			 M86.2,79.8"/>
		<path id="XMLID_41_" class="st6" d="M87.4,88h-2.3c-0.6,0-1.2-0.5-1.2-1.2v-7c0-1.3,1.1-2.3,2.3-2.3c1.3,0,2.3,1.1,2.3,2.3v7
			C88.6,87.5,88,88,87.4,88L87.4,88z M87.4,88"/>
		<path id="XMLID_38_" class="st2" d="M64,73.9c8.5,0,17.1-1.3,21.1-3.8l0-3.2c-0.1,1.6-7.6,4.6-21.1,4.6c-13.7,0-21.1-3.1-21.1-4.7
			v3.3C46.9,72.6,55.5,73.9,64,73.9L64,73.9z M64,73.9"/>
		<path id="XMLID_35_" class="st5" d="M85.1,70.2C85.1,70.1,85.1,70.1,85.1,70.2l0-3.2c0,0,0,0,0,0.1V70.2z M85.1,70.2"/>
		<path id="XMLID_32_" class="st5" d="M63.9,71.6c-13.6,0-21.1-3.1-21.1-4.7v3.3c4,2.5,12.6,3.8,21.1,3.8V71.6z M63.9,71.6"/>
		<path id="XMLID_29_" class="st2" d="M68.7,54c0,1.3-2.1,2.3-4.7,2.3c-2.6,0-4.7-1.1-4.7-2.3c0-1.3,2.1-2.3,4.7-2.3
			C66.6,51.6,68.7,52.7,68.7,54L68.7,54z M68.7,54"/>
		<path id="XMLID_26_" class="st7" d="M83.9,79.8v7c0,0.6,0.5,1.2,1.2,1.2h1.2V77.4C84.9,77.4,83.9,78.5,83.9,79.8L83.9,79.8z
			 M83.9,79.8"/>
	</g>
</g>
</svg>
