<?xml version="1.0" encoding="utf-8"?>
<!-- Generator: Adobe Illustrator 19.0.0, SVG Export Plug-In . SVG Version: 6.00 Build 0)  -->
<svg version="1.1" xmlns="http://www.w3.org/2000/svg" xmlns:xlink="http://www.w3.org/1999/xlink" x="0px" y="0px"
	 viewBox="0 0 128 128" style="enable-background:new 0 0 128 128;" xml:space="preserve">
<style type="text/css">
	.st0{fill:none;stroke:#CCEBF8;stroke-width:4;stroke-miterlimit:10;}
	.st1{fill:#FAA93B;}
	.st2{fill:#FFEBB7;}
	.st3{fill:#00C37A;}
	.st4{fill:#60DC4D;}
	.st5{fill:#00A077;}
	.st6{fill:#C9A07C;}
	.st7{fill:#E3001E;}
	.st8{fill:#FF4F19;}
	.st9{fill:#FFCD00;}
	.st10{fill:#FFE671;}
</style>
<g id="Layer_1">
	<circle id="XMLID_1_" class="st0" cx="64" cy="64" r="62"/>
</g>
<g id="Layer_2">
	<circle id="XMLID_2_" class="st1" cx="64" cy="64" r="52.5"/>
</g>
<g id="Layer_3">
	<g id="XMLID_58_">
		<path id="XMLID_136_" class="st2" d="M96.3,38.4H31.7c-1.8,0-3.3,1.5-3.3,3.3v44.6c0,1.8,1.5,3.3,3.3,3.3h64.6
			c1.8,0,3.3-1.5,3.3-3.3V41.7C99.7,39.9,98.2,38.4,96.3,38.4L96.3,38.4z M96.3,38.4"/>
		<path id="XMLID_133_" class="st3" d="M33.9,50.6c-0.3,0-0.6-0.1-0.8-0.3c-0.2-0.2-0.3-0.5-0.3-0.8c0-0.3,0.1-0.6,0.3-0.8
			c0.4-0.4,1.2-0.4,1.6,0c0.2,0.2,0.3,0.5,0.3,0.8c0,0.3-0.1,0.6-0.3,0.8C34.5,50.5,34.2,50.6,33.9,50.6L33.9,50.6z M33.9,50.6"/>
		<path id="XMLID_130_" class="st4" d="M33.9,75.1c-0.6,0-1.1-0.5-1.1-1.1V54c0-0.6,0.5-1.1,1.1-1.1c0.6,0,1.1,0.5,1.1,1.1V74
			C35,74.6,34.5,75.1,33.9,75.1L33.9,75.1z M33.9,75.1"/>
		<path id="XMLID_127_" class="st4" d="M94.1,75.1c-0.6,0-1.1-0.5-1.1-1.1V54c0-0.6,0.5-1.1,1.1-1.1c0.6,0,1.1,0.5,1.1,1.1V74
			C95.2,74.6,94.7,75.1,94.1,75.1L94.1,75.1z M94.1,75.1"/>
		<path id="XMLID_124_" class="st4" d="M84.1,85.2H43.9c-0.6,0-1.1-0.5-1.1-1.1c0-0.6,0.5-1.1,1.1-1.1h40.1c0.6,0,1.1,0.5,1.1,1.1
			C85.2,84.7,84.7,85.2,84.1,85.2L84.1,85.2z M84.1,85.2"/>
		<path id="XMLID_121_" class="st4" d="M84.1,45.1H43.9c-0.6,0-1.1-0.5-1.1-1.1s0.5-1.1,1.1-1.1h40.1c0.6,0,1.1,0.5,1.1,1.1
			S84.7,45.1,84.1,45.1L84.1,45.1z M84.1,45.1"/>
		<path id="XMLID_118_" class="st3" d="M39.5,45.1c-0.3,0-0.6-0.1-0.8-0.3c-0.2-0.2-0.3-0.5-0.3-0.8c0-0.3,0.1-0.6,0.3-0.8
			c0.4-0.4,1.2-0.4,1.6,0c0.2,0.2,0.3,0.5,0.3,0.8c0,0.3-0.1,0.6-0.3,0.8C40.1,44.9,39.8,45.1,39.5,45.1L39.5,45.1z M39.5,45.1"/>
		<path id="XMLID_115_" class="st5" d="M37.3,48.4c-0.3,0-0.6-0.1-0.8-0.3l-3.3-3.3c-0.4-0.4-0.4-1.1,0-1.6c0.4-0.4,1.1-0.4,1.6,0
			l3.3,3.3c0.4,0.4,0.4,1.1,0,1.6C37.8,48.3,37.5,48.4,37.3,48.4L37.3,48.4z M37.3,48.4"/>
		<path id="XMLID_112_" class="st3" d="M88.5,45.1c-0.3,0-0.6-0.1-0.8-0.3c-0.2-0.2-0.3-0.5-0.3-0.8c0-0.3,0.1-0.6,0.3-0.8
			c0.4-0.4,1.2-0.4,1.6,0c0.2,0.2,0.3,0.5,0.3,0.8c0,0.3-0.1,0.6-0.3,0.8C89.1,44.9,88.8,45.1,88.5,45.1L88.5,45.1z M88.5,45.1"/>
		<path id="XMLID_109_" class="st3" d="M94.1,50.6c-0.3,0-0.6-0.1-0.8-0.3c-0.2-0.2-0.3-0.5-0.3-0.8c0-0.3,0.1-0.6,0.3-0.8
			c0.4-0.4,1.2-0.4,1.6,0c0.2,0.2,0.3,0.5,0.3,0.8c0,0.3-0.1,0.6-0.3,0.8C94.7,50.5,94.4,50.6,94.1,50.6L94.1,50.6z M94.1,50.6"/>
		<path id="XMLID_106_" class="st5" d="M90.7,48.4c-0.3,0-0.6-0.1-0.8-0.3c-0.4-0.4-0.4-1.1,0-1.6l3.3-3.3c0.4-0.4,1.1-0.4,1.6,0
			c0.4,0.4,0.4,1.1,0,1.6l-3.3,3.3C91.3,48.3,91,48.4,90.7,48.4L90.7,48.4z M90.7,48.4"/>
		<path id="XMLID_103_" class="st3" d="M94.1,79.6c-0.3,0-0.6-0.1-0.8-0.3c-0.2-0.2-0.3-0.5-0.3-0.8c0-0.3,0.1-0.6,0.3-0.8
			c0.4-0.4,1.2-0.4,1.6,0c0.2,0.2,0.3,0.5,0.3,0.8c0,0.3-0.1,0.6-0.3,0.8C94.7,79.5,94.4,79.6,94.1,79.6L94.1,79.6z M94.1,79.6"/>
		<path id="XMLID_100_" class="st3" d="M88.5,85.2c-0.3,0-0.6-0.1-0.8-0.3c-0.2-0.2-0.3-0.5-0.3-0.8c0-0.3,0.1-0.6,0.3-0.8
			c0.4-0.4,1.2-0.4,1.6,0c0.2,0.2,0.3,0.5,0.3,0.8c0,0.3-0.1,0.6-0.3,0.8C89.1,85,88.8,85.2,88.5,85.2L88.5,85.2z M88.5,85.2"/>
		<path id="XMLID_97_" class="st5" d="M94.1,85.2c-0.3,0-0.6-0.1-0.8-0.3L90,81.5c-0.4-0.4-0.4-1.1,0-1.6s1.1-0.4,1.6,0l3.3,3.3
			c0.4,0.4,0.4,1.1,0,1.6C94.7,85.1,94.4,85.2,94.1,85.2L94.1,85.2z M94.1,85.2"/>
		<path id="XMLID_94_" class="st3" d="M39.5,85.2c-0.3,0-0.6-0.1-0.8-0.3c-0.2-0.2-0.3-0.5-0.3-0.8c0-0.3,0.1-0.6,0.3-0.8
			c0.4-0.4,1.2-0.4,1.6,0c0.2,0.2,0.3,0.5,0.3,0.8c0,0.3-0.1,0.6-0.3,0.8C40.1,85,39.8,85.2,39.5,85.2L39.5,85.2z M39.5,85.2"/>
		<path id="XMLID_91_" class="st3" d="M33.9,79.6c-0.3,0-0.6-0.1-0.8-0.3c-0.2-0.2-0.3-0.5-0.3-0.8c0-0.3,0.1-0.6,0.3-0.8
			c0.4-0.4,1.2-0.4,1.6,0c0.2,0.2,0.3,0.5,0.3,0.8c0,0.3-0.1,0.6-0.3,0.8C34.5,79.5,34.2,79.6,33.9,79.6L33.9,79.6z M33.9,79.6"/>
		<path id="XMLID_88_" class="st5" d="M33.9,85.2c-0.3,0-0.6-0.1-0.8-0.3c-0.4-0.4-0.4-1.1,0-1.6l3.3-3.3c0.4-0.4,1.1-0.4,1.6,0
			c0.4,0.4,0.4,1.1,0,1.6l-3.3,3.3C34.5,85.1,34.2,85.2,33.9,85.2L33.9,85.2z M33.9,85.2"/>
		<path id="XMLID_85_" class="st5" d="M72.9,51.7H55.1c-0.6,0-1.1-0.5-1.1-1.1c0-0.6,0.5-1.1,1.1-1.1h17.8c0.6,0,1.1,0.5,1.1,1.1
			C74,51.2,73.5,51.7,72.9,51.7L72.9,51.7z M72.9,51.7"/>
		<path id="XMLID_82_" class="st5" d="M84.1,56.2H43.9c-0.6,0-1.1-0.5-1.1-1.1c0-0.6,0.5-1.1,1.1-1.1h40.1c0.6,0,1.1,0.5,1.1,1.1
			C85.2,55.7,84.7,56.2,84.1,56.2L84.1,56.2z M84.1,56.2"/>
		<path id="XMLID_79_" class="st6" d="M68.5,64H43.9c-0.6,0-1.1-0.5-1.1-1.1c0-0.6,0.5-1.1,1.1-1.1h24.5c0.6,0,1.1,0.5,1.1,1.1
			C69.6,63.5,69.1,64,68.5,64L68.5,64z M68.5,64"/>
		<path id="XMLID_76_" class="st6" d="M61.8,77.4H43.9c-0.6,0-1.1-0.5-1.1-1.1c0-0.6,0.5-1.1,1.1-1.1h17.8c0.6,0,1.1,0.5,1.1,1.1
			C62.9,76.9,62.4,77.4,61.8,77.4L61.8,77.4z M61.8,77.4"/>
		<path id="XMLID_73_" class="st6" d="M66.2,72.9H43.9c-0.6,0-1.1-0.5-1.1-1.1s0.5-1.1,1.1-1.1h22.3c0.6,0,1.1,0.5,1.1,1.1
			S66.8,72.9,66.2,72.9L66.2,72.9z M66.2,72.9"/>
		<path id="XMLID_70_" class="st6" d="M57.3,68.5H43.9c-0.6,0-1.1-0.5-1.1-1.1c0-0.6,0.5-1.1,1.1-1.1h13.4c0.6,0,1.1,0.5,1.1,1.1
			C58.4,68,57.9,68.5,57.3,68.5L57.3,68.5z M57.3,68.5"/>
		<path id="XMLID_67_" class="st6" d="M64,68.5h-2.2c-0.6,0-1.1-0.5-1.1-1.1c0-0.6,0.5-1.1,1.1-1.1H64c0.6,0,1.1,0.5,1.1,1.1
			C65.1,68,64.6,68.5,64,68.5L64,68.5z M64,68.5"/>
		<path id="XMLID_8_" class="st7" d="M84.3,70.5l2.6,6.2c0.2,0.5-0.3,0.9-0.7,0.7l-1.7-0.7l-0.7,1.7c-0.2,0.5-0.8,0.5-1,0L80,71.8"
			/>
		<path id="XMLID_7_" class="st8" d="M77,70.4l-2.6,6.3c-0.2,0.5,0.3,0.9,0.7,0.7l1.7-0.7l0.7,1.7c0.2,0.5,0.8,0.5,1,0l2.7-6.6"/>
		<path id="XMLID_62_" class="st9" d="M86.3,66.2c0,3.1-2.5,5.6-5.6,5.6s-5.6-2.5-5.6-5.6c0-3.1,2.5-5.6,5.6-5.6
			S86.3,63.2,86.3,66.2L86.3,66.2z M86.3,66.2"/>
		<path id="XMLID_59_" class="st10" d="M80.7,64c-1.2,0-2.2,1-2.2,2.2c0,1.2,1,2.2,2.2,2.2c1.2,0,2.2-1,2.2-2.2
			C82.9,65,81.9,64,80.7,64L80.7,64z M80.7,64"/>
	</g>
</g>
</svg>
