<?xml version="1.0" encoding="utf-8"?>
<!-- Generator: Adobe Illustrator 19.0.0, SVG Export Plug-In . SVG Version: 6.00 Build 0)  -->
<svg version="1.1" xmlns="http://www.w3.org/2000/svg" xmlns:xlink="http://www.w3.org/1999/xlink" x="0px" y="0px"
	 viewBox="0 0 128 128" style="enable-background:new 0 0 128 128;" xml:space="preserve">
<style type="text/css">
	.st0{fill:none;stroke:#CCEBF8;stroke-width:4;stroke-miterlimit:10;}
	.st1{fill:#80397B;}
	.st2{fill:#FFB980;}
	.st3{fill:#F8AB6B;}
	.st4{fill:#00E68C;}
	.st5{fill:#FDC88E;}
	.st6{fill:#5C546A;}
	.st7{fill:#00ABFF;}
	.st8{fill:#7E5C62;}
	.st9{fill:#FF4F19;}
	.st10{fill:#FFE1B2;}
	.st11{fill:#7E5449;}
</style>
<g id="Layer_1">
	<circle id="XMLID_1_" class="st0" cx="64" cy="64" r="62"/>
</g>
<g id="Layer_2">
	<circle id="XMLID_2_" class="st1" cx="64" cy="64" r="52.5"/>
</g>
<g id="Layer_3">
	<g id="XMLID_34_">
		<path id="XMLID_77_" class="st2" d="M46.9,70.6c-2.4,0-4.7-1-6.3-2.7c0,1,0,2.5-0.3,3.5c0.2,0.1,0.3,0.3,0.3,0.5
			c0.3,2.8,3,5,6.3,5s5.9-2.1,6.3-5c0-0.2,0.2-0.4,0.3-0.5c-0.3-1.1-0.3-2.5-0.3-3.5C51.6,69.6,49.3,70.6,46.9,70.6L46.9,70.6z
			 M46.9,70.6"/>
		<path id="XMLID_74_" class="st3" d="M53.1,68c-1.6,1.6-3.8,2.6-6.2,2.6c-2.4,0-4.7-1-6.3-2.7c0,1,0,2.5-0.3,3.5
			c0.2,0.1,0.3,0.3,0.3,0.5c0.2,1.3,0.8,2.4,1.7,3.2C46.5,74.6,51.3,70.4,53.1,68L53.1,68z M53.1,68"/>
		<path id="XMLID_71_" class="st4" d="M59.7,72.2C59.6,72.2,59.6,72.2,59.7,72.2L54,71.4c0,0-0.1,0-0.1,0c-0.4,0-0.7,0.3-0.7,0.6
			c-0.3,2.8-3,5-6.3,5c-3.2,0-5.9-2.1-6.3-5c0-0.4-0.4-0.6-0.7-0.6c0,0-0.1,0-0.1,0l-5.6,0.8c0,0-0.1,0-0.1,0c-2.6,0.7-4,3.3-4,5.5
			v2.7c0,1.2,1,2.1,2.3,2.1h29c1.3,0,2.3-0.9,2.3-2.1v-2.7C63.7,75.5,62.3,72.9,59.7,72.2L59.7,72.2z M59.7,72.2"/>
		<path id="XMLID_68_" class="st5" d="M53.2,53.2H41.3c-1.9,0-3.5,1.6-3.5,3.5v4.2c0,5.4,4.1,9.8,9.1,9.8s9.1-4.4,9.1-9.8V56
			C56,54.4,54.7,53.2,53.2,53.2L53.2,53.2z M53.2,53.2"/>
		<path id="XMLID_65_" class="st6" d="M51.8,45.5h-9.1c-1.3,0-2.4,0.9-2.7,2.1c-2.4,0.3-4.3,2.4-4.3,4.9V56c0,1.8,0.8,3.5,2.1,4.7
			v-4c0-1.9,1.6-3.5,3.5-3.5h11.9c1.5,0,2.8,1.3,2.8,2.8v4.7c1.3-1.2,2.1-2.9,2.1-4.7v-4.2C58.1,48.3,55.3,45.5,51.8,45.5L51.8,45.5
			z M51.8,45.5"/>
		<path id="XMLID_62_" class="st2" d="M81.1,70.6c-2.4,0-4.7-1-6.3-2.7c0,1,0,2.5-0.3,3.5c0.2,0.1,0.3,0.3,0.3,0.5
			c0.3,2.8,3,5,6.3,5c3.2,0,5.9-2.1,6.3-5c0-0.2,0.2-0.4,0.3-0.5c-0.3-1.1-0.3-2.5-0.3-3.5C85.8,69.6,83.5,70.6,81.1,70.6L81.1,70.6
			z M81.1,70.6"/>
		<path id="XMLID_59_" class="st3" d="M87.3,68c-1.6,1.6-3.8,2.6-6.2,2.6c-2.4,0-4.7-1-6.3-2.7c0,1,0,2.5-0.3,3.5
			c0.2,0.1,0.3,0.3,0.3,0.5c0.2,1.3,0.8,2.4,1.7,3.2C80.7,74.6,85.5,70.4,87.3,68L87.3,68z M87.3,68"/>
		<path id="XMLID_56_" class="st7" d="M93.9,72.2C93.8,72.2,93.8,72.2,93.9,72.2l-5.7-0.9c0,0-0.1,0-0.1,0c-0.4,0-0.7,0.3-0.7,0.6
			c-0.3,2.8-3,5-6.3,5c-3.2,0-5.9-2.1-6.3-5c0-0.4-0.4-0.6-0.7-0.6c0,0-0.1,0-0.1,0l-5.6,0.8c0,0-0.1,0-0.1,0c-2.6,0.7-4,3.3-4,5.5
			v2.7c0,1.2,1,2.1,2.3,2.1h29c1.3,0,2.3-0.9,2.3-2.1v-2.7C97.9,75.5,96.5,72.9,93.9,72.2L93.9,72.2z M93.9,72.2"/>
		<path id="XMLID_53_" class="st5" d="M87.4,53.2H75.5c-1.9,0-3.5,1.6-3.5,3.5v4.2c0,5.4,4.1,9.8,9.1,9.8c5,0,9.1-4.4,9.1-9.8V56
			C90.2,54.4,88.9,53.2,87.4,53.2L87.4,53.2z M87.4,53.2"/>
		<path id="XMLID_50_" class="st8" d="M86,45.5h-9.1c-1.3,0-2.4,0.9-2.7,2.1c-2.4,0.3-4.3,2.4-4.3,4.9V56c0,1.8,0.8,3.5,2.1,4.7v-4
			c0-1.9,1.6-3.5,3.5-3.5h11.9c1.5,0,2.8,1.3,2.8,2.8v4.7c1.3-1.2,2.1-2.9,2.1-4.7v-4.2C92.3,48.3,89.5,45.5,86,45.5L86,45.5z
			 M86,45.5"/>
		<path id="XMLID_47_" class="st5" d="M64,74.1c-3.7,0-7.1-1.6-9.5-4.2c0,1.5-0.1,3.8-0.5,5.4c0.3,0.2,0.5,0.4,0.5,0.8
			c0.5,4.3,4.6,7.5,9.5,7.5c4.9,0,8.9-3.2,9.5-7.5c0-0.3,0.2-0.6,0.5-0.8c-0.4-1.6-0.5-3.8-0.5-5.4C71.1,72.5,67.7,74.1,64,74.1
			L64,74.1z M64,74.1"/>
		<path id="XMLID_44_" class="st2" d="M73.3,70.1c-2.5,2.4-5.7,4-9.3,4c-3.7,0-7.1-1.6-9.5-4.2c0,1.5-0.1,3.8-0.5,5.4
			c0.3,0.2,0.5,0.4,0.5,0.8c0.2,1.9,1.2,3.6,2.5,4.9C63.4,80,70.7,73.7,73.3,70.1L73.3,70.1z M73.3,70.1"/>
		<path id="XMLID_41_" class="st9" d="M83.3,76.4c0,0-0.1,0-0.1,0l-8.4-1.3c-0.1,0-0.2,0-0.2,0c-0.5,0-1,0.4-1.1,0.9
			c-0.5,4.3-4.6,7.5-9.5,7.5c-4.9,0-8.9-3.2-9.5-7.5c-0.1-0.5-0.6-1-1.1-0.9c-0.1,0-0.1,0-0.2,0l-8.4,1.3c0,0-0.1,0-0.1,0
			c-4,1.1-6.1,5-6.1,8.4v4.1c0,1.7,1.6,3.2,3.5,3.2h43.9c1.9,0,3.5-1.4,3.5-3.2v-4.1C89.4,81.5,87.3,77.5,83.3,76.4L83.3,76.4z
			 M83.3,76.4"/>
		<path id="XMLID_38_" class="st10" d="M73.5,47.6h-18c-2.9,0-5.3,2.4-5.3,5.3v6.4c0,8.2,6.2,14.8,13.8,14.8s13.8-6.6,13.8-14.8
			v-7.4C77.8,49.5,75.9,47.6,73.5,47.6L73.5,47.6z M73.5,47.6"/>
		<path id="XMLID_35_" class="st11" d="M71.4,36H57.6c-2,0-3.7,1.4-4.1,3.2c-3.6,0.5-6.5,3.6-6.5,7.4v5.3c0,2.7,1.2,5.3,3.2,7.1v-6
			c0-2.9,2.4-5.3,5.3-5.3h18c2.3,0,4.2,1.9,4.2,4.2v7.1c2-1.8,3.2-4.4,3.2-7.1v-6.4C80.9,40.2,76.7,36,71.4,36L71.4,36z M71.4,36"/>
	</g>
</g>
</svg>
