<?xml version="1.0" encoding="utf-8"?>
<!-- Generator: Adobe Illustrator 19.0.0, SVG Export Plug-In . SVG Version: 6.00 Build 0)  -->
<svg version="1.1" xmlns="http://www.w3.org/2000/svg" xmlns:xlink="http://www.w3.org/1999/xlink" x="0px" y="0px"
	 viewBox="0 0 140 120" style="enable-background:new 0 0 140 120;" xml:space="preserve">
<style type="text/css">
	.st0{fill:#7E5C62;}
	.st1{fill:#9F6459;}
	.st2{fill:#FF9600;}
	.st3{fill:#FFD200;}
	.st4{fill:#5D647F;}
	.st5{clip-path:url(#XMLID_54_);fill:#5C546A;}
	.st6{clip-path:url(#XMLID_54_);fill:#527992;}
	.st7{fill:#5C546A;}
</style>
<g id="Layer_1">
	<g id="XMLID_2_">
		<path id="XMLID_24_" class="st0" d="M40.9,32.3v-4.4c0-2.9,2.3-5.2,5.1-5.2h21.7c2.8,0,5.1,2.3,5.1,5.2v4.4h7.1v-4.4
			c0-6.8-5.5-12.4-12.3-12.4H46.1c-6.8,0-12.3,5.6-12.3,12.4v4.4H40.9z M40.9,32.3"/>
		<path id="XMLID_21_" class="st1" d="M105,31.7H8.9c-4.9,0-8.9,4-8.9,9v70.1c0,5,4,9,8.9,9H105c4.9,0,8.9-4,8.9-9V40.7
			C113.8,35.7,109.9,31.7,105,31.7L105,31.7z M105,31.7"/>
		<path id="XMLID_18_" class="st0" d="M108.5,85.6H5.3c-2.9,0-5.3-2.4-5.3-5.4v30.6c0,5,4,9,8.9,9H105c4.9,0,8.9-4,8.9-9V80.2
			C113.8,83.2,111.5,85.6,108.5,85.6L108.5,85.6z M108.5,85.6"/>
		<path id="XMLID_15_" class="st2" d="M23.1,100c-2,0-3.6-1.6-3.6-3.6v-18c0-2,1.6-3.6,3.6-3.6c2,0,3.6,1.6,3.6,3.6v18
			C26.7,98.4,25.1,100,23.1,100L23.1,100z M23.1,100"/>
		<path id="XMLID_12_" class="st3" d="M23.1,91c-2,0-3.6-1.6-3.6-3.6v-9c0-2,1.6-3.6,3.6-3.6c2,0,3.6,1.6,3.6,3.6v9
			C26.7,89.4,25.1,91,23.1,91L23.1,91z M23.1,91"/>
		<path id="XMLID_9_" class="st2" d="M88.9,100c-2,0-3.6-1.6-3.6-3.6v-18c0-2,1.6-3.6,3.6-3.6c2,0,3.6,1.6,3.6,3.6v18
			C92.5,98.4,90.9,100,88.9,100L88.9,100z M88.9,100"/>
		<path id="XMLID_6_" class="st3" d="M88.9,91c-2,0-3.6-1.6-3.6-3.6v-9c0-2,1.6-3.6,3.6-3.6c2,0,3.6,1.6,3.6,3.6v9
			C92.5,89.4,90.9,91,88.9,91L88.9,91z M88.9,91"/>
		<path id="XMLID_3_" class="st3" d="M67.6,80.2H46.3c-1,0-1.8-0.8-1.8-1.8c0-1,0.8-1.8,1.8-1.8h21.3c1,0,1.8,0.8,1.8,1.8
			C69.4,79.4,68.6,80.2,67.6,80.2L67.6,80.2z M67.6,80.2"/>
	</g>
</g>
<g id="Layer_2">
	<g id="XMLID_1_">
		<path id="XMLID_50_" class="st4" d="M119.7,42.4L76.1,23.2c-0.7-0.3-1.4-0.1-1.7,0.5L71.3,31c-2.7,6.2,5.3,15.4,18.2,21.1
			c12.9,5.7,25.1,5.3,27.8-0.9l3.2-7.2C120.7,43.3,120.4,42.6,119.7,42.4L119.7,42.4z M119.7,42.4"/>
		<g id="XMLID_42_">
			<defs>
				
					<rect id="XMLID_43_" x="55.3" y="7.9" transform="matrix(-0.9161 -0.401 0.401 -0.9161 171.4335 106.3376)" width="83.1" height="54.7"/>
			</defs>
			<clipPath id="XMLID_54_">
				<use xlink:href="#XMLID_43_"  style="overflow:visible;"/>
			</clipPath>
			<path id="XMLID_47_" class="st5" d="M97.9,32.8l-21.9-9.6c-0.7-0.3-1.4-0.1-1.7,0.5L71.3,31c-2.7,6.2,5.3,15.4,18.2,21.1
				c0,0,0,0,0,0L97.9,32.8z M97.9,32.8"/>
			<path id="XMLID_44_" class="st6" d="M137.7,37.4l-26-24.5c-2.3-2.2-5.4-3.5-8.6-3.8L67.5,6.6c-2.1-0.1-3.8,0.8-4.6,2.4
				c-0.7,1.6-0.2,3.6,1.3,5l26,24.5c1.1,1.1,2.5,2,4,2.6c1.5,0.6,3,1,4.6,1.1l35.6,2.5c2.1,0.1,3.8-0.8,4.6-2.4
				C139.8,40.7,139.3,38.8,137.7,37.4L137.7,37.4z M137.7,37.4"/>
		</g>
		<path id="XMLID_39_" class="st7" d="M61.4,33.7c-0.7-0.3-1-1-0.8-1.5l6.7-15.3c0.4-1,1.6-1.5,2.9-1.1l26,7.2
			c0.7,0.2,1.2,0.8,1,1.4c-0.1,0.6-0.8,0.9-1.5,0.7l-26-7.2L63,33.2C62.8,33.8,62.1,34,61.4,33.7L61.4,33.7z M61.4,33.7"/>
		<path id="XMLID_36_" class="st2" d="M63.8,34.8c-0.5,1.1-2,1.5-3.3,1c-1.3-0.6-2-2-1.5-3.1c0.5-1.1,2-1.5,3.3-1
			C63.6,32.3,64.3,33.6,63.8,34.8L63.8,34.8z M63.8,34.8"/>
		<path id="XMLID_33_" class="st2" d="M96.6,22.6l-0.9,2c-0.5,1.1,1.3,3,4,4.1c2.7,1.2,5.2,1.2,5.7,0.1l0.9-2L96.6,22.6z M96.6,22.6
			"/>
		<path id="XMLID_30_" class="st3" d="M106.3,26.8c-0.5,1.1-3.1,1.1-5.7-0.1c-2.7-1.2-4.5-3-4-4.1c0.5-1.1,3.1-1.1,5.7,0.1
			C105,23.9,106.8,25.7,106.3,26.8L106.3,26.8z M106.3,26.8"/>
		<path id="XMLID_27_" class="st3" d="M57.1,36.7l-4.4,7.6c-0.3,0.6,0,1.3,0.7,1.6l4.6,2c0.7,0.3,1.5,0,1.7-0.6l2.6-8.4
			c0.4-1.2-0.4-2.6-1.8-3.2l0,0C59.3,35.2,57.8,35.6,57.1,36.7L57.1,36.7z M57.1,36.7"/>
	</g>
</g>
</svg>
