<?xml version="1.0" encoding="utf-8"?>
<!-- Generator: Adobe Illustrator 19.0.0, SVG Export Plug-In . SVG Version: 6.00 Build 0)  -->
<svg version="1.1" xmlns="http://www.w3.org/2000/svg" xmlns:xlink="http://www.w3.org/1999/xlink" x="0px" y="0px"
	 viewBox="1 -2 128 128" style="enable-background:new 1 -2 128 128;" xml:space="preserve">
<style type="text/css">
	.st0{fill:none;stroke:#CCEBF8;stroke-width:4;stroke-miterlimit:10;}
	.st1{fill:#FAA93B;}
	.st2{fill:#FF6E1D;}
	.st3{fill:#FFE471;}
	.st4{fill:#FFCC75;}
	.st5{fill:#6DA8D6;}
	.st6{fill:#082947;}
	.st7{fill:#3688C6;}
	.st8{fill:#185F8D;}
	.st9{display:none;fill:#082947;}
</style>
<g id="Layer_1">
	<g id="Layer_1_2_">
		<g id="Layer_1_1_">
			<circle id="XMLID_1_" class="st0" cx="65" cy="62" r="62"/>
		</g>
		<g id="Layer_2">
			<circle id="XMLID_2_" class="st1" cx="65" cy="62" r="52.5"/>
		</g>
	</g>
</g>
<g id="Layer_2_1_">
	<g id="Layer_3">
		<g id="XMLID_27_">
			<path id="XMLID_59_" class="st2" d="M93.1,83.6C91,83.1,89,82,87.6,80.2c-1.6-1.8-2.4-3.9-2.8-6.2H58c-0.8,0-1.4-0.7-1.4-1.5
				h-2.8c0,0.8-0.7,1.5-1.4,1.5h-4.3c-0.3,2.3-1.2,4.5-2.8,6.2c-1.6,1.8-3.4,2.9-5.5,3.4l0.6,7.4v0.1h52.3V91L93.1,83.6z"/>
			<path id="XMLID_3_" class="st3" d="M59.3,75.3h23.3c0.6,0,1.2,0.6,1.2,1.2c0,3.4,2.6,6.3,6,6.5c0.6,0.1,1.1,0.6,1,1.3l-0.5,6.8
				h3.9V91l1.4-19.5H36.8L38.3,91v0.1h3.9l-0.5-6.8c-0.1-0.6,0.5-1.2,1-1.3c3.4-0.3,6-3.1,6-6.5c0-0.6,0.6-1.2,1.2-1.2h4.7"/>
			<path id="XMLID_53_" class="st4" d="M74.3,40.4c-0.9-0.5-2-0.7-3-0.7c-1.6,0-3.2,0.6-4.4,1.7c-0.2,0.2-0.5,0.3-0.7,0.3
				c-0.3,0-0.5-0.1-0.7-0.3c-1.3-1.1-2.8-1.7-4.4-1.7c-1.1,0-2.1,0.3-3,0.7c-0.3,0.9-0.4,1.7-0.4,2.6c0,5,3.8,9.1,8.6,9.1
				c4.7,0,8.6-4,8.6-9.1C74.6,42.1,74.4,41.2,74.3,40.4L74.3,40.4z"/>
			<path id="XMLID_50_" class="st5" d="M58.1,40.9c0.9-0.3,1.8-0.5,2.9-0.5c1.9,0,3.8,0.6,5.3,1.8c1.6-1.1,3.4-1.8,5.3-1.8
				c1,0,1.9,0.2,2.9,0.5v-10H58.1V40.9z"/>
			<path id="XMLID_45_" class="st6" d="M74.8,31.8h4.3v10.3l-0.9,2.1c-0.2,0.4,0,0.9,0.5,1.1c0.4,0.2,0.9,0,1.2-0.5l0.1-0.3l0.1,0.3
				c0.1,0.3,0.5,0.5,0.8,0.5c0.1,0,0.2,0,0.3-0.1c0.4-0.2,0.7-0.7,0.5-1.1l-0.9-2.1V31.8h0.9c0.5,0,0.9-0.4,0.9-0.9
				c0-0.5-0.4-0.9-0.9-0.9H52.5c-0.5,0-0.9,0.4-0.9,0.9c0.1,0.5,0.4,0.9,0.9,0.9l0,0h6.8 M67.1,48.7 M61.1,31.9h12"/>
			<path id="XMLID_42_" class="st7" d="M54.9,56.9l9.4,10.5v-4.8c0-0.9,0.7-1.7,1.6-1.7c0.8,0,1.6,0.8,1.6,1.7v4.8l9.4-10.5
				c-2.9-1.6-6.1-2.7-9.4-2.8v1.7c0,0.9-0.7,1.7-1.6,1.7c-0.8,0-1.6-0.8-1.6-1.7v-1.7C60.9,54.2,57.8,55.3,54.9,56.9L54.9,56.9z"/>
			<path id="XMLID_39_" class="st8" d="M84.9,71.5c-0.4-6.1-3.5-11.4-8.1-14.7l-9.7,9.9l0,0c0,0-0.1,0-0.1,0.1l0,0c0,0,0,0-0.1,0
				c0,0,0,0-0.1,0c0,0,0,0-0.1,0c0,0,0,0-0.1,0c0,0,0,0-0.1,0c0,0,0,0-0.1,0c0,0,0,0-0.1,0c0,0,0,0-0.1,0c0,0,0,0-0.1,0
				c0,0,0,0-0.1,0c0,0,0,0-0.1,0h-0.1h-0.1c0,0,0,0-0.1,0c0,0,0,0-0.1,0c0,0,0,0-0.1,0c0,0,0,0-0.1,0c0,0,0,0-0.1,0c0,0,0,0-0.1,0
				c0,0,0,0-0.1,0c0,0,0,0-0.1,0c0,0,0,0-0.1,0c0,0,0,0-0.1,0c0,0,0,0-0.1,0l0,0l-0.1-0.1l-9.7-10c-4.6,3.2-7.7,8.6-8.1,14.7
				L84.9,71.5L84.9,71.5z"/>
			<path id="XMLID_34_" class="st9" d="M96.8,73h-13C83.5,66.7,80,61.2,75,58c-0.1-0.1-0.2-0.1-0.2-0.2c-2.9-1.7-6.2-2.7-9.8-2.7
				c-3.6,0-6.9,1-9.8,2.7c-0.1,0-0.2,0.1-0.2,0.2c-5.1,3.2-8.6,8.6-8.9,15h-13c-0.6,0-1.1,0.5-1.1,1.1c0,0.6,0.5,1.1,1.1,1.1h3.2
				L37.7,93c0,0.6,0.5,1,1.1,1h0.1c0.6-0.1,1-0.5,1-1.1v-0.1l-1.4-17.7h53l-1.3,17.6v0.1c0,0.6,0.4,1,1,1.1h0.1c0.6,0,1-0.4,1.1-1
				l1.2-17.8h3.2c0.6,0,1.1-0.5,1.1-1.1C97.9,73.4,97.4,73,96.8,73L96.8,73z M65,59.4c0.6,0,1.1-0.5,1.1-1.1v-1.1
				c2.3,0.2,4.6,0.7,6.6,1.7l-6.6,6.6v-3c0-0.6-0.5-1.1-1.1-1.1s-1.1,0.5-1.1,1.1v3L57.4,59c2-1,4.2-1.7,6.6-1.7v1.1
				C63.9,58.9,64.4,59.4,65,59.4L65,59.4z M55.5,60.1l8.7,8.7l0.1,0.1l0,0c0,0,0,0,0.1,0c0,0,0,0,0.1,0c0,0,0,0,0.1,0c0,0,0,0,0.1,0
				c0,0,0,0,0.1,0c0,0,0,0,0.1,0c0,0,0,0,0.1,0c0,0,0,0,0.1,0c0,0,0,0,0.1,0c0,0,0,0,0.1,0c0,0,0,0,0.1,0h0.1h0.1c0,0,0,0,0.1,0
				c0,0,0,0,0.1,0c0,0,0,0,0.1,0c0,0,0,0,0.1,0c0,0,0,0,0.1,0c0,0,0,0,0.1,0c0,0,0,0,0.1,0c0,0,0,0,0.1,0c0,0,0,0,0.1,0
				c0,0,0,0,0.1,0c0,0,0,0,0.1,0l0,0c0,0,0.1,0,0.1-0.1l0,0l8.1-8.7c4.2,2.8,7,7.5,7.3,12.8H48.2C48.5,67.7,51.4,63,55.5,60.1
				L55.5,60.1z"/>
			<path id="XMLID_31_" class="st9" d="M45,87.5c1.6-0.3,3.1-1.2,4.2-2.4c1.2-1.2,1.8-2.7,2.1-4.4h3.2c0.6,0,1.1-0.5,1.1-1.1
				c0-0.6-0.5-1.1-1.1-1.1h-4.2c-0.6,0-1.1,0.5-1.1,1.1c0,3.1-2.3,5.7-5.4,5.9c-0.6,0.1-1,0.6-0.9,1.2l0.4,6.2v0.1
				c0,0.6,0.5,1,1.1,1h0.1c0.6,0,1-0.5,1-1.1v-0.1L45,87.5z"/>
			<path id="XMLID_28_" class="st9" d="M86.2,85.6c-3.1-0.2-5.4-2.8-5.4-5.9c0-0.6-0.5-1.1-1.1-1.1h-21c-0.6,0-1.1,0.5-1.1,1.1
				c0,0.6,0.5,1.1,1.1,1.1h20.1c0.2,1.7,0.9,3.2,2.1,4.4c1.2,1.2,2.6,2.1,4.2,2.4l-0.4,5.2v0.1c0,0.6,0.4,1,1,1.1h0.1
				c0.6,0,1-0.4,1.1-1v-0.1l0.4-6.2C87.2,86.1,86.8,85.6,86.2,85.6L86.2,85.6z"/>
		</g>
	</g>
</g>
</svg>
