<?xml version="1.0" encoding="utf-8"?>
<!-- Generator: Adobe Illustrator 19.0.0, SVG Export Plug-In . SVG Version: 6.00 Build 0)  -->
<svg version="1.1" id="Layer_1" xmlns="http://www.w3.org/2000/svg" xmlns:xlink="http://www.w3.org/1999/xlink" x="0px" y="0px"
	 viewBox="0 0 128 128" style="enable-background:new 0 0 128 128;" xml:space="preserve">
<style type="text/css">
	.st0{fill:none;stroke:#CCEBF8;stroke-width:4;stroke-miterlimit:10;}
	.st1{fill:#80397B;}
	.st2{fill:#F2484B;}
	.st3{fill:#F2EBD9;}
	.st4{fill:#FFFFFF;}
	.st5{fill:#6DA8D6;}
	.st6{fill:#082947;}
</style>
<g id="Layer_1_2_">
	<g id="Layer_1_1_">
		<circle id="XMLID_1_" class="st0" cx="64" cy="64" r="62"/>
	</g>
	<g id="Layer_2">
		<circle id="XMLID_2_" class="st1" cx="64" cy="64" r="52.5"/>
	</g>
</g>
<g id="Layer_3">
</g>
<g id="Layer_2_1_">
	<g id="Layer_3_1_">
		<g id="XMLID_27_">
			<path id="XMLID_41_" class="st2" d="M61.5,55.7h5.2l3.2-8.4l-2.5-4.2h-6.6l-2.5,4.1L61.5,55.7z"/>
			<path id="XMLID_47_" class="st3" d="M82.6,68.8V46.6l-7.7,4.7c-0.3,0.1-1.2,0.7-1.5,0.7c-0.5,0-1.1-0.4-1.3-0.8L70,47.6l-3.5,7.7
				l-0.6,27c0.1,0.8,4.6,1.1,3.9,1.2l0.5,2.9C77.5,83.2,82.6,76.5,82.6,68.8L82.6,68.8z"/>
			<path id="XMLID_4_" class="st3" d="M44.9,68.9c0,7.7,5.1,14.4,12.3,17.6l0.5-2.9c-0.7-0.1,3.8-0.4,3.9-1.2l0.1-27l-3.3-8.2
				l-2.9,4c-0.2,0.4-0.8,0.8-1.3,0.8c-0.3,0-1.2-0.6-1.5-0.7L45,46.2L44.9,68.9L44.9,68.9z"/>
			<path id="XMLID_44_" class="st2" d="M64.2,87.4c2.6,0,5.2-0.8,7.4-1.9l-0.4-2.9c-0.1,0-0.1,0-0.2,0c-0.6,0-1-0.4-1.1-1.1
				l-3.4-25.8h-4.9l-3.1,25.8c-0.1,0.6-0.6,1.1-1.1,1.1c-0.1,0-0.1,0-0.2,0l-0.4,2.9C59,86.7,61.5,87.4,64.2,87.4L64.2,87.4z"/>
			<path id="XMLID_50_" class="st4" d="M42.8,35.3v7.6l11.4,7.3l4.5-7.2L48,36.2c-0.5-0.4-0.6-1-0.4-1.5c0.4-0.5,1-0.6,1.5-0.4
				l11.4,7.3h6.7l11.4-7.3c0.5-0.4,1.2-0.2,1.5,0.4c0.4,0.5,0.2,1.2-0.4,1.5L69,43.1l4.5,7.2L85.3,43v-7.6c0-1.8-1.5-3.4-3.4-3.4
				H46.2C44.3,31.9,42.8,33.5,42.8,35.3L42.8,35.3z"/>
			<path id="XMLID_56_" class="st5" d="M93,45.1l-6.4-1.2l-4,2.7v20.5c0,10.3-8.3,18.8-18.5,18.8s-18.5-8.4-18.5-18.8V46.6l-4.1-2.7
				l-6.4,1.2c-1.6,0.3-3,2-3,3.7v45.6c0,1.6,1.3,2.9,2.8,2.9h58.2c1.5,0,2.8-1.3,2.8-2.9V48.8C96,47.1,94.6,45.5,93,45.1L93,45.1z
				 M84.1,88.8c-0.6,0-1.1-0.5-1.1-1.1s0.5-1.1,1.1-1.1s1.1,0.5,1.1,1.1S84.6,88.8,84.1,88.8L84.1,88.8z M88.5,84.3
				c-0.6,0-1.1-0.5-1.1-1.1s0.5-1.1,1.1-1.1s1.1,0.5,1.1,1.1S89.2,84.3,88.5,84.3L88.5,84.3z"/>
			<path id="XMLID_31_" class="st6" d="M90,83.2c0,0.8-0.5,1.3-1.3,1.3s-1.3-0.5-1.3-1.3s0.5-1.3,1.3-1.3C89.5,81.9,90,82.4,90,83.2
				L90,83.2z"/>
			<path id="XMLID_28_" class="st6" d="M85.8,87.2c0,1-0.7,1.7-1.7,1.7s-1.7-0.7-1.7-1.7s0.7-1.7,1.7-1.7
				C85,85.5,85.8,86.2,85.8,87.2L85.8,87.2z"/>
		</g>
	</g>
</g>
</svg>
