<?xml version="1.0" encoding="utf-8"?>
<!-- Generator: Adobe Illustrator 19.0.0, SVG Export Plug-In . SVG Version: 6.00 Build 0)  -->
<svg version="1.1" xmlns="http://www.w3.org/2000/svg" xmlns:xlink="http://www.w3.org/1999/xlink" x="0px" y="0px"
	 viewBox="1 -2 128 128" style="enable-background:new 1 -2 128 128;" xml:space="preserve">
<style type="text/css">
	.st0{fill:none;stroke:#CCEBF8;stroke-width:4;stroke-miterlimit:10;}
	.st1{fill:#FAA93B;}
	.st2{fill:#F9FF00;}
	.st3{fill:#DA251D;}
</style>
<g id="Layer_1">
	<g id="Layer_1_2_">
		<g id="Layer_1_1_">
			<circle id="XMLID_1_" class="st0" cx="65" cy="62" r="62"/>
		</g>
		<g id="Layer_2">
			<circle id="XMLID_2_" class="st1" cx="65" cy="62" r="52.5"/>
		</g>
	</g>
</g>
<g id="Layer_2_1_">
	<g id="Layer_3_1_">
		<path id="Kazakhstan" class="st2" d="M51,70.3L51,70.3L51,70.3L51,70.3L51,70.3L51,70.3L51,70.3h-0.2l0,0l0,0l0,0l0,0l0,0H51
			L51,70.3L51,70.3L51,70.3L51,70.3L51,70.3z M26.6,65.9L26.6,65.9L26.6,65.9l-0.1-0.2v-0.3v-0.1h0.1v0.2v0.1v0.1v0.1V65.9
			L26.6,65.9z M32.7,69.9L32.7,69.9l-0.2-0.1l-0.1-0.1l-0.1-0.1v-0.1l0.1-0.1h0.1l0,0l0,0l0,0l0,0h0.1h0.1v0.1v0.1v0.1V69.9
			L32.7,69.9L32.7,69.9z M27,69.8L27,69.8L27,69.8L27,69.8L27,69.8L27,69.8v0.2v0.1h-0.1h-0.1l0,0v-0.1V70v-0.1v-0.1v-0.1l0,0l0,0
			l0,0l0,0L27,69.8L27,69.8L27,69.8L27,69.8z M26.1,70.2L26.1,70.2L26.1,70.2L26.1,70.2l0.1,0.2v0.1h0.1l0,0l0,0l0,0l0,0l0.2,0.1
			l0,0v0.1h-0.1h-0.1l-0.1-0.1v-0.1l0,0l0,0v-0.1L26.1,70.2L26.1,70.2L26.1,70.2L26,70l0.2-0.2l0,0l0,0h0.1v0.1l-0.2,0.1L26,70
			L26.1,70.2l-0.2,0v0.1L26.1,70.2L26.1,70.2z M27.6,70.5L27.6,70.5L27.6,70.5L27.6,70.5L27.6,70.5L27.6,70.5L27.6,70.5L27.6,70.5
			L27.6,70.5L27.6,70.5L27.6,70.5L27.6,70.5L27.6,70.5l0.1,0.2l0,0h-0.1l0,0l0,0l0,0l0,0l0,0l0,0l0,0l0,0l0,0V70.5L27.6,70.5
			L27.6,70.5L27.6,70.5L27.6,70.5L27.6,70.5L27.6,70.5z M70.6,39.4L70.6,39.4L70.6,39.4l0.2-0.1h0.1l0.2,0.1h0.4l0.2,0.2l0.1,0.1
			l0.2,0.2h0.1h0.2h0.1l0.2,0.2l0,0l0,0l0.1-0.1l0,0l0.2-0.1l0,0l0,0l0,0l0,0v-0.1l0.1-0.2l0,0l0,0l0.2,0.1h0.1h0.1h0.1v-0.1
			l0.1-0.1h0.1h0.1h0.1v0.1v0.1v0.1v0.1l0.2,0.2l0.2,0.2v0.1v0.1v0.1l0,0l0,0l0,0v0.1v0.1v0.1v0.1v0.1l0,0l0,0V41v0.1v0.1l0.1,0.1
			v0.1v0.1v0.1l0.1,0.1l0.1,0.1h0.1h0.1l0,0l0,0l0.1,0.1v0.1v0.1V42h-0.1h-0.1l-0.1,0.1v0.1v0.2l0,0l0,0l0,0l0.1,0.1l0,0v0.1l0,0
			l0,0l0,0l0,0l0,0v0.1v0.1v0.2h-0.1l0,0l0,0h-0.1l0,0h-0.1h-0.1V43v0.1h0.1l0,0v0.1v0.1v0.1v0.1h0.1l0,0v0.1l0.1,0.1l0,0h0.1
			l0.1-0.1l0.1-0.1l0.1-0.2l0.1-0.1h0.1h0.1H75h0.1l0,0l0,0v0.1v0.2h0.1l0.1-0.1h0.1l0,0h0.1l0,0l0,0l0,0h0.1l0.1-0.1v-0.1V43v-0.1
			v-0.1v-0.1l0,0H76h0.1l0,0l0,0l0.2,0.2l0.1,0.1h0.1h0.1h0.1V43v-0.1v-0.1h-0.1h-0.1h-0.1l0,0l0,0v-0.1l0,0l0,0l0,0v-0.1l0,0l0,0
			h-0.1h-0.1l0,0v-0.1l0,0h0.2h0.1l0.1,0.1l0.1,0.1v0.1l0,0h0.1v0.1V43l-0.1,0.2l0.2,0.1l0.2,0.1l0,0l0,0l0,0v0.1l0,0l0,0l0,0l0,0
			v0.1l0,0l0,0h-0.1l0,0l0,0v0.1l0,0v0.1H77v0.1v0.1l0,0V44v0.1v0.1l0,0H77h0.1l0,0l0.1-0.1l0.1-0.1l0,0l0,0l0.2,0.1h0.1V44
			l-0.1-0.1l0.1-0.5h-0.1h-0.1l-0.2,0.1l0,0v-0.1v-0.1l0,0l0.1-0.1h0.1h0.2H78H78l0,0v0.1v0.1v0.2h0.1v0.1v0.1l0,0h0.2l0.3,0.1l0,0
			l0,0l0,0l0,0l0,0h0.1l0,0l0,0l0.1,0.1l0,0h0.1l0,0v-0.1v-0.1l0,0v-0.1H79v-0.1l0,0l0,0l0,0l0,0h0.1l0,0l0,0v0.1l0,0l0.1-0.1v0.6
			v0.1v0.1h-0.1h-0.3h-0.1h-0.1v0.1v0.1l0.1,0.1l-0.2,0.1v0.1v0.3h-0.1l0,0v0.1v0.1v0.1l0.1,0.1l-0.1,0.1l0.3,0.2l-0.1,0.2l0.2,0.1
			l0,0l0.1-0.1l0.2-0.2l0,0l0,0l0.1-0.1l0,0l0,0v-0.1l0,0l0,0l0,0l0,0h0.1l0,0l0,0l0,0v-0.1l0,0l0,0l0,0h0.2l0,0h0.1l0,0l0.2-0.2
			h0.1h0.1h0.1h0.2l0,0v0.1v0.1v0.1l0,0h0.1l0,0v-0.1l0,0h0.2l0,0v0.1v0.1l0,0l0,0v0.1v0.1l0.1,0.1l0,0l0,0l0.1,0.1h0.1v-0.1
			l0.1-0.3l0,0l0,0l0,0l0,0v-0.2v-0.1l0,0H81l0,0v-0.2v-0.1l0,0l0,0h0.1l0,0V45v-0.1v-0.1l0,0h0.1h0.2h0.1l0.2,0.1h0.1l0.2-0.2
			l0.2-0.2l0.2-0.2L82.2,44l0.1-0.1l0.1-0.1h0.1h0.2h0.1l0.1-0.1l0.1-0.1l0.2-0.2l0.3-0.2l0.2-0.2V43v-0.1v-0.1v-0.1v-0.1l0,0
			l0.4,0.1h0.1l0.1-0.1h0.1l0,0h0.1l0,0l0,0v-0.1v-0.1v-0.1v-0.1h0.1h0.1h0.1l0.2-0.1l0,0h0.1l0,0v0.1l0,0l-0.2,0.1l0,0v0.1v0.1l0,0
			H85l0,0v0.1v0.1v0.1v0.1V43v0.1l0,0l0,0l-0.1,0.1l0,0l0.7-0.8h-0.1l-0.2-0.1h-0.2l0,0l0,0l0,0l0.2,0.3l0,0v0.2l0.1,0.1l0.2,0.1
			l0.2,0.2l0.4,0.2l0.4,0.2l0.4,0.2l0.4,0.2l0.3,0.2l0.2,0.2l0.1,0.1l0.2,0.2l0.2,0.3l0.2,0.2l0.2,0.3l0.2,0.3l0.2,0.3l0.2,0.3
			l0.3,0.5l0.4,0.5l0.4,0.5l0.4,0.5l0,0l0,0l0,0l0.2,0.4l0.2,0.4l0.2,0.2l0.2,0.2l0.3,0.4l0.2,0.3l0.2,0.3l0.4,0.5l0.2,0.3l0.2,0.2
			l0.2,0.2l0.1,0.2v0.1l0.1,0.1l0.1,0.1h0.1h0.1l-0.2-0.2l-0.1-0.1l0.1-0.1l0,0l0.1,0.1l0,0h0.1l0,0v-0.1v-0.1l0,0l0.1-0.1l0,0V52
			l0,0l0,0h0.1h0.1l0.1-0.1l0.1-0.1v-0.1v-0.1v-0.1v-0.1v-0.1v-0.1l-0.1-0.1l0,0l0,0v-0.1v-0.1V51v-0.1l0,0h0.1h0.2H95v-0.1v-0.1
			v-0.1v-0.1v-0.1v-0.1l0,0l0.3,0.1h0.1l0,0l0,0l0,0h0.1v0.1v0.1v0.1l0,0h0.1h0.1h0.1h0.1l0.1-0.1l0,0H96H96l0,0v0.1v0.1L96,51.3
			v0.2v0.1l0,0H96h0.1h0.1l0.4-0.2h0.2v0.1l0.1,0.1l0.1,0.1l0.1,0.1v0.1v0.1V52v0.1h0.1l0.4-0.1h0.1v-0.1v-0.1l0,0h0.1h0.1l0.2-0.1
			h0.1h0.1h0.1l0.2,0.1h0.1h0.1h0.1h0.1v-0.1v-0.1v-0.1l0,0l0,0l0,0l0,0l0,0l0,0l0,0l0,0h0.1h0.1l0.1,0.1l0.2-0.2l0.2-0.1v-0.1
			L99.3,51l0.1-0.1h0.1h0.2h0.2l0.1-0.1l0.1-0.1v-0.2v-0.2l0,0l0,0l0,0h0.1l0,0l0,0l0,0l0.2-0.1h0.2l0.1,0.1l0,0h0.1h0.2h0.1
			l0.2,0.1h0.1h0.1h0.1h0.1h0.1h0.1l0.1,0.1l0,0h0.1l0.1,0.1l0.1,0.2l0.1,0.1l0.2,0.1l0,0l0.1,0.1v0.1v0.1v0.1l0.1,0.1v0.1v0.1v0.2
			l0.1,0.1l0.1,0.1l0.1,0.1v0.1v0.1v0.1v0.1l0,0h0.1l0,0l0,0v0.1l0,0h0.1l0.1-0.1l0.1-0.1l0.1,0.1l0.1,0.1h0.1h0.1h0.1h0.1h0.1
			l0.1,0.1h0.1l0,0h0.1l0,0l0,0l0.1,0.1l0,0l0,0l0,0l0,0h0.1h0.2l0,0l0.1,0.1l0,0v0.1l0,0h-0.1l0,0l0,0l0,0V53v0.1h0.1h0.2h0.1
			l0.1,0.1v0.1v0.1l0.1,0.1l0.2,0.2l0.1,0.1l0.1,0.2l0.1,0.1h0.1l0.1-0.1l0,0l0,0h0.1l0,0h0.1l0.1,0.1h0.1h0.1l0,0l0,0l0.1-0.1l0,0
			l0,0l0,0L106,54l0,0l0,0l0,0l0.1-0.1h0.1h0.1l0,0h0.1l0,0l0,0l1,0l0,0l0,0h0.1l0,0v0.2v0.1l0,0l0,0l0,0l0,0l0,0l0.1-0.1l0.1-0.1
			h0.1l0.1,0.1l0.1,0.1l0.1-0.2v-0.2v-0.2l0.1-0.1l0.1-0.1l0.1-0.2l0,0l0,0l0,0l0,0l0,0l0.1-0.1l0,0l0,0l0,0l0,0l0,0l0,0v-0.1v-0.1
			V53h0.1h0.1l0,0h0.1l0,0l0,0l0,0l0,0v0.1l0,0l0,0l0,0h0.1v0.1l0,0l0,0h-0.1v0.1l-0.1,0.2v0.1v0.1l0,0h0.1h0.1h0.1l0.1-0.1h0.1
			l0.2,0.1h0.1v0.1v0.1v0.1l0.1,0.1h0.1h0.2h0.1l0,0V54v0.1l0,0h0.1l0.2,0.1l0,0l0,0v0.1l0,0l0,0l0,0h0.1l0.2-0.1h0.1h0.1l0.2,0.1
			l0.1,0.1l0.1,0.2l0.1,0.1h-0.2h-0.1h-0.1l-0.2,0.2h-0.1h-0.2h-0.1v0.1V55v0.1l-0.1,0.1v0.1v0.1v0.1v0.1v0.1v0.1l0.1,0.1l0.1,0.1
			l0.1,0.1V56v0.1l0,0l0,0l0.1,0.2v0.1v0.1l-0.1,0.2l-0.1,0.2v0.1V57v0.1v0.1v0.1l-0.2,0.2h-0.2h-0.1v0.1l-0.1,0.2l-0.1,0.1
			l-0.4,0.1L108,58l-0.1,0.1v0.1l-0.1,0.7v0.4v0.2v0.1v0.1v0.1l0.4,0.9v0.1V61v0.1l0,0l0.1,0.1l0.2,0.2v0.1v0.1v0.1v0.1v0.1v0.1V62
			v0.1v0.1l0,0h-0.1h-0.1v0.1v0.1v0.1v0.1v0.1v0.1v0.1v0.1v0.1h-0.2L108,63h-0.2h-0.1l0,0v0.1v0.1v0.1l-0.2,0.2l-0.1,0.1l0,0
			l-0.1,0.1l0,0v0.1v0.1v0.1l-0.2,0.1l-0.2,0.1H107h-0.1v-0.1v-0.1v-0.1v-0.1v-0.1l-0.1-0.1l-0.1-0.1h-0.1h-0.1l-0.2,0.1h-0.1h-0.2
			l0,0l0,0l0,0h-0.2l-0.2,0.1l0,0l0,0l0,0l-0.2,0.1h-0.1h-0.2l-0.2,0.1l-0.9-0.1l-0.4-0.2h-0.1h-0.2h-0.1l-0.1-0.5h-0.1h-0.1H103
			h-0.1h-0.1l0,0v0.2l0,0v0.1l0,0l0,0v0.1l0,0v0.2v0.1v0.1v0.1v0.1v0.1l-0.2,0.7l-0.1,0.8l-0.1,0.2v0.1v0.2V66l-0.1,0.2l-0.1,0.2
			v0.2v0.5l0,0v0.3v0.1v0.2l-0.1,0.3v0.3v0.2v0.1v0.1l0.1,0.1l0,0l0,0h0.1h0.3L103,69l0.1,0.1v0.1v0.2v0.3v0.2l0.2,0.2l-0.2,0.1
			l-0.2-0.1l-0.2-0.2l-0.2-0.1h-0.1l0,0.1l-0.4,0.3l-0.1,0.1h-0.1l-0.1-0.1l0,0h-0.2l0,0l0,0v-0.1v-0.1l-0.1-0.2l-0.1-0.1h-0.1h-0.1
			l-0.1,0.1l-0.2,0.2l-1.1,0.3l-0.2,0.2l-0.1,0.1h-0.1l-0.2,0.2h-0.1h-0.2H99l-0.3,0.2h-0.2h-0.1v0.1v0.2v0.1h-0.1h-0.2L98,71.6
			h-0.2h-0.1l-0.1,0.1l-0.2,0.1l0,0L97.3,72l-0.1,0.1h-0.1v0.1l0.1,0.1l0.3,0.2h0.1l0.4-0.2h0.1h0.1l0.2,0.1l0.4,0.1h0.1l0,0v0.1
			l0,0l-0.2,0.1l-0.1,0.1v0.1l0,0l0,0l0.1,0.1l0,0l0,0v0.1v0.2v0.2v0.1l0.2,0.5V74v0.2v0.2v0.1h0.1l0.1,0.1v0.1v0.1v0.1V75l0,0V75
			l0.1,0.1l0.1,0.1l0.4,0.7l0.4,0.7v0.1v0.1l-0.1,0.2V77h0.1h0.1l0,0v0.1v0.1v0.1v0.1l0.1,0.1v0.1v0.1v0.1h-0.1H100h-0.1l-0.2-0.1
			h-0.1l-0.1,0.1l0.1,0.2L99.5,78l-0.1,0.1v0.1l0.1,0.1l0.1,0.1l0.2,0.1h0.1h0.1v0.1v0.1l0-0.1h-0.1l-0.2,0.2v0.1l-0.1,0.1l0,0h-0.1
			l0,0l0,0v0.1v0.2v0.1l-0.3,0.2v0.1v0.1v0.1v0.1l0.1,0.2V80l0.1,0.1v0.1l0,0v0.1v0.1l0,0l0.1,0.2v0.1v0.1l0.1,0.1l0.1,0.2v0.1v0.1
			l-0.1,0.1l-0.1-0.1l-0.1-0.1l-0.1-0.1l-0.1-0.4l-0.2-0.1l-0.1-0.1l0,0l-0.2-0.2h-0.6H98h-0.2h-0.2h-0.1l-0.1-0.1L97.2,80l-0.1-0.1
			l-0.2-0.1l-0.1-0.1l-0.1-0.1v-0.1v-0.1v-0.1v-0.2l0,0h-0.1h-0.1l-0.2,0.2h-0.1h-0.1H96l-0.3,0.1h-0.3h-0.1l-0.1-0.1l-0.1-0.1
			l-0.2-0.1h-0.2h-0.1h-0.1l-0.1,0.2l0,0h-0.1h-0.1h-0.1h-0.1h-0.1l-0.2,0.1h-0.1l-0.2-0.1h-0.1h-0.1l0,0l0,0l0,0h-0.1l0,0l0,0l0,0
			l0,0h-0.2h-0.2h-0.1l-0.1,0.1l0,0h-0.1h-0.1h-0.1h-0.1h-0.1l0,0l0,0l-0.1,0.1h-0.1h-0.2h-0.1l0,0h-0.1l0,0l-0.1-0.1l0,0h-0.1h-0.2
			h-0.1h-0.1l-0.1,0.1H91h-0.1h-0.1l-0.1,0.1l0,0l0,0h-0.1l0,0l0,0l0,0l0,0l-0.1,0.1h-0.1h-0.1l-0.1,0.1h-0.1h-0.1H90h-0.1h-0.1
			L89.8,80h-0.1l0,0v-0.1l0,0l0,0h-0.1l0,0h-0.2h-0.2h-0.2h-0.1L88.7,80h-0.1h-0.2h-0.1h-0.2l0,0l0,0l0,0l-0.1,0.3v0.1L88,80.5
			l-0.1,0.1h-0.1h-0.1l-0.2-0.1h-0.1h-0.1h-0.6h-0.2h-0.1l-0.2-0.1h-0.1h-0.1h-0.2H86L86,80.3l-0.1-0.2h-0.2h-0.1L85.3,80l0,0
			l-0.1-0.1l0,0h-0.1h-0.1L85,79.8h-0.1h-0.1l-0.2-0.1h-0.1h-0.1h-0.1l-0.2-0.3h-0.1l0.1,0.1v0.1v0.1l0,0l-0.4,0.1h-0.1l-0.1-0.1
			h-0.1l-0.1,0.1L83.4,80l0-0.1h-0.1h-0.1l-0.4,0.2l-0.1,0.1l0,0v0.1l-0.2,0.2v0.2v0.1v0.1V81v0.1v0.1v0.1v0l-0.1,0.3v0.1v0.2v0.1
			l0.1,0.1l0.2,0.3l0,0v0.1h-0.1l-0.2-0.1h-0.2v-0.1v-0.1v-0.1V82h-0.1h-0.2H82h-0.1h-0.1h-0.1h-0.1l-0.3,0.1h-0.1h-0.1h-0.1
			L80.9,82l-0.1-0.2l-0.1-0.1h-0.1l-0.3-0.1h-0.2h-0.1l-0.3-0.2l-0.2-0.1h-0.3l0,0h-0.1l0,0h-0.1l-0.3-0.2h-0.2h-0.1l0,0l0,0l0,0
			h-0.1h-0.2h-0.1L78,81.4h-0.1l0,0l-0.1-0.1l0,0l0,0l0,0h-0.1h-0.1v0.1v0.1v0.1l0,0h-0.1h-0.1h-0.1h-0.1h-0.1l-0.1,0.1v0.1l0,0H77
			l0,0v0.1V82v0.1v0.1l-0.2,0.1l-0.1,0.1v0.2l0,0l0.1,0.1l0,0l0,0l0,0l0,0l0,0l0,0l0,0h-0.1l-0.1-0.1l0,0v0.1v0.1v0.1l0,0l0,0l0,0
			l0,0l-0.1,0.1l0,0l-0.1,0.1V83V83l0.1,0.1h0.1h0.1l-0.1,0.1l-0.1,0.1h-0.1h-0.1h-0.1h-0.1h-0.1h-0.1l0,0l0,0l0,0l0,0l0,0l0,0l0,0
			l0,0v0.1v0.1v0.1v0.1v0.1v0.1v0.1V84l0,0l0,0l0,0l0,0l0,0l0,0l0,0l0,0l0,0l0,0l0,0l0,0l0,0l0,0l0,0l0,0l0,0l0,0L76,84l-0.1,0.1
			l-0.1,0.1l-0.1,0.1v0.1v0.1l0,0l0,0l0,0l0,0l0,0l0,0l0,0l0,0l0,0l0,0l0,0l0,0l-0.1,0.2l-0.1,0.2l0,0l0,0l-0.1,0.1l-0.1,0.1h-0.1
			h-0.1l0,0l0,0l0,0l0,0V85v0.1h-0.1h-0.1h-0.2h-0.2l-0.2,0.1l-0.2,0.1l0,0l0,0v0.1v0.1l-0.2,0.1l-0.2,0.1H74h-0.1l0,0l0,0v0.1v0.1
			l0,0l0,0l0,0l0,0l0,0l0,0l0,0l0,0h-0.1h-0.1l0,0l0,0h-0.1h-0.1l0,0l0,0l0,0l0,0l0,0l0,0l-0.1,0.1l-0.1,0.1l0,0l0,0l0,0l0,0l0,0
			l0,0l0,0l0,0h-0.1h-0.1l0,0l0,0l0,0l0,0l0,0l0,0l0,0l0,0l0,0l0,0l0,0l0,0l0,0l0,0l0,0l0,0v0.2v0.2l0,0l0,0l0,0l0,0h-0.1h-0.1H73
			h-0.1h-0.1h-0.1l0,0l0,0l0,0l0,0v0.1v0.1h-0.1l-0.1,0.1l0,0l0,0l-0.1,0.2l-0.1,0.2l0,0l0,0h-0.1l0,0h-0.1l0,0l0,0l0,0l0,0l0,0l0,0
			l0,0l0,0l0,0l0,0l0,0l0,0l0,0l0,0l0,0l0,0l0,0l0,0l0,0l0,0l0,0l0,0l0,0l0,0V87v0.2l0,0l0,0l0,0l0,0l0,0l0,0l0,0l0,0l0,0l0,0l0,0
			l0,0l0,0l0,0l0,0l0,0l0,0l0,0v0.1v0.1l0,0l0,0l0,0l0,0l0,0l0,0l0,0l0,0h-0.1h-0.1l0,0l0,0l0,0l0,0l0,0l0,0l0,0l0,0l0,0l0,0l0,0
			l0,0l0,0l0,0l-0.3-0.2l-0.2-0.1L71.5,87l-0.1-0.1l-0.1-0.1l-0.1-0.1l-0.1-0.1l0,0l0,0h-0.1H71l0,0l0,0l0,0l0,0l0,0l0,0h0.1h0.1
			l0,0l0,0l0,0l0,0l0,0l0,0v-0.1v-0.1v-0.1v-0.1v-0.1v-0.1v-0.1V86l0,0l0,0l0,0l0,0l0,0l0,0l0,0l0,0l0,0l0,0l0,0l0,0l0,0l0,0l0,0
			l0,0l0,0l0,0l0,0l0,0l0,0l0,0l0,0l0,0l0,0l0,0l0,0l0,0l0,0l0,0l0,0l0,0l0,0l0,0v-0.1v-0.1l0,0l0,0l-0.1-0.1L71,85.7l0,0l0,0l0,0
			l0,0v-0.1v-0.1l0,0l0,0l-0.1,0.1l-0.1,0.1l0,0l0,0l0,0l0,0h-0.1h-0.1l0,0l0,0h-0.3H70h-0.2h-0.3h-0.2h-0.4h-0.2h-0.3h-0.1l0,0H68
			L68,85.6l-0.1-0.1L67.8,85l-0.1-0.5l-0.1-0.4l-0.1-0.4l-0.1-0.4v-0.4l0,0l0,0l0,0l0,0l0,0l0,0l0,0l0,0h-0.3h-0.2h-0.2h-0.3l0,0
			l0,0l0,0l0,0v-0.7v-0.6v-0.1l0,0l0,0l0,0l0,0l0,0l0,0v-0.1v-0.1l0.1-0.8l0.1-0.8l-0.3,0.2l-0.3,0.2l0,0l0,0l-2.5,1.1l-0.2-0.4
			L63,80.5l-0.2-0.4V80l-0.1-0.1l-0.2-0.2l-0.2-0.2l-0.1-0.1l-0.2-0.1l-0.2-0.3l-0.2-0.4l0,0l0,0l0,0l0,0h-0.1h-0.1L61,78.8L60.8,79
			l-0.2,0.2l-0.2,0.2h-0.1h-0.1h-0.2h-0.3l-0.3-0.1L59,79.2L58.6,79l-0.4-0.1l-0.3-0.1l-0.4-0.1l-0.4-0.1h-0.2h-0.2h-0.2h-0.2h-0.2
			h-0.2h-0.2h-0.2h-0.2h-0.2h-0.2h-0.2h-0.1h-0.1h-0.1h-0.1h-0.2l0,0h-0.1h-0.1l-0.2-0.2l0.2,0.2l-0.2-0.2l-0.2-0.2l-0.2-0.2
			L53.2,78v-0.2L53,77.7l-0.2-0.2l-0.2-0.2l-0.1-0.2l-0.1-0.2l-0.2-0.3l-0.2-0.2v-0.1v-0.2V76v-0.1l-0.1,0l-0.2-0.1l-0.2-0.2
			l-0.2-0.2l-0.3-0.2l-0.4-0.3l-0.4-0.3l-0.4-0.3h-0.1v-0.1V74v-0.2v-0.2v-0.2v-0.2v-0.2V73l0.1-0.2v-0.2v-0.1v-0.2v-0.2v-0.2v-0.2
			v-0.1v-0.1h-0.1h-0.1h-0.1h-0.1h-0.1h-0.2h-0.1l0,0l0,0l0,0l0,0v-0.1v-0.1v-0.1l0,0l0,0l0,0v-0.1l0,0l0,0v-0.1l0,0l0,0l0,0l0,0
			l0,0v-0.1l0,0l0,0l0,0l0,0l0,0l0,0l0,0l0,0l0,0l0,0l0,0v-0.1V71H49l0,0l0,0l0,0l0,0l0,0l0,0h0.1l0,0l0,0h0.1h0.1h0.1h0.1l0,0h0.1
			l0,0h0.1l0,0h0.1l0,0l0,0l0,0l0,0l0,0h0.1l0,0h0.1l0,0l0,0v0.1l0,0l0,0l0,0H50l0,0l0,0l0,0l0.1,0.1l0,0l0,0l0,0l0,0l0,0l0,0v-0.1
			l0.1-0.2l0.1-0.1l0.1-0.1l0.2-0.1h0.1h0.1l0,0l0.1-0.2l0,0l0.1-0.1l0,0l0,0h0.1h0.2l0,0l0,0l0,0l0.1-0.1l0.2-0.1l0.1-0.1l0,0l0,0
			h0.1l0,0l0,0l0,0l0,0l0,0v-0.1l0,0l0,0l0,0l0,0V70l0,0l0,0v-0.1l0,0l0,0l0,0l0,0l0,0v-0.1v-0.1v-0.1l0,0l0,0h-0.1l0,0l0,0h-0.1
			l0,0l0,0l-0.1-0.1l-0.2-0.1H51l0,0h-0.1l1.2-0.7l0,0l-0.1-0.2L52,68.5l0,0l0,0l0,0l0,0v-0.1v-0.1l0.1-0.1v-0.1v-0.1l0,0l0,0l0,0
			l0,0H52l0,0l0,0l0,0l0,0l0,0L51.9,68h-0.1h-0.1h-0.1l0,0h-0.1v0.1l0,0l0,0l0,0l0.1,0.1l0.2,0.2l0,0l0,0l0,0h-0.1l0,0l-0.1,0.1l0,0
			l0,0h-0.2l0,0l0,0l0,0l-0.2-0.2l0,0v0.1l0,0l-0.2,0.2v0.1l0,0v-0.1v-0.2l-0.1-0.3V68v-0.1l0,0l0,0l0,0l0,0H51h-0.1l0,0L50.9,68
			l-0.1,0.1l-0.1,0.1h-0.1h-0.1l0,0l0,0v0.1v0.1v0.1v0.1v0.1v0.1v0.1l0.1,0.1l0.1,0.1l0.1,0.1h0.1l0.5-0.1h0.1l0,0l0.1,0.2l0.1,0.1
			l0.1,0.1l0.1,0.1l0.1-0.2l0,0l0,0h0.1l0,0l0,0v-0.1l0,0l0.1,0.1l0,0l0,0v0.1l0,0v0.1l0,0l0,0l0,0v0.1l0.1,0.1l0,0l0,0l0,0l0,0v0.2
			v0.1v0.1l0,0l0,0L51.9,70l0,0h-0.1h-0.1h-0.1l-0.2-0.1h-0.2l0,0L51,69.8h-0.1h-0.4h-0.1l-0.1,0h-0.1h-0.1h-0.1H50L49.8,70h-0.1
			h-0.2h-0.1h-0.1l0,0l0,0l0.1-0.1l0,0v-0.1v-0.1v-0.1v-0.2v-0.2l0,0l0,0l0,0v-0.1l0.1-0.2l0,0l0,0h-0.2h-0.2l0,0l0,0l0,0l0,0l0,0
			l0,0l0,0l0,0l0,0l0,0v0.1v0.1l0.1,0.2l0.1,0.1l0.1,0.2l0.1,0.1l0.1,0.1v0.1V70v0.1v0.1l-0.1,0.1v0.1l-0.3,0.1l-0.1,0.1v0.1
			L49,70.7v0.1v0.1v0.1V71l0,0H49h-0.1h-0.1h-0.1l-0.1,0.1l0.1,0v0.1l-0.1,0.1l0,0v-0.1v-0.1V71h-0.1l0,0h-0.1l0,0v0.1l0,0l0,0l0,0
			v0.1l0,0l0,0l0,0v-0.1L48.4,71v-0.1v-0.1l0,0l0,0l0,0v-0.1v-0.1l0.1-0.2l0.1-0.2l0,0l0,0h0.1l0,0v-0.1v-0.1V70v-0.1l0,0h-0.1h-0.1
			h-0.1l-0.2,0.2l0,0l0,0h-0.1H48h-0.1V70h-0.1l0,0l0,0l0,0l0,0l0,0l0,0l0,0l0,0l0,0l0,0l0,0l0,0h-0.1l-0.2-0.1l0,0h-0.1l0,0l0,0
			l0,0l0,0L47.4,70l0,0l0,0l0,0l0,0l0,0l0,0l0,0l-0.1,0.2l0,0l-0.1,0.2l-0.1,0.1l0,0l0,0v0.1l0,0v0.1v0.1v0.1v0.1l0,0l0,0l0,0
			l-0.1,0.1l0,0l0,0V71v0.1l0,0H47h-0.1h-0.2h-0.2h-0.2h-0.2h-0.2h-0.2h-0.2h-0.2h-0.2l-0.3,0.1l-0.3,0.1l-0.3,0.1l-0.3,0.1
			l-0.2,0.1l-0.2,0.1l-0.2,0.1l-0.4,0.4h-0.2l-0.2,0.1l-0.2,0.1h-0.2h-0.1h-0.2h-0.2h-0.2L41,72.3h-0.2h-0.2h-0.2H40l0,0l0,0l0,0
			l0,0l0,0l0,0l0,0l0,0l0,0l0,0l0,0l0,0l0,0l0,0l0,0l0,0l0,0l0,0l0,0l0,0l0,0l0,0l0,0l0,0l0,0l0,0l0,0l0,0l0,0l0,0l0,0l0,0l0,0l0,0
			l0,0l0,0l0,0l0,0l0,0l0,0l0,0l0,0l0,0l0,0l0,0l0,0l0,0l0,0l0,0l0,0l0,0l0,0l0,0l0,0l0,0l0,0l0,0l0,0l0,0l0,0l-0.1,0.7l-0.1,0.7
			l-0.1,0.7l-0.1,0.7l0,1.1l-0.1,0.7l-0.1,0.7l-0.2,0.8l-0.1,0.7l-0.1,0.7l-0.1,0.7L39,81.6l-0.1,0.7l-0.1,0.7l-0.1,0.7l-0.1,0.7
			h-0.2h-0.1l-0.2,0.1h-0.2h-0.2h-0.3h-0.1l-0.1-0.1l-0.1-0.1v-0.1l-0.1-0.2v-0.1v-0.1L36.9,84l-0.1-0.1l-0.1-0.1l-0.1-0.3l-0.3-0.1
			l-0.1-0.2l-0.2-0.4v-0.1v-0.1v-0.1v-0.1v-0.1v-0.1L36,82.2l-0.3-0.4l-0.2-0.2l-0.2-0.2l-0.3-0.2l-0.3-0.3l-0.2-0.1l-0.2-0.1h-0.6
			h-0.4h-0.4h-0.2L32,80.7l-0.2,0.1l-0.5,0.1l-0.6,0.3l0,0l0,0l-0.4,0.2L30,81.8l-0.1,0.1v-0.1v-0.1l0.2-0.2l0.1-0.1v-0.2v-0.1v-0.1
			l0,0l0,0l0,0V81v-0.1l0,0l0,0l-0.1-0.1v-0.1v-0.1v-0.1v-0.1v-0.1l0,0h0.1h0.1l0.2-0.2l0.2-0.2l0,0l0,0l0,0v-0.1l0,0l0,0l0.1-0.1
			l0,0l0,0v-0.1l0,0l0.1-0.2l0.1-0.1v-0.1v-0.2v-0.2V79l-0.1-0.1v-0.1v-0.1l0,0l0,0v0.1v0.1l0,0l0,0l0.1,0.1l0,0l0,0l0,0l0,0v0.2
			v0.1l0,0l0,0v-0.1v-0.1V79v-0.2v-0.1l0.2-0.1h-0.1v-0.1l-0.1-0.1l-0.2-0.2l-0.2-0.1l0,0l0,0l0,0l0,0l0,0v0.1l0,0h-0.1l-0.1-0.2
			L30.1,78H30h-0.2h-0.2l-0.1,0.1h-0.1h-0.1l-0.2-0.2v-0.1v-0.1v-0.1v-0.1v-0.2v-0.1l-0.2-0.1v-0.1l0,0l0,0l0,0V77l0,0l0,0l0,0v-0.1
			v-0.1v-0.1h-0.1h-0.1h-0.1l0,0l0,0l0,0l0,0l0,0l-0.1-0.1l0,0h-0.2l-0.2-0.1l0,0v-0.1l0.2-0.2l-0.2-0.1l0.1-0.4v-0.1l-0.1-0.2l0,0
			l0,0v-0.2l0,0v-0.1L28,75.2v-0.1V75l0,0l0,0l0,0l0,0l0,0l0,0L27.9,75l-0.1-0.5v-0.1v-0.1l0,0l0,0l0,0l0,0l0,0v-0.1l0,0l0,0
			l-0.1-0.1l0,0V74V74v-0.1l0,0l0,0h-0.1l0,0v-0.1l0,0l0,0v-0.1l0.1-0.2v-0.1v-0.1l-0.1-0.1l-0.2-0.3l-0.2-0.2l-0.8-0.3l-0.1-0.1
			l-0.1-0.1l-0.1-0.1v-0.1V72l0.1-0.2v-0.1v-0.1l0,0v-0.1v-0.1v-0.1l0.1-0.1v0.1h0.1l0.1-0.1v-0.1l0,0l0,0v-0.1l0,0l0,0l0,0l0,0l0,0
			l0.3,0.2h0.1H27h0.1v0.1l0,0l0.2,0.1v0.1l0,0l0,0l0,0l0,0l0,0l0,0h0.1h0.1h0.1l0.1,0.1l0.4,0.2l0,0h0.1l0,0l0,0l0,0l0,0l0,0V72
			v0.1l0.2,0.2h0.1h0.1h0.1h0.1l0.2-0.1l0,0l0,0l0,0l0,0l0,0l0.1-0.1l0,0H29l0,0v0.1h0.1h0.2l0.2,0.1h0.1l0,0v-0.1v-0.1l0,0h-0.2
			L29.2,72h-0.1h-0.1H29l-0.1-0.1v-0.2v-0.1l-0.1-0.1l-0.2-0.2l0,0l0,0l0,0h-0.1l0,0l0,0l0,0l-0.2-0.2V71v-0.1v-0.1h0.1l0,0l0,0l0,0
			l0,0l0,0l0,0l0,0v-0.1v-0.1h0.1h0.1h0.1h0.1l0,0l0,0l0,0v-0.1l0,0l0.1-0.1h0.1H29l0,0v0.1v0.1h0.1l0,0v-0.1v-0.1v-0.1l0,0l0,0l0,0
			l0,0l0,0v-0.1l0,0v-0.1v-0.1l0.1-0.1V70v-0.1l0.4-0.3v-0.1v-0.1v-0.1l0,0v0.1l0.1,0.1h0.1h0.1h0.1l0.1-0.1l0,0h0.1l0,0l0.1-0.1
			v-0.1l0.1-0.1h0.1l0,0v0.1v0.1v0.1l0.2,0.1l0,0l0.1,0.1h0.1h0.1l0.1-0.1h0.1H31l0.1,0.1h0.1l0.7,0.1l0.1,0.1h0.2l0.1,0.1l0.3,0.2
			l0.2,0.1l0.1,0.1h0.1h0.2h0.1l0.1,0.1h0.1h0.1h0.1h0.1l0,0l0,0l0,0h0.1l0,0l0,0l0,0l0,0l0,0l0,0l-0.2-0.1l0,0l0,0l0,0l0,0h-0.1
			l-0.1-0.1L33.1,70H33l0,0v-0.1l0,0l0,0h-0.1l-0.1-0.3l0,0l0,0l0,0l0,0l0,0l0,0l0,0l0,0l0,0v-0.1v-0.1l0,0h0.1H33v-0.1l0.1-0.1
			l0.1-0.2h0.1l0,0h0.1l0,0l0.1-0.1v-0.1l0.1-0.1l0.1-0.1l0.1-0.1l0,0l0,0v-0.1l0,0l0.1-0.1v-0.1v-0.1l0,0v-0.1l0,0l0.1-0.1v-0.1V68
			l0.1-0.2l0.1-0.2l0.1-0.2v-0.2L34,66.9l-0.1-0.2H34l0.1,0.1l0,0l0,0l0,0v-0.1v-0.1v-0.1H34l-0.1,0.1h-0.1h-0.1v-0.1l0.1-0.1
			l0.1-0.2v0.1l0,0l0,0H34v-0.1v-0.1v-0.1v0.1l0,0v-0.1l0,0l0,0h0.1l0,0l0,0l0,0l0,0V66v-0.1L34,65.9h-0.1h-0.1v-0.1v-0.1v-0.2v-0.1
			v-0.1l0,0h-0.1l0,0v-0.1L33.7,65l0,0h-0.1h-0.2L33.3,65L33,64.9h-0.1l0,0l0.3-0.2l0,0l-0.2-0.1H33l0,0l0,0v0.1l0,0l-0.2,0.1h-0.1
			h-0.2h-0.1l-0.1-0.1l0,0l0,0v0.1l0,0h0.1l0,0l0,0l0,0l0,0l0,0l0,0L32.2,65h-0.1l0,0l0,0l0,0v-0.1l0,0l0,0L32,64.8l0,0l0,0v-0.1
			l0,0l0,0l0,0l0,0H32l-0.1,0.1l-0.1,0.1h-0.1h-0.1h-0.1h-0.1l0.1-0.1l0,0h-0.1h-0.1l-0.1,0.1h-0.1h-0.1v-0.1v-0.1l0.2-0.4v-0.1
			l0.1-0.2V64v-0.1h-0.1h-0.1V64V64v0.1h-0.1V64v-0.2v-0.1h-0.1l-0.2,0h-0.2l-0.2-0.1l-0.1-0.1h-0.1l-0.1,0.1h-0.1h-0.3h-0.1
			l-0.1,0.1h-0.1l0,0v-0.1l0,0l0,0l0,0l0,0l0,0l0,0L29.3,64h-0.1v-0.1l0,0l0.1-0.1l0,0l0,0l0,0l-0.1,0.1h-0.1h-0.1l0,0l0,0V64v0.2
			v0.1v0.1H29l0,0l0.1-0.1v-0.1l0,0H29h-0.1l0,0l0,0l0,0l0,0L28.8,64l0,0l0,0l0,0l0,0l0,0l-0.1,0.2h-0.1l0,0v-0.1l0,0l0,0l0,0l0,0
			l0,0h-0.1l0,0l0,0l0,0l-0.2,0.2l-0.1,0.1l0,0l0,0l0,0l0,0l0,0l0,0h-0.1L28,64.5l-0.1,0.1h-0.1h-0.1h-0.1l0,0l0,0h-0.5l0,0h-0.1
			v0.1l0,0H27l0,0v0.1l0,0h-0.1v-0.1l0,0l0,0v0.1l0,0l0,0v-0.1l0,0l0,0l0,0v0.1l0,0l-0.5-0.2l0,0v0.1v0.2l0,0l0,0l0,0l0,0v-0.1v-0.1
			l-0.1-0.1l0,0v-0.1v-0.1v0.1v0.1v0.1v0.1l0,0l0,0l0,0l0,0l0,0l0,0l0,0l0,0l0,0v-0.1l0,0l0,0l0,0l0,0h-0.1l-0.1-0.1l-0.1-0.1v-0.1
			v0.1l-0.2,0.2v0.1l0,0h-0.1l0,0v-0.1v-0.1v-0.1h-0.1l0,0l-0.1,0.2v0.1v0.1l0.1,0.1l0.1,0.1l0,0l0,0l0,0l0,0l-0.2,0v-0.1v-0.1v-0.1
			l0,0l0,0h-0.1l0,0l0,0l0,0v0.1l0,0l0.1,0.1l0,0l0,0l0,0l-0.2-0.1l0,0l0,0l0,0l0,0l0,0l0,0l0,0v0.1V65l0,0l0,0l0,0L25,64.6h-0.2
			v-0.1h-0.1h-0.1h-0.1h-0.1l-0.1-0.2v-0.1l-0.1-0.1l-0.1-0.1l-0.2-0.1v0L24,64l0,0v-0.1v-0.1l0,0l-0.1-0.1l0,0l0,0v-0.1l0.1-0.2
			l0.2-0.1h0.2l0.1,0.1v0.1v0.1v0.2h0.1h0.3h0.1l0.2-0.2l-0.3-1.2l-0.1-1v-0.1v-0.1l0,0h-0.1l-0.1-0.1l-0.1-0.1l-0.1-0.2l0,0
			l-0.2-0.8l-0.2-0.2l-0.2-0.1l-0.9-0.2l-0.4-0.3h-0.1h-0.1v0.1l-0.1,0.2l0.1,0.2v0.1l0,0L22,59.3l-0.1-0.1v-0.1l0,0l0,0l0.1-0.1
			l0,0l0,0l0,0l0,0l0,0l-0.1-0.2l-0.1-0.2v-0.1l0,0l0.2-0.1l0.1-0.1l0.1-0.1v-0.1L22,58.1V58v-0.1v-0.1v-0.1v-0.1l0,0v-0.1l0,0l0,0
			l0,0l0,0l0.1-0.1l0,0l0,0v-0.1v-0.1L22,57.3l-0.5-0.1L21,56.9l0,0l0,0l0,0l0,0l0.5-0.7l0.5-0.7l0.1-0.1h0.1l0.2-0.1h0.1h0.1
			l0.2-0.1l0.2-0.2l0.1-0.2v-0.2l-0.1-0.2l-0.2-0.3l-0.1-0.1l0.3-0.7l0.3-0.8l0.1-0.1l0.1-0.1l0.5-0.1l0.2-0.1l0.2-0.2l0.1-0.1v-0.1
			l-0.1-0.2v-0.1l0,0l0.2-0.2v-0.1v-0.1v-0.1v-0.1V51h0.1h0.2l0,0l0.1-0.1l0,0l0.2,0l0.1-0.1h0.1H25l0.1,0.1l0.1,0.2l0.1,0.1l0,0
			v0.1l0,0l0,0l0,0l0,0l0.1,0.2v0.1l0.2,0.1v0.2l0.1,0.1V52v0.1v0.1l0,0l0.1,0.1v0.1v0.1v0.1v0.1l0,0v0.1l0,0l0,0l0.1,0.1v0.1v0.1
			V53h0.1H26l0,0l0.1,0.1l0.1,0.1l0,0l0,0l0.2,0.2l0,0l0.5-0.1l0.2-0.1l0.2-0.2l0.1-0.1l0,0l0,0v-0.2v-0.1v-0.1l-0.2,0v-0.1l0.1-0.1
			v-0.2l-0.1-0.2v-0.2l0.1-0.5l0.1-0.2V51v-0.1l-0.1-0.1h-0.1v-0.1h0.1h0.1l0.2,0.2l0.1,0.1h0.1l0.4-0.2l0.2-0.3l0.1-0.1h0.3h0.2
			l0.1-0.1l0.1-0.1v-0.1l-0.1-0.1v-0.1l0.1-0.1l0.1-0.1v-0.1l0.1-0.1v-0.1v-0.1l0,0h0.1l0.2,0.1l0.5,0.1l0,0l0.2-0.1l0.3-0.2h0.1
			h0.4l0.2-0.1l0,0l0,0v-0.1v-0.1v-0.1l0,0l0,0l0,0l0,0l0,0l0,0l0,0l0,0h0.2l0,0l0,0v-0.1h0.1l0,0l0,0V49v-0.2v-0.1h0.1h0.1l0,0
			v-0.1v-0.1l0,0l0.1,0.1H32l0,0l-0.1,0.1l-0.1,0.1l0,0h0.1H32H32l0.1-0.1v-0.1v-0.3v-0.1l0.1-0.1l0.1,0.1l0,0v0.1v0.1v0.1v0.1h0.1
			l0.5,0.2h0.1H33h0.1l0,0v0.1l0,0l0,0h0.1l0,0v0.1V49v0.1l0,0h-0.1h-0.2l0,0v0.1v0.1v0.1l0,0l0.1,0.1l0.2,0.1h0.2h0.1l0.1-0.1v-0.1
			l0,0h0.1h0.1l0,0v0.1v0.1v0.1h0.1l0.1-0.1l0.1-0.1v-0.1v-0.1v-0.1l0.8-0.2l0.1-0.1h0.1h0.1H35h0.1l0.1,0.1h0.1h0.1h0.1h0.1h0.1
			l0.1-0.1l0,0h0.1h0.1h0.1H36l0.1-0.1l0,0l0.1,0.1v0.1v0.2v0.1l0.1,0.3v0.2l0,0v0.1v0.1V50l0,0l0,0h0.1l0.2,0.1l0,0l0,0l0,0l0,0
			l0,0l0,0h0.1l0,0l0,0l0,0l0,0l0,0v0.1l0,0h0.1l0,0v0.1l0,0h0.1l0,0l0,0l0,0l0,0l0,0h0.1l0.2,0.1v-0.1l0,0l0,0l0,0l0,0l0,0l0,0l0,0
			l0,0l0,0l0,0l0,0l0.2,0.1l0,0h0.1l0,0l0,0l0.1,0.1l0,0v0.1l0,0l0.2,0.1l0.1,0.1l0,0v0.1l0,0h-0.1v0.1v0.1V51v0.1l0.1,0.1v0.1v0.1
			v0.1l0.3,0.2h0.1h0.1l0.1,0.1v0.1v0.1h0.1h0.1l0,0v0.1v0.2v0.1l0,0l0,0v0.1l0.1,0.1l0,0l0.1,0.1v0.1v0.1v0.1h0.1l0.2,0.1l0,0v0.1
			l0,0h0.1l0,0l0,0l0,0l0,0l0,0l0.7-0.1v0.1V53v0.1l-0.1,0.2v0.1v0.1v0.1l0.1,0.1v0.1h0.1h0.1h0.1l0,0H40l0.2-0.1l0.1-0.1v-0.1v-0.2
			v-0.1l0.1-0.1v-0.1l0,0v-0.1l0,0l0,0l0.1-0.1l0,0v-0.2l-0.1-0.1l-0.1-0.1l-0.3-0.2l0,0H40l0,0v-0.2l0,0H40h0.2h0.1h0.1l0,0
			l0.1,0.1l0.2,0.1v0.1l0.1,0.1l0.1,0.1l0.3,0.2v0.1v0.2V53l0.4,0.5h0.1l0,0l0,0h0.1h0.1h0.1l0.1,0.1v0.1v0.1v0.1l0.1,0.1l0,0
			l0.1,0.1l0.1,0.1h0.1l0.2-0.2l0.4-0.2l0.3-0.2l0.1-0.1l0.2-0.4v-0.1l0,0l0,0l0.2,0.1h0.1h0.1h0.1v-0.1v-0.1l0,0h0.1l0,0v-0.1v-0.1
			v-0.1l0,0l0,0l0.1-0.1h0.1l0.2,0.3l0,0l0.2,0.1l0,0l0,0v-0.1v-0.1v-0.1v-0.1h0.1h0.1h0.1l0,0l0.1,0.1h0.1h0.1H45h0.1h0.1l0.2,0.1
			h0.1l0.2-0.1l0,0l0,0v0.1v0.2V53l0,0h0.1l0,0l0,0v0.1v0.1v0.1v0.1v0.1v0.1l0.2,0.1h0.1H46h0.1l0.1-0.1v-0.1l0,0h0.1h0.1l0.2,0.1
			h0.1l0.1-0.1v-0.1v-0.2V53l0.1-0.1l0.1-0.1h0.1l0.1,0.1l0,0h0.1l0,0l0,0V53l0,0h0.1l0,0h0.2l0,0l0,0l0,0l0,0l0,0h0.1h0.1h0.1h0.1
			v-0.1v-0.1v-0.1h0.1h0.1l0.1-0.1l0,0l0.1,0.1v0.1v0.1V53l0,0l0,0h0.2l0.1,0.1l0.1,0.1v0.2v0.1v0.1l0,0l0,0v0.1v0.1v0.1l0,0l0,0
			h0.1l0,0v0.2V54v0.1h0.1h0.1h0.1v0.1v0.1v0.1v0.1l0.2,0.2l0.1,0.1l0.6,0.1h0.1v0.1v0.1l0,0l0,0l0,0h0.2H50L50,55V55l0.1,0.1l0,0
			v0.1H50H50l-0.1,0.1v0.1v0.1l0.1,0.1H50l0.1-0.1l0.1-0.1h0.1h0.1h0.1l0.1-0.1l0.1-0.2V55l0.1-0.1v-0.1v-0.1v-0.1v-0.1v-0.1
			l0.1-0.2l0,0l0,0h0.1H51l0.1,0.1v0.2v0.2v0.1l0.1,0.1l0.1,0.1l0.1,0.1l0.9,0.2h0.2l0.6-0.2l0.6-0.2l0.1-0.1l0.1-0.1l0.1-0.2
			l0.1-0.3v-0.1l0.2-0.6l0.1-0.2l0.1-0.1l0.1-0.1h0.1l0,0l-0.1-0.1l-0.1-0.1L54.3,53l-0.1-0.2v-0.1l0,0h-0.1l0.5-0.4h-0.1l0,0h-0.1
			l0,0l0,0l-0.1-0.1h-0.1h-0.2H54h-0.1h-0.1h-0.1l0,0l0,0l0,0l0,0l0,0l0,0l0,0l-0.1-0.1l0,0V52v-0.1l0,0v-0.1l0,0l0,0l-0.8-0.1l0,0
			l0,0l0,0l0,0l0,0l-0.2-0.1l0,0v-0.1l0,0h0.1h0.1l0,0v-0.1l0,0h0.1l0,0l0,0l-0.1-0.1l-0.3-0.2l-0.3-0.7H52l0,0v0.1h-0.1h-0.1v-0.1
			l-0.1-0.2v-0.1v-0.1v-0.1l0,0h0.1h0.3l0.3-0.3l0.2-0.1l0.2-0.1h0.1H53h0.1l0.1-0.1l0.1-0.2l0,0l0.2-0.1h0.1l0.1-0.1l0,0l0.1-0.1
			l0.1-0.1l-0.1-0.2v-0.1v-0.1v-0.2v-0.1l0,0l0,0l0,0.1l0,0v-0.1v-0.2v-0.1v-0.1l0,0l0,0h-0.1l0,0l0,0l0,0l0,0l0,0l0,0l0,0l0,0l0,0
			l0,0l0.1-0.2l0.1-0.1h0.1l0.1-0.1l0,0l0.1-0.1l0,0l0.4-0.3l-0.2-0.2l0,0l0,0h0.2h0.1l0.1-0.1l0,0l0,0l0,0l0.1-0.1h0.1h0.1l0.1,0.1
			H55h0.1h0.1h0.1l0.1-0.1h0.1h0.1l0.1,0.1l0.1,0.2h0.1h0.1h0.1l0,0H56h0.2h0.1l0.2,0.1h0.1l0.2-0.1l0.1-0.1l0.1-0.1l0,0L57,47v-0.1
			v-0.1l-0.1-0.1l-0.1-0.1l-0.4-0.1l-0.7-0.1l-0.1-0.1l-0.1-0.2h-0.1l-0.2,0.1h-0.1h-0.1L55,46.1h-0.1h-0.2h-0.1L54.6,46V46v-0.1
			v-0.1l0.1-0.1l0.1-0.2v-0.1l0,0v-0.1l0,0h0.1h0.1l0,0v0.1l0.1,0.1l0.1,0.1h0.1h0.1l0.1-0.1h0.1h0.1v-0.2v-0.1l0,0h-0.2h-0.1
			l-0.1,0.1H55l-0.2-0.1l0,0l0,0v-0.1l0,0h-0.1h-0.2l-0.3-0.3l0.1-0.1l0.2,0.1l0.1-0.1v-0.1v-0.1v-0.1l0,0l0,0h0.1l0,0v-0.1l0.1-0.1
			l0.1-0.1l0.1-0.1v-0.1L54.7,44h-0.1h-0.1v-0.1l0,0l0,0h-0.2h-0.1l0,0l0,0l0,0l0,0v-0.1h0.1h0.1h0.1h0.1l0,0l0,0l0,0v0.1l0,0l0,0
			v-0.1v-0.1v-0.1v-0.1l0,0v-0.1h0.1h0.1l0.1-0.1v-0.1h0.1h0.2l0,0l0.1,0.2l0,0l0.2,0.1v0.1l0,0l0,0l0,0l0,0v-0.1v-0.1h0.2l0,0l0,0
			l0,0l0.1-0.1l0,0l0,0l0,0v0.1v0.1l0,0l0,0h0.1h0.2v-0.2l0,0v-0.1h0.8l0,0l0,0v0.1l0,0l-0.1,0.1v0.1v0.1v0.1l0.1,0.1v0.1l0,0l0,0
			l0,0l0,0l0,0l0,0v-0.1l0,0l0,0v-0.1l0.1-0.1v-0.1l0,0v-0.1l0.1-0.1l0.1-0.1h0.1h0.2l0.1-0.1l0,0l0.1,0.1h0.1h0.2h0.2h0.1v-0.1
			v-0.1v-0.1V43v-0.1H58H58l0.2,0.1l0,0h0.1h0.1l0.1-0.1h0.1h0.2l0.3-0.2h0.1h0.1l0.2,0.2h0.1l0,0v-0.1h0.1h0.1h0.1v-0.1l-0.1-0.1
			v-0.1l0,0l0,0l0,0l0,0v0.1l0,0l0,0l0,0l0,0l0,0l0,0l0,0h0.1h0.1l0.1-0.1H60h0.1l0,0l0,0l0,0h0.1h0.2l0,0l0,0l0,0l0,0l0,0l0,0l0,0
			h0.1l0.1-0.1l0,0l0.1,0.1h0.1h0.1l0.2-0.1l0.2-0.1l0.2-0.1l0.2,0.1l0.2,0.2l0,0l0,0l0,0l0,0l0,0l0,0l0,0h0.1l0,0l0.1-0.1l1-0.2
			l0.1-0.1v-0.1l0,0v-0.1l0,0l0.2-0.1h0.1h0.1h0.1V42v-0.2v-0.1h0.1h0.2l0.2,0.1h0.1l0.1-0.1l0.1-0.1l0.1-0.1l0.1-0.1l0.2-0.1l0,0
			v0.2v0.1l0.2-0.1l0.7-0.2h0.2h0.2h0.1h0.1l0.1-0.1h0.1h0.4h0.1l0.1-0.1h0.1h0.2H67l0.1-0.1v-0.1l0.1-0.1h0.1h0.2h0.2h0.3l0.2-0.1
			l0.1-0.1l0.1-0.2v-0.1h0.1h0.1h0.1l0.2,0.1l0.3-0.1l0,0v-0.1H69l0,0v-0.1v-0.1l0,0h0.1h0.1v-0.1L69,40.2l-0.1-0.1V40l-0.1-0.1l0,0
			l0.1-0.1H69l0,0l0,0l0,0l0,0l0.1-0.1h0.1h0.2l0.2-0.1h0.1h0.1l0,0l0,0l0,0v-0.1l0,0l0,0l0.1-0.1v-0.1v-0.1v-0.1v-0.1v-0.1h0.1l0,0
			H70h0.1h0.1l0.1,0.1v0.1h0.1h0.1v-0.1v-0.1v-0.2h-0.1l0,0l0,0v-0.1l0,0l0,0l0,0l0,0l0,0l0.3,0.1l0.1,0.1L70.6,39.4z M50.6,70.3
			L50.6,70.3L50.6,70.3L50.6,70.3L50.6,70.3L50.6,70.3L50.6,70.3L50.6,70.3L50.6,70.3L50.6,70.3L50.6,70.3L50.6,70.3L50.6,70.3
			L50.6,70.3L50.6,70.3l0.2,0.1h0.1l0,0l0,0l0,0l0,0l0,0l0,0l0,0l0,0l0,0l0,0l0,0l0,0l0,0h-0.1L50.6,70.3L50.6,70.3L50.6,70.3
			l-0.2,0.1h-0.1h-0.1l0,0l0,0l0,0l0,0l0,0h0.1l0,0l0,0l0,0l0,0l0,0l0,0l0,0h-0.2v-0.1v-0.1v-0.1l0,0l0,0h0.2h0.1l0,0l0.1-0.1l0,0
			l0,0l0,0L50.6,70.3L50.6,70.3L50.6,70.3z M48.1,71.2L48.1,71.2L48.1,71.2L48.1,71.2l0.2,0.2l0,0v0.1v0.1v0.1v0.1h0.1l0,0h0.1v0.1
			v0.1v0.1L48.4,72v0.1v0.1v0.1v0.2v0.1v0.1l0,0v0.2l-0.1,0.1v0.1V73v0.2v0.1L48,73l-0.4-0.3l-0.2-0.1l-0.2-0.2l-0.2-0.5l-0.2-0.2
			l0,0v-0.1l0.1-0.1l0.1-0.1l0.1-0.1l0.1-0.1l0.1-0.1l0.1-0.1l0.1-0.1V71v-0.1v-0.1v-0.1l0,0h0.1l0,0l0,0v0.1v0.1V71v0.1h0.1V71
			v-0.1v-0.1l0,0l0.1-0.1l0,0v0.1l0.1,0.1h0.1V71v0.1L48.1,71.2L48.1,71.2z"/>
		<g>
			<path class="st3" d="M62.7,55.6h-4.5v2h2.6v13.1h1.8V55.6L62.7,55.6z M80.9,57.5L80.9,57.5v0.2v0.1v0.1v0.1V58v0.1v0.1v0.1v0.1
				v0.1v0.1v0.1v0.1v0.1v0.1l0.1,0.1h0.1h0.1h0.1h0.1h0.1h0.1h0.1h0.1h0.1h0.1h0.1H82h0.1h0.1h0.1h0.1h0.1h0.1h0.1h0.1h0.1h0.1h0.1
				H83h0.1h0.1h0.1h0.1h0.1h0.1v-0.1v-0.1v-0.1v-0.1v-0.1v-0.1v-0.1v-0.1v-0.1v-0.1V58v-0.1v-0.1v-0.1v-0.1v-0.1v-0.1v-0.1v-0.1
				v-0.1v-0.1v-0.1V57v-0.1v-0.1v-0.1v-0.1v-0.1v-0.1v-0.1v-0.1v-0.1v-0.1v-0.1h-0.1h-0.1h-0.1h-0.1h-0.1H83h-0.1h-0.1h-0.1h-0.1
				h-0.1h-0.1h-0.1h-0.1h-0.1h-0.1h-0.1H82h-0.1h-0.1h-0.1h-0.1h-0.1h-0.1h-0.1h-0.1h-0.1h-0.1h-0.1H81l-0.1,0.1v0.1v0.1v0.1v0.1
				v0.1v0.1v0.1v0.1v0.1V57v0.1v0.1v0.1v0.1V57.5L80.9,57.5L80.9,57.5z M81.2,57.5L81.2,57.5L81.2,57.5v-0.2v-0.1v-0.1v-0.1V57v-0.1
				v-0.1v-0.1v-0.1v-0.1v-0.1v-0.1l0,0l0,0l0,0l0,0l0,0l0,0l0,0l0,0h0.1h0.1h0.1h0.1h0.1h0.1h0.1h0.1h0.1H82h0.1h0.1h0.1h0.1h0.1
				h0.1h0.1h0.1h0.1l0,0l0,0h0.1l0,0l0,0l0,0l0,0l0,0l0,0v0.1v0.1v0.1v0.1v0.1v0.1V57v0.1v0.1v0.1v0.1v0.1v0.1v0.1v0.1v0.1v0.1v0.1
				V58v0.1v0.1v0.1v0.1v0.1v0.1v0.1v0.1v0.1l0,0l0,0l0,0l0,0l0,0l0,0h-0.1l0,0l0,0h-0.1h-0.1h-0.1h-0.1h-0.1h-0.1h-0.1h-0.1H82h-0.1
				h-0.1h-0.1h-0.1h-0.1h-0.1h-0.1h-0.1h-0.1h-0.1l0,0l0,0l0,0l0,0l0,0l0,0l0,0l0,0v-0.1v-0.1v-0.1v-0.1v-0.1v-0.1v-0.1v-0.1V58
				v-0.1v-0.1v-0.1V57.5L81.2,57.5L81.2,57.5z M81.7,58.2h0.2v-0.6h0.2h0.1l0,0l0,0l0,0l0,0l0,0l0,0l0,0l0,0l0,0l0,0l0,0l0,0l0,0
				l0,0l0,0v0.1V58v0.1l0,0l0,0l0,0l0,0l0,0l0,0l0,0l0,0l0,0h0.2l0,0l0,0l0,0l0,0l0,0l0,0V58v-0.1v-0.1v-0.1l0,0l0,0l0,0l0,0l0,0
				l0,0l0,0l0,0l0,0l0,0l0,0l0,0l0,0l0,0l0,0l0,0l0,0l0,0l0,0l0,0l0,0l0,0l0,0l0,0l0,0l0,0l0,0l0,0l0,0l0,0l0,0l0,0l0,0l0,0l0,0l0,0
				l0,0l0,0l0,0l0,0l0,0l0,0l0,0l0,0l0,0l0,0l0,0l0,0l0,0l0,0h-0.5v0.4H81.7z M81.9,57h0.2l0,0l0,0l0,0l0,0l0,0l0,0l0,0l0,0l0,0l0,0
				l0,0l0,0l0,0l0,0l0,0l0,0l0,0l0,0l0,0l0,0l0,0l0,0l0,0l0,0l0,0l0,0l0,0l0,0l0,0l0,0l0,0l0,0H81.9L81.9,57L81.9,57z M87.7,67.4
				H71.3h-0.2H71h-0.2h-0.2l-0.2-0.1l-0.2-0.1l-0.4-0.2L69.8,67l-0.2-0.1l-0.2-0.1l-0.2-0.1l-0.2-0.1l-0.2-0.1l-0.2-0.2l-0.1-0.2
				l-0.2-0.2l-0.2-0.2l-0.1-0.2l-0.1-0.2l-0.1-0.2L68,65.3L68,65.1L67.9,65l-0.2-0.2l-0.1-0.2l-0.1-0.2l-0.1-0.2L67.4,64v-0.2v-0.2
				v-0.2v-0.2v-0.2v-0.2v-0.2v-0.2v-0.2l0.1-0.2l0.1-0.2l0.1-0.2l0.1-0.2l0.1-0.2l0.1-0.2l0.1-0.2l0.1-0.2l0.1-0.2l0.1-0.2l0.2-0.2
				l0.2-0.2l0.2-0.2l0.2-0.2l0.2-0.1l0.2-0.1l0.2-0.1l0.2-0.1l0.2-0.1l0.2-0.1l0.2-0.1l0.2-0.1l0.2-0.1h0.2h0.2h0.2H71h0.2h0.2h0.2
				h0.2l0.2,0.1l0.2,0.1l0.2,0.1l0.2,0.1l0.2,0.1l0.2,0.1l0.2,0.1l0.2,0.1l0.2,0.2l0.2,0.2l0.2,0.2l0.2,0.2l0.2,0.2l0.2,0.2l0.1,0.2
				l0.1,0.2l0.1,0.2l0.1,0.2l0.1,0.2l0.1,0.2l0.1,0.2l0.1,0.2l0.1,0.2l0.1,0.2v0.2v0.2v0.2v0.2l0,0h-0.1h0.4h-0.1h-0.2h-0.2h-0.2
				h-0.2h-0.2h-0.2h-0.2h-0.2h-0.1h-0.2l0,0l0,0v-0.2v-0.2v-0.2v-0.2v-0.2v-0.1v-0.1v-0.1v-0.1l-0.2-0.1l-0.1-0.1L73.1,62L73,61.9
				l-0.1-0.1l-0.1-0.1l-0.1-0.1l-0.1-0.1l-0.1-0.1l0.1-0.2l-0.1-0.1l-0.1-0.1l-0.1-0.1L72.3,61l-0.1-0.1l-0.1-0.1h-0.1H72h-0.1h-0.1
				h-0.1h-0.1h-0.1h-0.1h-0.1h-0.1h-0.1h-0.1h-0.1H71l-0.1,0.1L70.8,61l-0.1,0.1l-0.6,0.1l-0.1,0.1L70,61.3l-0.1,0.1l-0.1,0.1
				l-0.1,0.1l-0.1,0.1l-0.1,0.1l-0.1,0.1l-0.1,0.1L69.4,62l0.1,0.2v0.1v0.1v0.1v0.1v0.1v0.2v0.2v0.2v0.2v0.2v0.1v0.1v0.1v0.1v0.1
				v0.1V64V64l0.1,0.1l0.1,0.1l0.1,0.1l0.1,0.1l0.1,0.1l0.1,0.1l0.1,0.1l0.1,0.1l0.1,0.1l0.1,0.1l0.1,0.1l0.1,0.1l0.1,0.1l0.1,0.1
				l0.1,0.1h0.1h0.1h0.1H71h0.1h0.1h0.1h0.1h0.1h16.4L87.7,67.4L87.7,67.4z M87.7,70.6H71.3H71h-0.3l-0.3-0.1l-0.4-0.1l-0.3-0.1
				l-0.3-0.1l-0.3-0.1L68.6,70l-0.3-0.2L68,69.7l-0.2-0.1l-0.2-0.2l-0.2-0.2L67.1,69l-0.3-0.2l-0.2-0.2l-0.2-0.2L66.1,68l-0.2-0.2
				l-0.2-0.2l-0.2-0.3l-0.2-0.3l-0.2-0.3l-0.2-0.3L65,65.9l-0.1-0.3l-0.1-0.3l-0.1-0.3l-0.1-0.3l-0.1-0.3v-0.4v-0.4V63v-0.4l0.1-0.4
				l0.1-0.3l0.1-0.3l0.1-0.3l0.1-0.3l0.1-0.3l0.2-0.3l0.2-0.3l0.2-0.3l0.2-0.3l0.2-0.3l0.2-0.3l0.2-0.2l0.2-0.2l0.2-0.2l0.2-0.2
				l0.2-0.2l0.2-0.2l0.2-0.2l0.2-0.2l0.3-0.2l0.3-0.2l0.3-0.2l0.3-0.2l0.3-0.1l0.3-0.1l0.3-0.1l0.3-0.1H71h0.3h0.3H72l0.3,0.1
				l0.3,0.1l0.3,0.1l0.3,0.1l0.3,0.1l0.3,0.2l0.3,0.2l0.3,0.2l0.2,0.2l0.2,0.2l0.2,0.2l0.2,0.2l0.2,0.2l0.2,0.2l0.2,0.2l0.2,0.2
				l0.2,0.3L77,59l0.2,0.3l0.2,0.3l0.2,0.3l0.2,0.3l0.1,0.3l0.1,0.3l0.1,0.3l0.1,0.4l0.1,0.4l0.1,0.4V63v0.4h-1.8v-0.2v-0.2v-0.2
				v-0.2l-0.1-0.2l-0.1-0.2l-0.1-0.2L76,61.2L75.9,61l-0.1-0.2l-0.1-0.2l-0.1-0.2L75.5,60l-0.2-0.2l-0.2-0.2L75,59.4l-0.2-0.2
				l-0.2-0.2l-0.2-0.2l-0.2-0.2l-0.2-0.2l-0.2-0.2l-0.2-0.2l-0.2-0.1L73.2,58L73,57.9l-0.2-0.1l-0.2-0.1l-0.2-0.1H72h-0.2h-0.3h-0.3
				h-0.2h-0.2l-0.4,0.1l-0.2,0.1l-0.2,0.1L69.4,58l-0.2,0.1l-0.2,0.1l-0.2,0.2l-0.2,0.2l-0.2,0.2l-0.2,0.2L68,59l-0.2,0.2l-0.2,0.2
				l-0.2,0.3l-0.2,0.2l-0.2,0.2L67,60.4l-0.1,0.2v0.1L66.8,61l-0.1,0.2l-0.1,0.2l-0.1,0.2L66.5,62l-0.1,0.2v0.2v0.2V63v0.2v0.2v0.2
				V64v0.2l0.1,0.2l0.1,0.2l0.1,0.2l0.1,0.2l0.1,0.2l0.1,0.2l0.1,0.2l0.2,0.2l0.2,0.2l0.2,0.2l0.2,0.2l0.2,0.2L68,67l0.2,0.2
				l0.2,0.2l0.2,0.2l0.2,0.2l0.2,0.2l0.2,0.1l0.2,0.1l0.2,0.1l0.2,0.1l0.2,0.1l0.2,0.1l0.2,0.1h0.2h0.2h0.2h16.4V70.6L87.7,70.6z
				 M59.9,58.8h-3.7v2H58v10.1h1.8L59.9,58.8L59.9,58.8z"/>
		</g>
	</g>
</g>
</svg>
