<?xml version="1.0" encoding="utf-8"?>
<!-- Generator: Adobe Illustrator 16.0.0, SVG Export Plug-In . SVG Version: 6.00 Build 0)  -->
<!DOCTYPE svg PUBLIC "-//W3C//DTD SVG 1.1//EN" "http://www.w3.org/Graphics/SVG/1.1/DTD/svg11.dtd">
<svg version="1.1" id="Layer_1" xmlns="http://www.w3.org/2000/svg" xmlns:xlink="http://www.w3.org/1999/xlink" x="0px" y="0px"
	 width="120px" height="144px" viewBox="0 0 120 144" enable-background="new 0 0 120 144" xml:space="preserve">
<g>
	<path fill="#FEDA46" d="M98.649,12.074h-73c-3.165,0-5.739,2.554-5.739,5.694v100.101c0,8.854,7.26,16.057,16.184,16.057h52.111
		c8.924,0,16.184-7.203,16.184-16.057V17.768C104.389,14.627,101.814,12.074,98.649,12.074z M98.879,117.869
		c0,5.84-4.788,10.592-10.674,10.592H36.094c-5.886,0-10.674-4.752-10.674-10.592V17.768c0-0.126,0.103-0.229,0.229-0.229h73
		c0.126,0,0.229,0.103,0.229,0.229V117.869z"/>
	<path fill="#FEDA46" d="M86.999,27.906h-49.7c-1.521,0-2.754,1.224-2.754,2.732v17.334c0,1.51,1.233,2.733,2.754,2.733h49.7
		c1.521,0,2.755-1.224,2.755-2.733V30.638C89.754,29.129,88.521,27.906,86.999,27.906z M84.244,45.24h-44.19V33.372h44.19V45.24z"/>
	<path fill="#FEDA46" d="M48.162,85.447H37.299c-1.521,0-2.754,1.225-2.754,2.734v10.707c0,1.51,1.233,2.734,2.754,2.734h10.862
		c1.521,0,2.755-1.225,2.755-2.734V88.182C50.917,86.672,49.684,85.447,48.162,85.447z M45.407,96.156h-5.353v-5.242h5.353V96.156z"
		/>
	<path fill="#FEDA46" d="M67.649,85.447H56.787c-1.521,0-2.755,1.225-2.755,2.734v10.707c0,1.51,1.234,2.734,2.755,2.734h10.862
		c1.521,0,2.755-1.225,2.755-2.734V88.182C70.404,86.672,69.17,85.447,67.649,85.447L67.649,85.447z M64.895,96.156h-5.353v-5.242
		h5.352L64.895,96.156L64.895,96.156z"/>
	<path fill="#FEDA46" d="M48.162,66.782H37.299c-1.521,0-2.754,1.224-2.754,2.733v10.708c0,1.51,1.233,2.732,2.754,2.732h10.862
		c1.521,0,2.755-1.223,2.755-2.732V69.515C50.917,68.005,49.684,66.782,48.162,66.782z M45.407,77.49h-5.353v-5.243h5.353V77.49z"/>
	<path fill="#FEDA46" d="M67.649,66.782H56.787c-1.521,0-2.755,1.224-2.755,2.733v10.708c0,1.51,1.234,2.732,2.755,2.732h10.862
		c1.521,0,2.755-1.223,2.755-2.732V69.515C70.404,68.005,69.17,66.782,67.649,66.782L67.649,66.782z M64.895,77.49h-5.353v-5.243
		h5.352L64.895,77.49L64.895,77.49z"/>
	<path fill="#FEDA46" d="M86.999,66.782H76.137c-1.521,0-2.755,1.224-2.755,2.733v10.708c0,1.51,1.233,2.732,2.755,2.732h10.862
		c1.521,0,2.755-1.223,2.755-2.732V69.515C89.754,68.005,88.521,66.782,86.999,66.782z M84.244,77.49h-5.353v-5.243h5.353V77.49z"/>
	<path fill="#FEDA46" d="M48.162,104.449H37.299c-1.521,0-2.754,1.225-2.754,2.734v10.707c0,1.51,1.233,2.734,2.754,2.734h10.862
		c1.521,0,2.755-1.225,2.755-2.734v-10.707C50.917,105.674,49.684,104.449,48.162,104.449z M45.407,115.158h-5.353v-5.242h5.353
		V115.158z"/>
	<path fill="#FEDA46" d="M67.649,104.449H56.787c-1.521,0-2.755,1.225-2.755,2.734v10.707c0,1.51,1.234,2.734,2.755,2.734h10.862
		c1.521,0,2.755-1.225,2.755-2.734v-10.707C70.404,105.674,69.17,104.449,67.649,104.449L67.649,104.449z M64.895,115.158h-5.353
		v-5.242h5.352L64.895,115.158L64.895,115.158z"/>
	<path fill="#FEDA46" d="M86.999,85.447H76.137c-1.521,0-2.755,1.225-2.755,2.734v29.709c0,1.51,1.233,2.734,2.755,2.734h10.862
		c1.521,0,2.755-1.225,2.755-2.734V88.182C89.754,86.672,88.521,85.447,86.999,85.447z M84.244,115.158h-5.353V90.914h5.353V115.158
		z"/>
</g>
</svg>
