<?xml version="1.0" encoding="utf-8"?>
<!-- Generator: Adobe Illustrator 16.0.0, SVG Export Plug-In . SVG Version: 6.00 Build 0)  -->
<!DOCTYPE svg PUBLIC "-//W3C//DTD SVG 1.1//EN" "http://www.w3.org/Graphics/SVG/1.1/DTD/svg11.dtd">
<svg version="1.1" id="Layer_1" xmlns="http://www.w3.org/2000/svg" xmlns:xlink="http://www.w3.org/1999/xlink" x="0px" y="0px"
	 width="120px" height="144px" viewBox="0 0 120 144" enable-background="new 0 0 120 144" xml:space="preserve">
<path fill="#FEDA46" d="M113.697,100.184h-8.951V86.129c0-0.771-0.447-1.396-1.001-1.396H61.718V60.582h14.284
	c1.847,0,3.351-2.101,3.351-4.683V13.183c0-2.582-1.504-4.683-3.351-4.683H45.436c-1.848,0-3.352,2.101-3.352,4.683v42.716
	c0,2.582,1.503,4.683,3.352,4.683h14.283v24.151H17.69c-0.551,0-0.999,0.625-0.999,1.396v14.055H7.739c-1.847,0-3.35,2.1-3.35,4.683
	v25.951c0,2.582,1.503,4.683,3.35,4.683h19.903c1.848,0,3.352-2.101,3.352-4.683v-25.951c0-2.583-1.503-4.683-3.352-4.683h-8.952
	V87.525h41.03v12.658h-8.952c-1.848,0-3.351,2.1-3.351,4.683v25.951c0,2.582,1.503,4.683,3.351,4.683h19.904
	c1.846,0,3.349-2.101,3.349-4.683v-25.951c0-2.583-1.503-4.683-3.349-4.683h-8.953V87.525h41.029v12.658h-8.952
	c-1.847,0-3.351,2.1-3.351,4.683v25.951c0,2.582,1.504,4.683,3.351,4.683h19.902c1.848,0,3.352-2.101,3.352-4.683v-25.951
	C117.049,102.283,115.546,100.184,113.697,100.184z M42.649,54.392V20.941h26.815c0.584,0,1.057-0.645,1.057-1.44
	c0-0.796-0.473-1.441-1.057-1.441H42.649v-7.73c0-1.075,0.642-1.949,1.431-1.949h32.342c0.789,0,1.431,0.874,1.431,1.949v35.183
	H54.912c-0.584,0-1.057,0.645-1.057,1.44s0.473,1.44,1.057,1.44h22.941v5.998c0,1.075-0.642,1.949-1.431,1.949H44.08
	C43.291,56.341,42.649,55.467,42.649,54.392z M26.684,104.901v12.293H10.506c-0.584,0-1.057,0.646-1.057,1.441
	c0,0.795,0.472,1.44,1.057,1.44h16.178v11.594c0,1.075-0.643,1.949-1.431,1.949H4.194c-0.789,0-1.43-0.874-1.43-1.949v-2.443h13.713
	c0.583,0,1.058-0.644,1.058-1.44c0-0.795-0.474-1.439-1.058-1.439H2.764v-21.445c0-1.075,0.641-1.949,1.43-1.949h21.06
	C26.042,102.952,26.684,103.826,26.684,104.901z M72.211,104.901v26.769c0,1.075-0.641,1.949-1.43,1.949h-21.06
	c-0.789,0-1.431-0.874-1.431-1.949v-4.985h18.188c0.584,0,1.058-0.645,1.058-1.44s-0.474-1.44-1.058-1.44H48.291v-6.778h9.606
	c0.584,0,1.057-0.645,1.057-1.44s-0.472-1.44-1.057-1.44h-9.606V104.9c0-1.074,0.642-1.948,1.431-1.948h21.06
	C71.57,102.952,72.211,103.826,72.211,104.901z M116.308,133.619h-21.06c-0.789,0-1.431-0.874-1.431-1.949v-26.769
	c0-1.075,0.642-1.949,1.431-1.949h21.06c0.789,0,1.431,0.874,1.431,1.949v4.159h-16.556c-0.583,0-1.058,0.645-1.058,1.44
	s0.475,1.44,1.058,1.44h16.556v5.253h-9.839c-0.584,0-1.057,0.646-1.057,1.44c0,0.796,0.473,1.441,1.057,1.441h9.839v11.594
	C117.738,132.745,117.097,133.619,116.308,133.619z"/>
</svg>
