<?xml version="1.0" encoding="utf-8"?>
<!-- Generator: Adobe Illustrator 16.0.0, SVG Export Plug-In . SVG Version: 6.00 Build 0)  -->
<!DOCTYPE svg PUBLIC "-//W3C//DTD SVG 1.1//EN" "http://www.w3.org/Graphics/SVG/1.1/DTD/svg11.dtd">
<svg version="1.1" id="Layer_1" xmlns="http://www.w3.org/2000/svg" xmlns:xlink="http://www.w3.org/1999/xlink" x="0px" y="0px"
	 width="120px" height="144px" viewBox="0 0 120 144" enable-background="new 0 0 120 144" xml:space="preserve">
<g>
	<g>
		<g>
			<path fill="#FEDA46" d="M101.619,31.031l-5.643-0.029c-0.004,0-0.008,0-0.011,0c-0.011,0-0.021,0.001-0.031,0.001v-3.534
				c0-0.984-0.847-1.781-1.892-1.781h-5.674v-3.562c0-0.983-0.846-1.781-1.891-1.781H39.396C39.155,17.359,36.501,15,33.272,15
				c-3.229,0-5.883,2.359-6.124,5.344h-8.757c-1.044,0-1.891,0.797-1.891,1.781v90.844c0,0.984,0.847,1.781,1.891,1.781h3.782v5.344
				c0,0.984,0.847,1.781,1.892,1.781h3.782v5.344c0,0.984,0.847,1.781,1.891,1.781h71.868c1.045,0,1.892-0.797,1.892-1.781V32.812
				C103.5,31.833,102.659,31.037,101.619,31.031z M33.272,18.562c1.141,0,2.095,0.767,2.313,1.781h-4.626
				C31.177,19.329,32.131,18.562,33.272,18.562z M20.284,111.188V23.906h6.846v12.896c0,3.19,2.755,5.786,6.143,5.786
				s6.143-2.596,6.143-5.786v-8.008c0-0.984-0.847-1.781-1.892-1.781c-1.044,0-1.891,0.797-1.891,1.781v8.008
				c0,1.227-1.059,2.224-2.36,2.224c-1.301,0-2.36-0.997-2.36-2.224V23.906h53.674v87.281H20.284z M25.957,118.312v-3.562l0,0
				h60.521c1.044,0,1.891-0.797,1.891-1.78V29.25h3.783v89.062H25.957z M31.631,125.438v-3.562h62.412
				c1.045,0,1.891-0.798,1.891-1.781V34.563c0.008,0,0.015,0.001,0.021,0.001l3.762,0.02v90.854H31.631z"/>
			<path fill="#FEDA46" d="M65.674,54.188H39.196c-1.044,0-1.892,0.798-1.892,1.781c0,0.984,0.847,1.781,1.892,1.781h26.478
				c1.045,0,1.892-0.797,1.892-1.781C67.565,54.985,66.719,54.188,65.674,54.188z"/>
			<path fill="#FEDA46" d="M65.674,61.312H39.196c-1.044,0-1.892,0.798-1.892,1.781c0,0.984,0.847,1.781,1.892,1.781h26.478
				c1.045,0,1.892-0.797,1.892-1.781C67.565,62.11,66.719,61.312,65.674,61.312z"/>
			<path fill="#FEDA46" d="M58.109,68.438H46.761c-1.045,0-1.892,0.798-1.892,1.781c0,0.984,0.847,1.781,1.892,1.781h11.348
				C59.153,72,60,71.203,60,70.219C60,69.235,59.154,68.438,58.109,68.438z"/>
		</g>
	</g>
</g>
</svg>
