<?xml version="1.0" encoding="utf-8"?>
<!-- Generator: Adobe Illustrator 16.0.0, SVG Export Plug-In . SVG Version: 6.00 Build 0)  -->
<!DOCTYPE svg PUBLIC "-//W3C//DTD SVG 1.1//EN" "http://www.w3.org/Graphics/SVG/1.1/DTD/svg11.dtd">
<svg version="1.1" id="Layer_1" xmlns="http://www.w3.org/2000/svg" xmlns:xlink="http://www.w3.org/1999/xlink" x="0px" y="0px"
	 width="120px" height="144px" viewBox="0 0 120 144" enable-background="new 0 0 120 144" xml:space="preserve">
<path fill="#FEDA46" d="M109.605,114.325h-0.114V23.36c0-1.941-1.595-3.521-3.554-3.521H98.6c-1.959,0-3.554,1.579-3.554,3.521
	v0.113H25.114V23.36c0-1.941-1.594-3.521-3.554-3.521h-7.337c-1.96,0-3.554,1.579-3.554,3.521v90.965h-0.114
	c-1.96,0-3.554,1.579-3.554,3.521v3.634C7,123.421,8.594,125,10.554,125h99.051c1.96,0,3.555-1.579,3.555-3.521v-3.634
	C113.16,115.904,111.565,114.325,109.605,114.325z M98.485,23.36c0-0.062,0.052-0.113,0.114-0.113h7.338
	c0.062,0,0.114,0.051,0.114,0.113v90.965h-7.566V23.36z M25.114,114.325v-11.13h3.898v0.114c0,2.943,2.417,5.337,5.388,5.337
	c2.971,0,5.388-2.394,5.388-5.337v-0.114h13.069v0.114c0,2.943,2.417,5.337,5.388,5.337c1.417,0,2.706-0.545,3.668-1.433
	c0.963,0.888,2.252,1.433,3.668,1.433c1.417,0,2.707-0.545,3.67-1.433c0.963,0.888,2.252,1.433,3.668,1.433s2.705-0.545,3.668-1.433
	c0.963,0.888,2.253,1.433,3.67,1.433c2.971,0,5.387-2.394,5.387-5.337v-0.114h9.401v11.13H25.114z M78.309,99.675
	c0-1.064,0.873-1.93,1.949-1.93c1.074,0,1.948,0.865,1.948,1.93v3.635c0,1.064-0.874,1.931-1.948,1.931
	c-1.076,0-1.949-0.866-1.949-1.931V99.675z M80.258,94.338c-1.417,0-2.707,0.545-3.67,1.433c-0.963-0.888-2.252-1.433-3.668-1.433
	s-2.705,0.545-3.668,1.433c-0.963-0.888-2.253-1.433-3.67-1.433c-1.416,0-2.705,0.545-3.668,1.433
	c-0.963-0.888-2.252-1.433-3.668-1.433c-2.971,0-5.388,2.395-5.388,5.337v0.114H39.788v-0.114c0-2.942-2.417-5.337-5.388-5.337
	c-2.971,0-5.388,2.395-5.388,5.337v0.114h-3.898V85.025h11.235v0.113c0,2.943,2.417,5.338,5.388,5.338s5.388-2.395,5.388-5.338
	v-0.113h13.069v0.113c0,2.943,2.417,5.338,5.388,5.338c1.417,0,2.707-0.545,3.67-1.434c0.963,0.889,2.252,1.434,3.668,1.434
	c2.971,0,5.389-2.395,5.389-5.338v-0.113h16.737v14.764h-9.401v-0.114C85.645,96.732,83.229,94.338,80.258,94.338z M70.971,99.675
	c0-1.064,0.875-1.93,1.949-1.93s1.949,0.865,1.949,1.93v3.635c0,1.064-0.875,1.931-1.949,1.931s-1.949-0.866-1.949-1.931V99.675z
	 M63.634,99.675c0-1.064,0.874-1.93,1.948-1.93c1.075,0,1.949,0.865,1.949,1.93v3.635c0,1.064-0.874,1.931-1.949,1.931
	c-1.074,0-1.948-0.866-1.948-1.931V99.675z M56.297,99.675c0-1.064,0.874-1.93,1.949-1.93s1.949,0.865,1.949,1.93v3.635
	c0,1.064-0.874,1.931-1.949,1.931s-1.949-0.866-1.949-1.931V99.675z M32.451,99.675c0-1.064,0.875-1.93,1.949-1.93
	s1.949,0.865,1.949,1.93v3.635c0,1.064-0.874,1.931-1.949,1.931s-1.949-0.866-1.949-1.931V99.675z M32.451,46.986
	c0-0.002,0-0.003,0-0.005c0-0.001,0-0.003,0-0.004v-1.812c0-1.065,0.875-1.931,1.949-1.931s1.949,0.865,1.949,1.931v3.634
	c0,1.064-0.874,1.931-1.949,1.931s-1.949-0.866-1.949-1.931V46.986L32.451,46.986z M34.4,54.136c2.971,0,5.388-2.394,5.388-5.337
	v-0.114h27.743v0.114c0,2.943,2.418,5.337,5.389,5.337c1.416,0,2.705-0.544,3.668-1.433c0.963,0.889,2.253,1.433,3.67,1.433
	c2.971,0,5.387-2.394,5.387-5.337v-0.114h9.401v14.764H47.125v-0.113c0-2.943-2.417-5.338-5.388-5.338
	c-1.416,0-2.706,0.545-3.668,1.434c-0.963-0.889-2.252-1.434-3.668-1.434c-2.971,0-5.388,2.395-5.388,5.338v0.113h-3.898V48.685
	h3.898v0.114C29.012,51.742,31.429,54.136,34.4,54.136z M74.869,48.799c0,1.064-0.875,1.931-1.949,1.931s-1.949-0.866-1.949-1.931
	v-3.634c0-1.065,0.875-1.931,1.949-1.931s1.949,0.865,1.949,1.931V48.799z M82.206,46.969c0,0.004-0.001,0.009-0.001,0.013
	c0,0.005,0.001,0.009,0.001,0.014v1.804c0,1.064-0.874,1.931-1.948,1.931c-1.076,0-1.949-0.866-1.949-1.931v-3.634
	c0-1.065,0.873-1.931,1.949-1.931c1.074,0,1.948,0.865,1.948,1.931V46.969z M70.971,81.505c0-1.064,0.875-1.931,1.949-1.931
	s1.949,0.866,1.949,1.931v3.634c0,1.064-0.875,1.931-1.949,1.931s-1.949-0.866-1.949-1.931V81.505z M72.92,76.168
	c-1.416,0-2.705,0.544-3.668,1.433c-0.963-0.889-2.253-1.433-3.67-1.433c-2.971,0-5.388,2.395-5.388,5.337v0.113H47.125v-0.113
	c0-2.942-2.417-5.337-5.388-5.337s-5.388,2.395-5.388,5.337v0.113H25.114V66.855h3.898v0.113c0,2.943,2.417,5.338,5.388,5.338
	c1.416,0,2.706-0.545,3.668-1.434c0.963,0.889,2.252,1.434,3.668,1.434c2.971,0,5.388-2.395,5.388-5.338v-0.113h47.921v14.763
	H78.309v-0.113C78.309,78.562,75.891,76.168,72.92,76.168z M63.634,81.505c0-1.064,0.874-1.931,1.948-1.931
	c1.075,0,1.949,0.866,1.949,1.931v3.634c0,1.064-0.874,1.931-1.949,1.931c-1.074,0-1.948-0.866-1.948-1.931V81.505z M39.788,81.505
	c0-1.064,0.874-1.931,1.949-1.931s1.949,0.866,1.949,1.931v3.634c0,1.064-0.875,1.931-1.949,1.931s-1.949-0.866-1.949-1.931V81.505z
	 M36.349,66.969c0,1.064-0.874,1.931-1.949,1.931s-1.949-0.866-1.949-1.931v-3.634c0-1.064,0.875-1.931,1.949-1.931
	s1.949,0.866,1.949,1.931V66.969z M43.686,65.139c0,0.005-0.001,0.009-0.001,0.013c0,0.005,0.001,0.009,0.001,0.014v1.804
	c0,1.064-0.875,1.931-1.949,1.931s-1.949-0.866-1.949-1.931v-3.634c0-1.064,0.874-1.931,1.949-1.931s1.949,0.866,1.949,1.931V65.139
	z M95.046,45.278h-9.401v-0.113c0-2.943-2.416-5.338-5.387-5.338c-1.417,0-2.707,0.545-3.67,1.434
	c-0.963-0.889-2.252-1.434-3.668-1.434c-2.971,0-5.389,2.395-5.389,5.338v0.113H39.788v-0.113c0-2.943-2.417-5.338-5.388-5.338
	c-2.971,0-5.388,2.395-5.388,5.338v0.113h-3.898v-11.13h69.932V45.278z M95.046,26.881v3.861H25.114v-3.861H95.046z M14.108,23.36
	c0-0.062,0.052-0.113,0.115-0.113h7.337c0.063,0,0.115,0.051,0.115,0.113v90.965h-7.566V23.36z M109.721,121.479
	c0,0.062-0.052,0.113-0.115,0.113H10.554c-0.063,0-0.115-0.051-0.115-0.113v-3.634c0-0.062,0.051-0.114,0.115-0.114h99.051
	c0.063,0,0.115,0.052,0.115,0.114V121.479z"/>
</svg>
