<?xml version="1.0" encoding="utf-8"?>
<!-- Generator: Adobe Illustrator 19.0.0, SVG Export Plug-In . SVG Version: 6.00 Build 0)  -->
<svg version="1.1" id="Layer_1" xmlns="http://www.w3.org/2000/svg" xmlns:xlink="http://www.w3.org/1999/xlink" x="0px" y="0px"
	 viewBox="-67 57 120 144" style="enable-background:new -67 57 120 144;" xml:space="preserve">
<style type="text/css">
	.st0{fill:#FFDA00;}
	.st1{fill:#FFFFFF;}
</style>
<g>
	<path class="st0" d="M-61.2,79.6v51.8h47.1v-17.3h25.3V79.6H-61.2z M-49.4,123.7c-1.5,0-2.7-1.3-2.7-2.9c0-1.6,1.2-2.9,2.7-2.9
		c1.5,0,2.7,1.3,2.7,2.9C-46.7,122.5-47.9,123.7-49.4,123.7z M-36.7,110.3c-1.5,0-2.7-1.3-2.7-2.9c0-1.6,1.2-2.9,2.7-2.9
		c1.5,0,2.7,1.3,2.7,2.9C-34,109-35.2,110.3-36.7,110.3z M-22.3,118c-1.5,0-2.7-1.3-2.7-2.9c0-1.6,1.2-2.9,2.7-2.9
		c1.5,0,2.7,1.3,2.7,2.9C-19.5,116.7-20.8,118-22.3,118z M-0.5,93c-1.5,0-2.7-1.3-2.7-2.9c0-1.6,1.2-2.9,2.7-2.9
		c1.5,0,2.7,1.3,2.7,2.9C2.2,91.7,1,93-0.5,93z"/>
	<path class="st0" d="M42,119.9H-8.7v23H42L42,119.9L42,119.9z M38.4,139.1H-5.1v-15.4h43.5L38.4,139.1L38.4,139.1z"/>
	<path class="st0" d="M5.8,146.8H-8.7v15.4H5.8L5.8,146.8L5.8,146.8z M2.2,158.3h-7.2v-7.7h7.2V158.3z"/>
	<path class="st0" d="M5.8,166H-8.7v15.4H5.8L5.8,166L5.8,166z M2.2,177.5h-7.2v-7.7h7.2V177.5z"/>
	<path class="st0" d="M9.4,162.1h14.5v-15.4H9.4V162.1z M13,150.6h7.2v7.7H13V150.6z"/>
	<path class="st0" d="M-15.9,112.2v19.2H-63v9.6h10.5l-8.6,45.7l3.6,0.8l8.8-46.4h22.1v46.1h3.6V141h7.2v48h65.2v-76.8H-15.9z
		 M-59.4,137.2v-1.9h43.5v1.9H-59.4z M45.6,185.2h-57.9v-69.1h57.9V185.2z"/>
	<path class="st0" d="M9.4,181.3h14.5V166H9.4V181.3z M13,169.8h7.2v7.7H13V169.8z"/>
	<path class="st0" d="M27.5,162.1H42v-15.4H27.5V162.1L27.5,162.1z M31.2,150.6h7.2v7.7h-7.2V150.6z"/>
	<path class="st0" d="M27.5,181.3H42V166H27.5V181.3L27.5,181.3z M31.2,169.8h7.2v7.7h-7.2V169.8z"/>
	<path class="st0" d="M13,70h-76v9.6h76V70z M9.4,75.8h-68.8v-1.9H9.4L9.4,75.8L9.4,75.8z"/>
	<path class="st1" d="M-0.5,95C2,95,4,92.8,4,90.2c0-2.6-2-4.8-4.5-4.8c-2.5,0-4.5,2.2-4.5,4.8c0,0.7,0.1,1.3,0.4,1.9l-16.1,18.6
		c-0.5-0.2-1-0.3-1.5-0.3c-1.2,0-2.3,0.5-3.1,1.3l-6.8-4.4c-0.1-2.6-2.1-4.7-4.5-4.7c-2.5,0-4.5,2.2-4.5,4.8c0,0.6,0.1,1.2,0.3,1.7
		l-6.8,7.2c-0.5-0.2-1.1-0.3-1.6-0.3c-2.5,0-4.5,2.2-4.5,4.8c0,2.6,2,4.8,4.5,4.8c2.5,0,4.5-2.2,4.5-4.8c0-0.6-0.1-1.2-0.3-1.7
		l6.8-7.2c0.5,0.2,1.1,0.3,1.6,0.3c1.2,0,2.3-0.5,3.1-1.3l6.8,4.4c0.1,2.6,2.1,4.7,4.5,4.7c2.5,0,4.5-2.2,4.5-4.8
		c0-0.7-0.1-1.3-0.4-1.9L-2,94.7C-1.6,94.8-1.1,95-0.5,95z M-0.5,89.2c0.5,0,0.9,0.4,0.9,1c0,0.5-0.4,1-0.9,1c-0.5,0-0.9-0.4-0.9-1
		C-1.4,89.6-1,89.2-0.5,89.2z M-49.4,121.8c-0.5,0-0.9-0.4-0.9-1s0.4-1,0.9-1c0.5,0,0.9,0.4,0.9,1
		C-48.5,121.4-48.9,121.8-49.4,121.8z M-36.7,108.4c-0.5,0-0.9-0.4-0.9-1c0-0.5,0.4-1,0.9-1s0.9,0.4,0.9,1
		C-35.8,108-36.2,108.4-36.7,108.4z M-22.3,116.1c-0.5,0-0.9-0.4-0.9-1c0-0.5,0.4-1,0.9-1c0.5,0,0.9,0.4,0.9,1
		C-21.4,115.6-21.8,116.1-22.3,116.1z"/>
</g>
</svg>
