<?xml version="1.0" encoding="utf-8"?>
<!-- Generator: Adobe Illustrator 19.0.0, SVG Export Plug-In . SVG Version: 6.00 Build 0)  -->
<svg version="1.1" id="Layer_1" xmlns="http://www.w3.org/2000/svg" xmlns:xlink="http://www.w3.org/1999/xlink" x="0px" y="0px"
	 viewBox="-67 57 120 144" style="enable-background:new -67 57 120 144;" xml:space="preserve">
<style type="text/css">
	.st0{fill:#FFFFFF;}
	.st1{fill:#FBD123;}
</style>
<g>
	<rect x="-38.1" y="101.3" class="st0" width="7.6" height="7.6"/>
	<rect x="-38.1" y="122.7" class="st0" width="7.6" height="7.6"/>
	<rect x="-38.1" y="144.1" class="st0" width="7.6" height="7.6"/>
	<rect x="-38.1" y="165.4" class="st0" width="7.6" height="7.6"/>
	<path class="st0" d="M28.4,150.2H-19c-1.3,0-2.3-1-2.3-2.3s1-2.3,2.3-2.3h47.4c1.3,0,2.3,1,2.3,2.3S29.6,150.2,28.4,150.2z
		 M28.4,128.8H-19c-1.3,0-2.3-1-2.3-2.3c0-1.3,1-2.3,2.3-2.3h47.4c1.3,0,2.3,1,2.3,2.3C30.7,127.8,29.6,128.8,28.4,128.8z
		 M-15.5,81.4h43.9c1.3,0,2.3,1,2.3,2.3s-1,2.3-2.3,2.3h-43.9c-1.3,0-2.3-1-2.3-2.3S-16.8,81.4-15.5,81.4z M28.4,102.8
		c1.3,0,2.3,1,2.3,2.3s-1,2.3-2.3,2.3H-19c-1.3,0-2.3-1-2.3-2.3s1-2.3,2.3-2.3H28.4z M-40.4,83.6c0.9-0.9,2.3-0.9,3.2,0l3,3
		L-23.6,76c0.9-0.9,2.3-0.9,3.2,0c0.9,0.9,0.9,2.3,0,3.2l-12.2,12.2c-0.4,0.4-1,0.7-1.6,0.7c-0.6,0-1.2-0.2-1.6-0.7l-4.6-4.6
		C-41.3,86-41.3,84.5-40.4,83.6z M-25.8,175.4c0,1.3-1,2.3-2.3,2.3h-12.2c-1.3,0-2.3-1-2.3-2.3v-12.2c0-1.3,1-2.3,2.3-2.3h12.2
		c1.3,0,2.3,1,2.3,2.3V175.4z M-25.8,154c0,1.3-1,2.3-2.3,2.3h-12.2c-1.3,0-2.3-1-2.3-2.3v-12.2c0-1.3,1-2.3,2.3-2.3h12.2
		c1.3,0,2.3,1,2.3,2.3V154z M-25.8,132.6c0,1.3-1,2.3-2.3,2.3h-12.2c-1.3,0-2.3-1-2.3-2.3v-12.2c0-1.3,1-2.3,2.3-2.3h12.2
		c1.3,0,2.3,1,2.3,2.3V132.6z M-25.8,111.2c0,1.3-1,2.3-2.3,2.3h-12.2c-1.3,0-2.3-1-2.3-2.3V99c0-1.3,1-2.3,2.3-2.3h12.2
		c1.3,0,2.3,1,2.3,2.3V111.2z M8.5,171.6H-19c-1.3,0-2.3-1-2.3-2.3s1-2.3,2.3-2.3H8.5c1.3,0,2.3,1,2.3,2.3S9.8,171.6,8.5,171.6z"/>
	<polygon class="st0" points="20,171.6 20,192.8 41.2,171.6 	"/>
	<path class="st1" d="M48.5,170.7c0,0,0.1-0.1,0.1-0.1c0,0,0,0,0,0c0-0.1,0.1-0.1,0.1-0.2c0,0,0,0,0,0c0-0.1,0.1-0.1,0.1-0.2
		c0,0,0,0,0,0c0-0.1,0-0.1,0.1-0.2c0,0,0,0,0,0c0-0.1,0-0.1,0-0.2c0,0,0,0,0-0.1c0-0.1,0-0.1,0-0.2c0-0.1,0-0.2,0-0.2v-110
		c0-1.3-1-2.3-2.3-2.3H-58.7c-1.3,0-2.3,1-2.3,2.3v139c0,1.3,1,2.3,2.3,2.3h76.4c0.1,0,0.2,0,0.2,0c0.1,0,0.1,0,0.2,0c0,0,0,0,0.1,0
		c0.1,0,0.1,0,0.2,0c0,0,0,0,0,0c0.1,0,0.1,0,0.2-0.1c0,0,0,0,0,0c0.1,0,0.1-0.1,0.2-0.1c0,0,0,0,0,0c0.1,0,0.1-0.1,0.1-0.1
		c0,0,0,0,0,0c0,0,0.1-0.1,0.1-0.1c0,0,0,0,0.1,0c0.1,0,0.1-0.1,0.1-0.1c0,0,0,0,0,0l29-29c0,0,0,0,0,0
		C48.4,170.8,48.4,170.8,48.5,170.7C48.5,170.7,48.5,170.7,48.5,170.7z M-56.4,61.6H44.4V167H17.7c-1.3,0-2.3,1-2.3,2.3V196h-71.8
		V61.6z M20,171.6h21.2L20,192.8V171.6z"/>
	<path class="st1" d="M-15.5,86h43.9c1.3,0,2.3-1,2.3-2.3s-1-2.3-2.3-2.3h-43.9c-1.3,0-2.3,1-2.3,2.3S-16.8,86-15.5,86z"/>
	<path class="st1" d="M-35.9,91.5c0.4,0.4,1,0.7,1.6,0.7c0.6,0,1.2-0.2,1.6-0.7l12.2-12.2c0.9-0.9,0.9-2.3,0-3.2
		c-0.9-0.9-2.3-0.9-3.2,0l-10.6,10.6l-3-3c-0.9-0.9-2.3-0.9-3.2,0c-0.9,0.9-0.9,2.3,0,3.2L-35.9,91.5z"/>
	<path class="st1" d="M-21.3,105.1c0,1.3,1,2.3,2.3,2.3h47.4c1.3,0,2.3-1,2.3-2.3s-1-2.3-2.3-2.3H-19
		C-20.2,102.8-21.3,103.8-21.3,105.1z"/>
	<path class="st1" d="M-28.1,96.7h-12.2c-1.3,0-2.3,1-2.3,2.3v12.2c0,1.3,1,2.3,2.3,2.3h12.2c1.3,0,2.3-1,2.3-2.3V99
		C-25.8,97.7-26.9,96.7-28.1,96.7z M-30.4,108.9h-7.6v-7.6h7.6V108.9z"/>
	<path class="st1" d="M28.4,124.2H-19c-1.3,0-2.3,1-2.3,2.3c0,1.3,1,2.3,2.3,2.3h47.4c1.3,0,2.3-1,2.3-2.3
		C30.7,125.2,29.6,124.2,28.4,124.2z"/>
	<path class="st1" d="M-28.1,118.1h-12.2c-1.3,0-2.3,1-2.3,2.3v12.2c0,1.3,1,2.3,2.3,2.3h12.2c1.3,0,2.3-1,2.3-2.3v-12.2
		C-25.8,119.1-26.9,118.1-28.1,118.1z M-30.4,130.3h-7.6v-7.6h7.6V130.3z"/>
	<path class="st1" d="M28.4,145.6H-19c-1.3,0-2.3,1-2.3,2.3s1,2.3,2.3,2.3h47.4c1.3,0,2.3-1,2.3-2.3S29.6,145.6,28.4,145.6z"/>
	<path class="st1" d="M-28.1,139.5h-12.2c-1.3,0-2.3,1-2.3,2.3V154c0,1.3,1,2.3,2.3,2.3h12.2c1.3,0,2.3-1,2.3-2.3v-12.2
		C-25.8,140.5-26.9,139.5-28.1,139.5z M-30.4,151.7h-7.6v-7.6h7.6V151.7z"/>
	<path class="st1" d="M8.5,167H-19c-1.3,0-2.3,1-2.3,2.3s1,2.3,2.3,2.3H8.5c1.3,0,2.3-1,2.3-2.3S9.8,167,8.5,167z"/>
	<path class="st1" d="M-28.1,160.9h-12.2c-1.3,0-2.3,1-2.3,2.3v12.2c0,1.3,1,2.3,2.3,2.3h12.2c1.3,0,2.3-1,2.3-2.3v-12.2
		C-25.8,161.9-26.9,160.9-28.1,160.9z M-30.4,173.1h-7.6v-7.6h7.6V173.1z"/>
</g>
</svg>
