<?xml version="1.0" encoding="utf-8"?>
<!-- Generator: Adobe Illustrator 16.0.0, SVG Export Plug-In . SVG Version: 6.00 Build 0)  -->
<!DOCTYPE svg PUBLIC "-//W3C//DTD SVG 1.1//EN" "http://www.w3.org/Graphics/SVG/1.1/DTD/svg11.dtd">
<svg version="1.1" id="Layer_1" xmlns="http://www.w3.org/2000/svg" xmlns:xlink="http://www.w3.org/1999/xlink" x="0px" y="0px"
	 width="120px" height="144px" viewBox="0 0 120 144" enable-background="new 0 0 120 144" xml:space="preserve">
<path fill="#FBD123" d="M114.946,51.206c-0.18-3.846-3.875-6.851-11.264-9.144c0.249-0.674,0.39-1.375,0.391-2.104V24.232h-0.03
	c-0.649-13.1-44.01-13.486-48.989-13.486c-4.98,0-48.34,0.386-48.99,13.486H6.033v0.292l0,0l0,0v15.441
	c0.009,4.27,4.461,7.612,11.084,10.101c-0.091,0.373-0.146,0.752-0.163,1.139h-0.028v0.293l0,0l0,0v15.413
	c-7.135,2.275-10.699,5.237-10.875,9.02H6.033v0.293l0,0l0,0v15.44c0.005,2.974,2.171,5.495,5.715,7.598
	c-0.134,0.456-0.218,0.921-0.241,1.397H11.48v0.292l0,0l0,0v15.439c0.014,7.477,13.611,12.119,28.719,14.286
	c0.11,0.026,0.212,0.082,0.33,0.082c0.035,0,0.064-0.021,0.098-0.024c2.913,0.406,5.873,0.724,8.8,0.951
	c0.062,0.008,0.116,0.046,0.18,0.046c0.034,0,0.061-0.024,0.094-0.026c3.719,0.279,7.376,0.421,10.799,0.421
	s7.081-0.142,10.798-0.423c0.033,0.002,0.062,0.025,0.095,0.025c0.063,0,0.118-0.039,0.181-0.045c2.928-0.228,5.888-0.543,8.8-0.951
	c0.034,0,0.063,0.022,0.099,0.022c0.117,0,0.219-0.057,0.33-0.084c15.107-2.167,28.702-6.811,28.718-14.288v-15.726h-0.029
	c-0.126-2.756-2.023-5.056-5.771-6.978c0.229-0.649,0.354-1.324,0.354-2.023V76.966c6.519-2.482,10.886-5.802,10.894-10.034V51.206
	H114.946z M100.247,92.388l-0.62,0.673c-0.953,1.04-2.541,2.091-4.632,3.102V85.444c2.159-0.931,3.996-1.962,5.448-3.093v9.302
	C100.443,91.884,100.373,92.131,100.247,92.388z M59.64,102.834c-0.266,0.009-0.532,0.013-0.799,0.021
	c-0.648,0.016-1.312,0.02-1.969,0.026V91.653c0.499-0.007,0.998-0.016,1.498-0.027c0.096-0.002,0.192-0.004,0.289-0.006
	c1.829-0.043,3.655-0.113,5.477-0.217v11.224c-0.39,0.023-0.78,0.048-1.175,0.066C61.867,102.755,60.763,102.8,59.64,102.834z
	 M51.711,102.864c-0.832-0.018-1.66-0.043-2.482-0.073c-0.101-0.005-0.203-0.01-0.305-0.014c-0.988-0.04-1.971-0.092-2.946-0.15
	V91.405c1.82,0.105,3.647,0.176,5.477,0.217c0.096,0.002,0.191,0.004,0.287,0.006c0.499,0.011,0.998,0.021,1.498,0.027v11.234
	c-0.353-0.004-0.706-0.004-1.055-0.011C52.023,102.874,51.869,102.867,51.711,102.864z M18.918,97.74
	c-0.06-0.023-0.115-0.043-0.176-0.063V86.818c1.696,0.566,3.519,1.083,5.447,1.553v10.973c-1.667-0.44-3.205-0.901-4.604-1.372
	C19.363,97.893,19.134,97.819,18.918,97.74z M57.187,116.354c0.499,0.011,0.999,0.02,1.498,0.027v11.235
	c-2.509-0.029-4.931-0.119-7.262-0.26v-11.224c1.819,0.105,3.647,0.175,5.476,0.216C56.994,116.35,57.091,116.352,57.187,116.354z
	 M64.103,116.347c1.828-0.042,3.655-0.111,5.476-0.215v11.224c-2.331,0.141-4.752,0.23-7.264,0.26v-11.236
	c0.5-0.007,1-0.016,1.499-0.027C63.91,116.352,64.006,116.35,64.103,116.347z M78.655,115.331v11.163
	c-1.744,0.227-3.56,0.427-5.446,0.591v-11.209C75.05,115.727,76.87,115.545,78.655,115.331z M82.286,114.846
	c1.872-0.278,3.69-0.596,5.447-0.948v11.036c-1.71,0.373-3.527,0.717-5.447,1.029V114.846z M91.364,113.094
	c1.929-0.469,3.751-0.986,5.447-1.553V122.4c-1.618,0.577-3.438,1.138-5.447,1.665V113.094z M29.635,113.094v10.972
	c-2.008-0.527-3.829-1.088-5.446-1.665v-10.859C25.885,112.107,27.708,112.627,29.635,113.094z M33.267,113.899
	c1.758,0.353,3.575,0.67,5.447,0.948v11.118c-1.919-0.312-3.736-0.657-5.447-1.03V113.899z M42.344,115.331
	c1.787,0.214,3.606,0.396,5.447,0.547v11.209c-1.887-0.164-3.702-0.363-5.447-0.591V115.331z M37.84,101.89
	c-0.185-0.023-0.368-0.048-0.551-0.069c-0.131-0.017-0.26-0.036-0.391-0.052V90.607c1.787,0.214,3.606,0.396,5.447,0.546v11.201
	C40.819,102.22,39.312,102.067,37.84,101.89z M33.267,90.12v11.118c-1.918-0.313-3.736-0.657-5.446-1.03V89.171
	C29.578,89.524,31.395,89.844,33.267,90.12z M68.972,102.249c-0.398,0.038-0.803,0.076-1.21,0.112v-11.21
	c1.841-0.15,3.661-0.33,5.447-0.547v11.164c-1.121,0.145-2.27,0.283-3.447,0.402C69.498,102.199,69.234,102.225,68.972,102.249z
	 M76.841,101.238V90.12c1.872-0.278,3.688-0.596,5.445-0.949v11.037C80.577,100.581,78.759,100.928,76.841,101.238z M85.917,88.369
	c1.93-0.47,3.753-0.986,5.447-1.554v10.859c-1.617,0.578-3.439,1.137-5.447,1.666V88.369z M61.09,78.101
	c-1.365-0.042-2.7-0.107-4.011-0.186c-0.071-0.006-0.141-0.01-0.209-0.012V66.68c1.818,0.105,3.646,0.174,5.474,0.215
	c0.098,0.002,0.193,0.004,0.287,0.008c0.501,0.01,1,0.02,1.498,0.026v11.223c-0.883-0.012-1.775-0.015-2.638-0.041
	C61.359,78.107,61.223,78.105,61.09,78.101z M18.742,45.978V35.119c1.696,0.566,3.519,1.083,5.447,1.553v10.972
	c-0.224-0.059-0.454-0.117-0.672-0.175c-0.966-0.264-1.908-0.538-2.809-0.828C20.022,46.423,19.371,46.2,18.742,45.978z
	 M51.74,39.928c0.499,0.012,0.998,0.021,1.498,0.028v11.223c-2.445-0.029-4.874-0.108-7.263-0.256V39.708
	c1.82,0.106,3.647,0.175,5.476,0.216C51.547,39.925,51.644,39.927,51.74,39.928z M58.656,39.922
	c1.828-0.042,3.657-0.113,5.476-0.216v11.215c-0.308,0.018-0.605,0.045-0.915,0.062c-0.026,0.003-0.051,0.003-0.078,0.005
	c-1.221,0.068-2.46,0.118-3.719,0.154c-0.196,0.006-0.391,0.008-0.587,0.015c-0.646,0.016-1.308,0.018-1.962,0.028V39.956
	c0.499-0.007,0.998-0.016,1.497-0.028C58.463,39.927,58.559,39.925,58.656,39.922z M100.026,41.051l-0.051-0.014l-0.66,0.636
	c-0.959,0.923-2.432,1.858-4.32,2.763V33.743c2.159-0.93,3.996-1.962,5.448-3.093v9.301
	C100.443,40.293,100.297,40.662,100.026,41.051z M76.841,49.524V38.42c1.872-0.278,3.688-0.596,5.445-0.949v11.02
	C80.564,48.868,78.754,49.214,76.841,49.524z M85.917,47.626V36.672c1.93-0.47,3.753-0.987,5.447-1.553v10.835
	C89.737,46.54,87.906,47.1,85.917,47.626z M73.209,38.907v11.148c-1.754,0.23-3.569,0.431-5.447,0.597V39.452
	C69.603,39.302,71.423,39.12,73.209,38.907z M36.898,50.06V38.907c1.786,0.213,3.606,0.396,5.446,0.545v11.189
	C40.497,50.478,38.673,50.291,36.898,50.06z M33.267,38.42v11.107c-0.36-0.058-0.733-0.106-1.089-0.166
	c-0.232-0.041-0.454-0.084-0.683-0.125c-1.05-0.186-2.075-0.386-3.081-0.595c-0.202-0.043-0.396-0.088-0.594-0.131V37.474
	C29.578,37.825,31.395,38.144,33.267,38.42z M52.788,77.593c-0.245-0.022-0.492-0.044-0.735-0.067
	c-1.162-0.112-2.297-0.236-3.404-0.374c-0.238-0.028-0.477-0.061-0.712-0.089c-0.048-0.006-0.096-0.017-0.145-0.02V65.88
	c1.786,0.214,3.605,0.395,5.447,0.546v11.203C53.09,77.615,52.935,77.606,52.788,77.593z M40.792,75.913
	c-0.719-0.141-1.395-0.293-2.079-0.441V64.449c1.757,0.353,3.575,0.668,5.446,0.948v11.117c-1.11-0.182-2.198-0.37-3.243-0.573
	C40.876,75.93,40.833,75.92,40.792,75.913z M35.082,63.644v10.953c-2.006-0.533-3.825-1.1-5.447-1.688V62.09
	C31.332,62.657,33.154,63.176,35.082,63.644z M26.005,60.717v10.68c-2.855-1.365-4.695-2.758-5.295-3.999l-0.122-0.251
	c-0.011-0.071-0.029-0.145-0.03-0.215v-9.309C22.009,58.754,23.846,59.786,26.005,60.717z M69.55,66.896
	c1.827-0.043,3.655-0.112,5.475-0.215v11.211c-2.386,0.146-4.811,0.228-7.263,0.259V66.93c0.5-0.006,0.998-0.016,1.499-0.026
	C69.356,66.899,69.452,66.897,69.55,66.896z M93.013,75.521c-0.799,0.171-1.603,0.339-2.43,0.495
	c-0.473,0.09-0.958,0.175-1.444,0.261c-0.459,0.081-0.938,0.149-1.403,0.224V65.395c1.872-0.279,3.688-0.596,5.446-0.949v11.037
	C93.124,75.496,93.068,75.509,93.013,75.521z M80.719,77.44c-0.679,0.069-1.378,0.114-2.063,0.175V66.426
	c1.842-0.151,3.66-0.331,5.447-0.546v11.15c-1.057,0.138-2.107,0.275-3.191,0.388C80.845,77.424,80.782,77.434,80.719,77.44z
	 M101.466,73.226c-0.903,0.312-1.859,0.604-2.837,0.89c-0.452,0.131-0.913,0.262-1.386,0.387c-0.14,0.039-0.289,0.071-0.43,0.11
	V63.646c1.929-0.47,3.751-0.987,5.446-1.553v10.86C101.998,73.042,101.735,73.134,101.466,73.226z M111.315,51.353
	c-0.167,1.525-2.961,3.555-7.948,5.464l0,0c-6.424,2.458-16.476,4.707-29.212,5.404c-0.652,0.033-1.303,0.066-1.967,0.093
	c-0.543,0.023-1.088,0.043-1.641,0.061c-1.503,0.04-3.029,0.07-4.601,0.07c-1.573,0-3.098-0.03-4.602-0.072
	c-0.552-0.016-1.097-0.039-1.641-0.061c-0.666-0.025-1.316-0.061-1.966-0.095C45,61.521,34.948,59.271,28.526,56.815l0,0
	c-4.947-1.893-7.736-3.908-7.943-5.427c0.009-0.042,0.009-0.078,0.031-0.132c0.124,0.037,0.262,0.069,0.387,0.108
	c0.71,0.209,1.438,0.411,2.179,0.605c3.607,0.961,7.605,1.751,11.864,2.354c0.015,0,0.026,0.008,0.038,0.008
	c0.004,0,0.007-0.002,0.009-0.002c2.901,0.409,5.911,0.73,9.001,0.957c0.024,0,0.044,0.016,0.067,0.016
	c0.013,0,0.022-0.008,0.035-0.008c2.224,0.162,4.478,0.28,6.758,0.342c1.396,0.043,2.766,0.066,4.102,0.066
	c0.952,0,1.93-0.014,2.915-0.036c13.192-0.252,25.418-2.194,33.926-5.203c0.392-0.138,0.775-0.28,1.152-0.421
	c0.231-0.087,0.469-0.172,0.69-0.26c0.658-0.262,1.286-0.529,1.896-0.807c0.104-0.05,0.206-0.098,0.312-0.149
	c0.513-0.24,1.006-0.489,1.478-0.744c0.137-0.074,0.276-0.146,0.41-0.219c0.502-0.282,0.988-0.57,1.439-0.868
	c0.202-0.132,0.379-0.27,0.569-0.405c0.219-0.155,0.438-0.312,0.638-0.471c0.114-0.09,0.251-0.176,0.36-0.266
	C108.967,48.034,111.109,50.421,111.315,51.353z M55.054,15.241c29.937,0,45.078,5.836,45.362,9.185
	c-0.221,1.52-3.008,3.526-7.942,5.415l0,0C86.051,32.298,76,34.548,63.262,35.245c-0.651,0.034-1.302,0.067-1.967,0.094
	c-0.543,0.022-1.087,0.043-1.641,0.061c-1.503,0.043-3.028,0.072-4.6,0.072s-3.098-0.029-4.601-0.072
	c-0.552-0.016-1.096-0.038-1.641-0.061c-0.667-0.025-1.316-0.061-1.966-0.094c-12.738-0.697-22.791-2.947-29.213-5.404l0,0
	c-4.936-1.889-7.721-3.896-7.94-5.415C9.975,21.077,25.117,15.241,55.054,15.241z M9.665,39.958V30.65
	c1.45,1.13,3.288,2.163,5.446,3.093v10.763C11.58,42.867,9.668,41.224,9.665,39.958z M18.459,71.065
	c0.027,0.036,0.069,0.066,0.096,0.103c2.485,3.106,7.633,5.549,14.04,7.369c0.147,0.043,0.303,0.083,0.452,0.126
	c0.47,0.131,0.947,0.259,1.431,0.382c5.883,1.551,12.909,2.673,20.561,3.228c0.005,0,0.009,0.002,0.013,0.002
	s0.005-0.002,0.007-0.002c2.459,0.179,4.973,0.301,7.541,0.355c1.136,0.03,2.254,0.048,3.348,0.048c1.251,0,2.538-0.018,3.846-0.058
	c2.373-0.061,4.714-0.182,7.021-0.348c0.01,0,0.017,0.006,0.026,0.006c0.016,0,0.029-0.01,0.045-0.01
	c7.673-0.56,14.871-1.692,20.959-3.323c-1.319,0.854-3.124,1.738-5.371,2.6l0,0c-6.781,2.593-17.611,4.955-31.374,5.504
	c-0.409,0.016-0.812,0.034-1.226,0.047c-0.444,0.014-0.897,0.023-1.348,0.035c-1.143,0.021-2.292,0.042-3.472,0.042
	c-1.572,0-3.098-0.029-4.601-0.072c-0.552-0.016-1.096-0.038-1.641-0.061c-0.667-0.025-1.316-0.062-1.966-0.095
	c-12.738-0.696-22.791-2.946-29.213-5.403l0,0c-4.992-1.911-7.787-3.942-7.948-5.469C9.886,75.226,11.721,73.11,18.459,71.065z
	 M9.665,91.657V82.35c1.45,1.13,3.288,2.163,5.446,3.094v10.719l-1.037-0.498l-0.021,0.025C11.202,94.228,9.668,92.79,9.665,91.657z
	 M15.111,116.384v-9.309c1.451,1.13,3.289,2.162,5.447,3.093v10.763C17.026,119.292,15.115,117.648,15.111,116.384z
	 M100.443,120.931v-10.76c2.158-0.931,3.995-1.963,5.445-3.093v9.301C105.887,117.644,103.973,119.289,100.443,120.931z
	 M105.865,100.831c-0.197,1.521-2.987,3.54-7.944,5.438l0,0c-6.425,2.456-16.474,4.707-29.212,5.403
	c-0.652,0.034-1.303,0.067-1.968,0.094c-0.541,0.023-1.086,0.043-1.641,0.062c-1.504,0.04-3.028,0.068-4.601,0.068
	c-1.573,0-3.099-0.028-4.604-0.071c-0.547-0.016-1.086-0.037-1.625-0.061c-0.67-0.027-1.324-0.061-1.979-0.094
	c-12.738-0.697-22.789-2.947-29.212-5.404l0,0c-4.802-1.837-7.577-3.787-7.925-5.293c0.54,0.233,1.102,0.461,1.677,0.684
	c0.058,0.021,0.117,0.044,0.175,0.064c0.489,0.187,0.991,0.366,1.505,0.543c0.194,0.066,0.39,0.134,0.588,0.198
	c0.291,0.098,0.588,0.188,0.887,0.284c6.612,2.096,15.052,3.583,24.165,4.251c0.003,0,0.006,0.002,0.009,0.002
	c0.002,0,0.004-0.002,0.006-0.002c2.813,0.206,5.688,0.334,8.593,0.378c0.774,0.018,1.542,0.026,2.295,0.026
	c1,0,2.023-0.016,3.061-0.039c2.648-0.053,5.262-0.176,7.819-0.363c0.006,0,0.01,0.005,0.015,0.005c0.01,0,0.016-0.007,0.024-0.007
	c3.113-0.231,6.127-0.562,9.022-0.974c0.011,0,0.021,0.007,0.031,0.007c0.04,0,0.072-0.025,0.113-0.03
	c3.225-0.461,6.281-1.026,9.12-1.686c0.583-0.132,1.158-0.27,1.729-0.41c0.126-0.032,0.253-0.063,0.382-0.098
	c5.36-1.363,10.002-3.127,13.186-5.313c0.175-0.116,0.338-0.238,0.503-0.357c0.202-0.149,0.394-0.299,0.582-0.451
	c0.172-0.141,0.374-0.275,0.534-0.417C104.761,98.851,105.748,100.267,105.865,100.831z M105.889,71.479V60.719
	c2.159-0.93,3.996-1.962,5.447-3.093v9.302C111.334,68.193,109.42,69.838,105.889,71.479z"/>
</svg>
