<?xml version="1.0" encoding="utf-8"?>
<!-- Generator: Adobe Illustrator 16.0.0, SVG Export Plug-In . SVG Version: 6.00 Build 0)  -->
<!DOCTYPE svg PUBLIC "-//W3C//DTD SVG 1.1//EN" "http://www.w3.org/Graphics/SVG/1.1/DTD/svg11.dtd">
<svg version="1.1" id="Layer_1" xmlns="http://www.w3.org/2000/svg" xmlns:xlink="http://www.w3.org/1999/xlink" x="0px" y="0px"
	 width="120px" height="144px" viewBox="0 0 120 144" enable-background="new 0 0 120 144" xml:space="preserve">
<g>
	<path fill="#FEDA46" d="M96.498,20.001H29.355c-7.445,0-13.503,6.148-13.503,13.706v13.262c-3.037,0.471-5.372,3.121-5.372,6.318
		v6.802c0,3.199,2.335,5.848,5.372,6.319v3.041c-3.037,0.472-5.372,3.122-5.372,6.319v6.802c0,3.198,2.335,5.848,5.372,6.319v13.262
		c0,7.063,5.292,12.894,12.062,13.627v2.819c0,3.531,2.843,6.402,6.337,6.402h6.672c3.494,0,6.337-2.871,6.337-6.402v-2.74h31.332
		v2.74c0,3.531,2.843,6.402,6.338,6.402h6.672c3.495,0,6.338-2.871,6.338-6.402v-2.819c6.77-0.733,12.061-6.563,12.061-13.627
		V33.707C110,26.149,103.943,20.001,96.498,20.001z M34.321,82.43H17.012v-6.521h17.309V82.43z M34.321,69.367H22.385v-2.875h11.937
		V69.367z M34.321,59.949H17.012v-6.521h17.309V59.949z M40.729,118.457h-6.283v-2.601h6.283V118.457z M85.124,118.457v-2.601h6.283
		v2.601H85.124z M103.468,102.15c0,3.95-3.127,7.164-6.97,7.164H29.355c-3.844,0-6.971-3.214-6.971-7.164v-13.18h12.021
		c0.604,4.544,4.455,8.06,9.102,8.06h38.836c5.066,0,9.188-4.176,9.188-9.307v-39.59c0-5.131-4.121-9.307-9.188-9.307H43.508
		c-4.647,0-8.498,3.516-9.102,8.059H22.385V33.707c0-3.951,3.127-7.165,6.971-7.165h67.143c3.844,0,6.971,3.214,6.971,7.165
		L103.468,102.15L103.468,102.15z M40.853,87.724v-39.59c0-1.524,1.191-2.764,2.655-2.764h38.836c1.465,0,2.655,1.24,2.655,2.764
		v39.59c0,1.524-1.19,2.765-2.655,2.765H43.508C42.044,90.488,40.853,89.248,40.853,87.724z"/>
	<path fill="#FEDA46" d="M62.927,88.82c11.331,0,20.551-9.372,20.551-20.892c0-11.519-9.22-20.891-20.551-20.891
		c-11.332,0-20.551,9.372-20.551,20.891C42.376,79.448,51.595,88.82,62.927,88.82z M62.927,53.58
		c7.729,0,14.019,6.437,14.019,14.349c0,7.911-6.289,14.349-14.019,14.349c-7.73,0-14.019-6.437-14.019-14.349
		S55.197,53.58,62.927,53.58z"/>
	<path fill="#FEDA46" d="M62.927,79.001c6.02,0,10.918-4.968,10.918-11.072c0-6.105-4.898-11.073-10.918-11.073
		c-6.021,0-10.919,4.968-10.919,11.073C52.008,74.033,56.906,79.001,62.927,79.001z M62.927,63.399c2.418,0,4.387,2.032,4.387,4.53
		c0,2.499-1.968,4.53-4.387,4.53s-4.387-2.032-4.387-4.53C58.54,65.431,60.507,63.399,62.927,63.399z"/>
</g>
</svg>
