<?xml version="1.0" encoding="utf-8"?>
<!-- Generator: Adobe Illustrator 16.0.0, SVG Export Plug-In . SVG Version: 6.00 Build 0)  -->
<!DOCTYPE svg PUBLIC "-//W3C//DTD SVG 1.1//EN" "http://www.w3.org/Graphics/SVG/1.1/DTD/svg11.dtd">
<svg version="1.1" id="Layer_1" xmlns="http://www.w3.org/2000/svg" xmlns:xlink="http://www.w3.org/1999/xlink" x="0px" y="0px"
	 width="120px" height="144px" viewBox="0 0 120 144" enable-background="new 0 0 120 144" xml:space="preserve">
<path fill="#F0C725" d="M115.193,58.545l-10.449-21.887c-0.354-0.742-0.959-1.253-1.643-1.463c-0.005-0.001-0.008-0.003-0.013-0.004
	L59.555,22.126c-0.453-0.135-0.931-0.136-1.384,0L14.418,35.189c-0.005,0.001-0.008,0.003-0.013,0.004
	c-0.685,0.209-1.291,0.721-1.645,1.464L2.311,58.545c-0.341,0.714-0.404,1.551-0.175,2.317c0.229,0.767,0.729,1.396,1.387,1.74
	l9.091,4.777v29.9c0,1.134,0.584,2.167,1.503,2.661l43.589,23.386c0.365,0.196,0.761,0.294,1.155,0.294
	c0.391,0,0.779-0.1,1.138-0.291c0.006-0.002,0.012-0.001,0.018-0.003l43.586-23.387c0.921-0.493,1.505-1.526,1.505-2.66V67.384
	c0-0.039-0.004-0.077-0.005-0.115l8.879-4.666c0.656-0.345,1.158-0.974,1.387-1.74C115.597,60.096,115.534,59.259,115.193,58.545z
	 M58.859,28.041l34.812,10.446L58.752,52.873L23.85,38.493L58.859,28.041z M16.366,41.714l38.811,15.99l-8.547,21.013L8.312,58.583
	L16.366,41.714z M17.932,95.425v-25.25l28.87,15.171c0.358,0.189,0.747,0.284,1.135,0.284c0.312,0,0.621-0.061,0.918-0.182
	c0.669-0.273,1.211-0.834,1.505-1.557l5.843-14.365v46.432L17.932,95.425z M99.791,95.425L61.52,115.958V70.064l5.624,13.827
	c0.295,0.723,0.836,1.283,1.505,1.557c0.298,0.121,0.608,0.182,0.917,0.182c0.39,0,0.779-0.095,1.138-0.284L99.791,70.06V95.425
	L99.791,95.425z M70.875,78.717l-8.549-21.013l38.812-15.991l8.054,16.869L70.875,78.717z"/>
</svg>
