<?xml version="1.0" encoding="utf-8"?>
<!-- Generator: Adobe Illustrator 16.0.0, SVG Export Plug-In . SVG Version: 6.00 Build 0)  -->
<!DOCTYPE svg PUBLIC "-//W3C//DTD SVG 1.1//EN" "http://www.w3.org/Graphics/SVG/1.1/DTD/svg11.dtd">
<svg version="1.1" id="Layer_1" xmlns="http://www.w3.org/2000/svg" xmlns:xlink="http://www.w3.org/1999/xlink" x="0px" y="0px"
	 width="120px" height="144px" viewBox="0 0 120 144" enable-background="new 0 0 120 144" xml:space="preserve">
<path fill="#F6CF37" d="M113.184,67.297l-14.843-7.88l11.855-7.913c0.671-0.449,1.052-1.217,1-2.019
	c-0.053-0.801-0.529-1.514-1.255-1.874l-33.433-16.56c-0.706-0.35-1.547-0.312-2.219,0.1l-13.597,8.341l-13.597-8.341
	c-0.672-0.413-1.512-0.45-2.22-0.1l-33.431,16.56c-0.726,0.359-1.204,1.073-1.255,1.875c-0.053,0.8,0.328,1.568,1.001,2.018
	l11.854,7.914l-14.842,7.88C7.477,67.684,7.018,68.425,7,69.239c-0.018,0.814,0.409,1.575,1.117,1.991L41.23,90.663
	c0.357,0.21,0.76,0.315,1.162,0.315c0.37,0,0.74-0.089,1.077-0.268l14.945-7.935v33.68l-28.792-14.293V89.141
	c0-1.247-1.02-2.259-2.279-2.259c-1.259,0-2.279,1.012-2.279,2.259v14.416c0,0.854,0.488,1.637,1.258,2.019l33.351,16.555
	c0.022,0.01,0.044,0.019,0.066,0.027c0.035,0.017,0.071,0.032,0.107,0.047c0.056,0.023,0.114,0.042,0.171,0.061
	c0.033,0.009,0.069,0.021,0.104,0.03c0.063,0.017,0.126,0.027,0.19,0.038c0.031,0.006,0.063,0.014,0.096,0.017
	c0.086,0.012,0.172,0.017,0.258,0.018c0.01,0,0.02,0.002,0.03,0.002c0.097,0,0.194-0.008,0.292-0.02
	c0.023-0.003,0.047-0.01,0.071-0.013c0.071-0.012,0.142-0.025,0.212-0.044c0.033-0.008,0.064-0.02,0.098-0.028
	c0.062-0.019,0.121-0.039,0.18-0.065c0.036-0.013,0.072-0.027,0.106-0.044c0.02-0.009,0.041-0.016,0.062-0.026l33.35-16.554
	c0.771-0.382,1.259-1.164,1.259-2.019V89.141c0-1.247-1.021-2.259-2.279-2.259s-2.278,1.012-2.278,2.259v13.022l-28.793,14.291
	V82.776l14.944,7.935c0.337,0.179,0.707,0.268,1.077,0.268c0.402,0,0.805-0.105,1.162-0.315l33.112-19.434
	c0.707-0.415,1.136-1.176,1.117-1.991C114.368,68.424,113.908,67.683,113.184,67.297z M60.693,76.379L32.129,59.616l28.564-14.915
	l28.563,14.915L60.693,76.379z M75.608,35.654l28.802,14.267L93.9,56.937L65.278,41.991L75.608,35.654z M45.778,35.654l10.33,6.337
	L27.485,56.937l-10.51-7.016L45.778,35.654z M42.448,86.13l-28.53-16.744l13.606-7.224l28.529,16.745L42.448,86.13z M78.938,86.13
	l-13.605-7.224l28.53-16.745l13.605,7.224L78.938,86.13z"/>
</svg>
