<?xml version="1.0" encoding="utf-8"?>
<!-- Generator: Adobe Illustrator 16.0.0, SVG Export Plug-In . SVG Version: 6.00 Build 0)  -->
<!DOCTYPE svg PUBLIC "-//W3C//DTD SVG 1.1//EN" "http://www.w3.org/Graphics/SVG/1.1/DTD/svg11.dtd">
<svg version="1.1" id="Layer_1" xmlns="http://www.w3.org/2000/svg" xmlns:xlink="http://www.w3.org/1999/xlink" x="0px" y="0px"
	 width="120px" height="144px" viewBox="0 0 120 144" enable-background="new 0 0 120 144" xml:space="preserve">
<g>
	<path fill="#FEDA46" d="M73.485,39.67c-7.5-4.265-19.594-4.265-27.045,0c-7.452,4.266-7.403,11.182,0.098,15.447
		c7.5,4.266,19.593,4.266,27.045,0C81.035,50.852,80.986,43.936,73.485,39.67z M70.065,46.394c-0.636,0.192-1.295,0.41-1.931,0.603
		c-0.391,0.12-0.635,0.145-0.806,0.048c-0.099-0.048-0.171-0.145-0.269-0.29c-0.439-0.699-1.1-1.277-1.979-1.784
		c-0.097-0.048-0.22-0.121-0.317-0.168c-0.27-0.145-0.587-0.265-0.929-0.337c-1.245-0.29-2.346,0.192-2.174,0.939
		c0.073,0.386,0.293,0.747,0.537,1.109c0.44,0.626,0.928,1.229,1.245,1.88c1.051,2.048-1.221,4.073-4.836,4.29
		c-1.319,0.072-2.565-0.097-3.714-0.458c-0.488-0.168-0.879-0.144-1.271,0.097c-0.366,0.241-0.781,0.458-1.197,0.675
		c-0.367,0.193-0.733,0.217-1.1,0c-0.269-0.144-0.513-0.289-0.757-0.434c-0.171-0.096-0.367-0.217-0.538-0.313
		c-0.366-0.217-0.342-0.434,0.024-0.651c0.293-0.169,0.586-0.338,0.855-0.506c0.635-0.386,0.635-0.41,0.122-0.819
		c-0.684-0.531-1.27-1.061-1.637-1.688c-0.293-0.482-0.22-0.603,0.538-0.843c0.562-0.193,1.148-0.362,1.71-0.53
		c0.415-0.121,0.659-0.169,0.831-0.073c0.098,0.048,0.171,0.169,0.269,0.313c0.391,0.699,1.002,1.325,1.784,1.88
		c0.122,0.096,0.269,0.192,0.415,0.265c0.416,0.241,0.929,0.434,1.491,0.555c1.417,0.313,2.736-0.265,2.59-1.133
		c-0.049-0.29-0.197-0.578-0.392-0.868c-0.489-0.723-1.124-1.398-1.466-2.145c-0.537-1.205-0.293-2.337,1.417-3.205
		c1.93-0.988,4.128-1.036,6.425-0.434c0.953,0.241,0.953,0.265,1.662-0.169c0.244-0.144,0.488-0.29,0.732-0.409
		c0.562-0.314,0.732-0.314,1.295,0c0.049,0.023,0.121,0.072,0.171,0.096c0.122,0.072,0.22,0.121,0.342,0.192
		c1.173,0.675,1.173,0.675,0.024,1.325c-0.807,0.458-0.831,0.458-0.121,1.013c0.537,0.41,0.952,0.867,1.27,1.349
		C70.603,46.056,70.505,46.249,70.065,46.394z M116.021,54.178L47.979,15.426c-0.928-0.53-2.443-0.53-3.396,0L4.027,38.682
		c-0.928,0.531-0.928,1.397,0,1.928l68.042,38.751c0.953,0.529,2.443,0.529,3.396,0l40.581-23.256
		C116.949,55.575,116.949,54.708,116.021,54.178z M80.546,70.42c-0.366-0.361-0.83-0.699-1.368-0.988
		c-3.469-1.975-9.064-1.975-12.508,0c-0.27,0.145-0.49,0.314-0.709,0.482L20.127,43.767c0.44-0.169,0.855-0.362,1.247-0.603
		c3.444-1.976,3.42-5.182-0.049-7.133c-0.391-0.217-0.781-0.41-1.197-0.578l18.91-10.844c0.293,0.24,0.611,0.458,1.001,0.699
		c3.47,1.976,9.064,1.976,12.509,0c0.391-0.217,0.733-0.458,1.026-0.723l45.979,26.195c-0.61,0.217-1.173,0.458-1.71,0.747
		c-3.445,1.976-3.421,5.182,0.049,7.133c0.537,0.314,1.124,0.555,1.759,0.771L80.546,70.42z M86.092,60.54l-3.005,1.712
		c-0.464,0.265-1.197,0.265-1.662,0l-5.252-2.989c-0.464-0.265-0.464-0.699,0-0.964l3.005-1.711c0.465-0.265,1.197-0.265,1.687,0
		l5.252,2.988C86.557,59.84,86.557,60.274,86.092,60.54z M43.875,36.488l-3.005,1.711c-0.464,0.266-1.197,0.266-1.662,0
		l-5.252-2.988c-0.464-0.265-0.464-0.699,0-0.964l3.005-1.711c0.464-0.265,1.197-0.265,1.686,0l5.228,2.988
		C44.339,35.79,44.339,36.224,43.875,36.488z M111.427,66.083l5.303,3.013L74.194,93.459l-1.394-0.795l-3.908-2.217L3.27,53.045
		l5.253-3.013L74.17,87.434L111.427,66.083z M68.99,103.557L3.27,66.083l5.253-3.013l65.696,37.475l37.111-21.279l5.277,3.012
		l-42.34,24.291l-1.368-0.77L68.99,103.557z M111.427,92.182l5.303,3.012l-42.535,24.365l-1.394-0.795l-3.908-2.217L3.27,79.145
		l5.253-3.012l65.647,37.4L111.427,92.182z M111.33,105.363l5.277,3.014l-42.34,24.291l-1.368-0.771l-3.909-2.217L3.27,92.182
		l5.253-3.012l65.696,37.473L111.33,105.363z"/>
</g>
</svg>
