<?xml version="1.0" encoding="utf-8"?>
<!-- Generator: Adobe Illustrator 16.0.0, SVG Export Plug-In . SVG Version: 6.00 Build 0)  -->
<!DOCTYPE svg PUBLIC "-//W3C//DTD SVG 1.1//EN" "http://www.w3.org/Graphics/SVG/1.1/DTD/svg11.dtd">
<svg version="1.1" id="Layer_1" xmlns="http://www.w3.org/2000/svg" xmlns:xlink="http://www.w3.org/1999/xlink" x="0px" y="0px"
	 width="120px" height="144px" viewBox="0 0 120 144" enable-background="new 0 0 120 144" xml:space="preserve">
<g>
	<g>
		<path fill="#F7D137" d="M113.32,53.711H59.196c-1.083,0-1.804,0.771-1.804,1.929v73.297c0,1.158,0.722,1.93,1.804,1.93h54.125
			c1.083,0,1.805-0.771,1.805-1.93V55.64C115.125,54.483,114.403,53.711,113.32,53.711z M111.518,57.569v11.573H61
			c0-1.157,0-3.086,0-3.857h21.65v-3.857H61c0-0.387,0-3.858,0-3.858H111.518z M61,127.01c0,0,0-35.299,0-54.01h50.518v54.01H61z"/>
		<rect x="70.021" y="76.857" fill="#F7D137" width="5.412" height="3.857"/>
		<rect x="79.041" y="76.857" fill="#F7D137" width="5.414" height="3.857"/>
		<rect x="88.062" y="76.857" fill="#F7D137" width="5.412" height="3.857"/>
		<rect x="97.084" y="76.857" fill="#F7D137" width="5.412" height="3.857"/>
		<rect x="66.412" y="86.502" fill="#F7D137" width="7.217" height="3.857"/>
		<rect x="77.238" y="86.502" fill="#F7D137" width="7.217" height="3.857"/>
		<rect x="88.062" y="86.502" fill="#F7D137" width="7.217" height="3.857"/>
		<rect x="98.887" y="86.502" fill="#F7D137" width="7.217" height="3.857"/>
		<rect x="66.412" y="94.217" fill="#F7D137" width="7.217" height="3.859"/>
		<rect x="77.238" y="94.217" fill="#F7D137" width="7.217" height="3.859"/>
		<rect x="88.062" y="94.217" fill="#F7D137" width="7.217" height="3.859"/>
		<rect x="98.887" y="94.217" fill="#F7D137" width="7.217" height="3.859"/>
		<rect x="66.412" y="101.934" fill="#F7D137" width="7.217" height="3.857"/>
		<rect x="77.238" y="101.934" fill="#F7D137" width="7.217" height="3.857"/>
		<rect x="88.062" y="101.934" fill="#F7D137" width="7.217" height="3.857"/>
		<rect x="98.887" y="101.934" fill="#F7D137" width="7.217" height="3.857"/>
		<rect x="66.412" y="109.648" fill="#F7D137" width="7.217" height="3.857"/>
		<rect x="77.238" y="109.648" fill="#F7D137" width="7.217" height="3.857"/>
		<rect x="88.062" y="109.648" fill="#F7D137" width="7.217" height="3.857"/>
		<rect x="98.887" y="109.648" fill="#F7D137" width="7.217" height="3.857"/>
		<rect x="66.412" y="117.365" fill="#F7D137" width="7.217" height="3.857"/>
		<rect x="77.238" y="117.365" fill="#F7D137" width="7.217" height="3.857"/>
		<rect x="88.062" y="117.365" fill="#F7D137" width="7.217" height="3.857"/>
		<rect x="98.887" y="117.365" fill="#F7D137" width="7.217" height="3.857"/>
		<path fill="#F7D137" d="M10.483,42.138h19.846c1.083,0,1.804-0.771,1.804-1.93V18.991h61.341v27.005h3.609V17.062
			c0-1.157-0.723-1.929-1.805-1.929h-64.95l0,0c-0.18,0-0.361,0-0.541,0.192h-0.181c-0.18,0.193-0.361,0.193-0.541,0.386
			L7.417,38.859c-0.181,0.192-0.181,0.386-0.361,0.578v0.193c0,0.192-0.181,0.386-0.181,0.578l0,0v21.219h3.608
			C10.483,61.427,10.483,44.259,10.483,42.138z M28.525,38.28H13.009l7.758-8.294l7.758-8.294V38.28L28.525,38.28z"/>
		<path fill="#F7D137" d="M51.979,98.076H32.133v-7.717v-9.645v-9.644c0-1.157-0.722-1.929-1.804-1.929H8.679
			c-1.083,0-1.804,0.771-1.804,1.929v9.644v9.645v9.645v9.645v9.645v9.645c0,1.158,0.722,1.93,1.804,1.93h21.65h21.65
			c1.083,0,1.804-0.771,1.804-1.93v-9.645v-9.645v-9.645C53.783,98.848,53.062,98.076,51.979,98.076z M10.483,101.934h18.042v5.787
			H10.483V101.934z M28.525,98.076H10.483v-5.787h18.042V98.076z M28.525,88.432H10.483v-5.787h18.042V88.432z M10.483,111.578
			h18.042v5.787H10.483V111.578z M32.133,111.578h18.042v5.787H32.133V111.578z M50.175,107.721H32.133v-5.787h18.042V107.721z
			 M10.483,73h18.042v5.788H10.483V73z M10.483,121.223h18.042v5.787H10.483V121.223z M50.175,127.01H32.133v-5.787h18.042V127.01z"
			/>
		<rect x="75.434" y="24.778" fill="#F7D137" width="12.629" height="3.857"/>
		<rect x="55.587" y="34.422" fill="#F7D137" width="32.475" height="3.857"/>
		<rect x="86.258" y="61.427" fill="#F7D137" width="5.412" height="3.857"/>
	</g>
</g>
</svg>
